<?xml version="1.0" standalone="no"?>
<!DOCTYPE svg PUBLIC "-//W3C//DTD SVG 20010904//EN"
 "http://www.w3.org/TR/2001/REC-SVG-20010904/DTD/svg10.dtd">
<svg version="1.0" xmlns="http://www.w3.org/2000/svg"
 width="296.000000pt" height="297.000000pt" viewBox="0 0 296.000000 297.000000"
 preserveAspectRatio="xMidYMid meet">

<g transform="translate(0.000000,297.000000) scale(0.100000,-0.100000)"
fill="#000000" stroke="none">
<path d="M1270 2521 c-345 -75 -637 -321 -764 -644 -59 -148 -69 -208 -70
-397 -1 -162 1 -183 27 -274 105 -379 390 -663 766 -764 85 -22 115 -25 266
-25 151 0 181 3 267 26 293 78 541 275 678 539 83 159 120 311 120 495 0 489
-322 906 -798 1035 -112 30 -374 35 -492 9z m210 -365 l0 -373 83 1 c45 0 99
-3 120 -7 36 -8 38 -7 49 23 6 19 14 28 20 22 5 -5 5 -19 -1 -34 -9 -23 -6
-26 42 -46 120 -50 227 -170 267 -299 22 -72 26 -123 9 -123 -6 0 -23 8 -37
18 -45 31 -111 53 -180 59 -46 4 -84 16 -131 40 l-65 35 -78 -233 c-43 -128
-82 -237 -88 -243 -5 -5 -10 -43 -10 -83 l0 -73 -180 0 c-99 0 -180 3 -180 8
0 9 82 64 135 90 43 21 126 46 188 57 61 10 42 23 -20 13 -109 -16 -199 -54
-295 -127 -79 -59 -73 -61 152 -61 l200 0 0 -195 0 -195 -46 0 c-70 0 -240 38
-324 72 -143 58 -228 116 -346 233 -167 165 -251 318 -296 535 -29 138 -22
358 16 485 131 445 512 748 974 774 l22 1 0 -374z m818 -126 c35 -22 72 -74
72 -104 0 -10 11 -27 24 -37 67 -53 21 -150 -65 -137 -32 4 -26 22 8 26 15 2
34 8 41 14 21 18 14 56 -13 74 -14 9 -25 26 -25 38 0 34 -37 85 -74 102 -52
26 -98 12 -142 -41 -21 -24 -47 -46 -59 -49 -12 -3 -28 -18 -34 -34 -17 -41 0
-79 44 -98 38 -15 39 -34 2 -34 -44 1 -87 54 -87 109 0 32 42 91 65 91 8 0 24
14 36 31 48 68 140 90 207 49z m-127 -253 c-11 -11 -41 -3 -41 11 0 4 10 19
23 32 l22 25 3 -29 c2 -16 -1 -33 -7 -39z m104 -27 c-8 -24 -45 -27 -45 -3 0
9 8 25 17 35 15 17 18 17 26 3 4 -8 5 -24 2 -35z m-77 -41 c-8 -5 -19 -3 -27
6 -13 13 -12 18 10 41 l24 26 3 -33 c2 -19 -2 -35 -10 -40z m-48 22 c0 -37
-22 -57 -40 -36 -10 12 -9 20 4 40 22 33 36 32 36 -4z m90 -46 c0 -28 -4 -35
-20 -35 -25 0 -26 26 -3 52 22 24 23 23 23 -17z m-60 -19 c0 -33 -23 -51 -40
-31 -11 13 -10 19 5 35 24 26 35 25 35 -4z"/>
<path d="M1050 2160 c0 -22 5 -40 10 -40 6 0 10 18 10 40 0 22 -4 40 -10 40
-5 0 -10 -18 -10 -40z"/>
<path d="M900 2127 c0 -16 32 -47 48 -47 19 0 14 14 -11 38 -27 25 -37 28 -37
9z"/>
<path d="M1177 2122 c-18 -20 -22 -42 -9 -42 10 0 52 43 52 53 0 14 -27 7 -43
-11z"/>
<path d="M1004 2074 c-58 -28 -81 -103 -50 -163 21 -39 58 -61 106 -61 48 0
85 22 106 61 31 61 7 136 -52 164 -40 19 -71 19 -110 -1z m111 -30 c50 -32 50
-112 0 -154 -43 -36 -124 -9 -146 49 -12 31 6 86 34 106 28 19 81 19 112 -1z"/>
<path d="M833 1968 c2 -7 19 -13 37 -13 18 0 35 6 38 13 2 8 -9 12 -38 12 -29
0 -40 -4 -37 -12z"/>
<path d="M1212 1968 c5 -15 67 -18 71 -3 1 6 -15 11 -37 13 -28 3 -37 0 -34
-10z"/>
<path d="M1160 1847 c0 -16 32 -47 48 -47 19 0 14 14 -11 38 -27 25 -37 28
-37 9z"/>
<path d="M916 1828 c-22 -31 -8 -43 20 -17 13 12 24 26 24 31 0 16 -29 7 -44
-14z"/>
<path d="M1050 1780 c0 -22 5 -40 10 -40 6 0 10 18 10 40 0 22 -4 40 -10 40
-5 0 -10 -18 -10 -40z"/>
<path d="M1369 1733 c-72 -36 -169 -116 -169 -139 0 -10 13 -14 44 -14 50 0
157 -31 202 -59 l30 -18 27 46 c32 59 100 136 150 172 21 15 33 30 28 33 -5 4
-63 8 -127 10 -116 3 -118 3 -185 -31z m111 -93 c0 -60 -2 -110 -4 -110 -2 0
-29 12 -59 26 -31 14 -86 31 -123 37 l-67 13 48 42 c50 44 156 102 187 102 16
0 18 -10 18 -110z"/>
<path d="M1685 1718 c-54 -39 -96 -82 -136 -141 -44 -63 -45 -62 40 -72 30 -3
83 -19 119 -36 36 -16 67 -29 70 -29 2 0 2 42 0 93 -5 86 -38 208 -56 207 -4
0 -20 -10 -37 -22z"/>
<path d="M1765 1713 c21 -56 35 -137 35 -209 l0 -81 64 -5 c43 -4 87 -16 130
-36 l65 -31 -6 32 c-26 138 -122 265 -250 331 -41 20 -47 20 -38 -1z"/>
<path d="M1481 1259 l1 -234 75 223 c41 123 73 226 69 229 -3 3 -37 8 -76 11
l-70 5 1 -234z"/>
</g>
</svg>
