<svg width="53" height="51" viewBox="0 0 53 51" fill="none" xmlns="http://www.w3.org/2000/svg">
<rect x="28" width="25" height="24" rx="6" fill="white"/>
<rect width="25" height="24" rx="6" fill="white"/>
<path d="M17.547 11.8356C21.6568 13.9905 17.6399 19.0959 14.1921 19.6814C10.9917 20.2248 7.71552 19.1217 6.52439 15.9151C5.33353 12.7087 3.97844 7.49089 8.03178 6.68135C12.9628 5.69651 14.3134 10.1405 17.5467 11.8356H17.547Z" fill="#40DCDC"/>
<path d="M21.5716 7.26403C21.4503 8.99771 21.3787 9.7301 19.9326 10.0384C18.5903 10.3249 17.2688 10.0537 16.8778 9.00111C16.4868 7.94848 16.0921 6.21736 17.7962 5.81315C19.8693 5.32159 21.6472 6.1819 21.5716 7.26375V7.26403Z" fill="#40DCDC"/>
<path d="M12.5719 11.8477C12.4934 11.8477 12.4301 11.7842 12.4301 11.7062V6.39252C12.4301 6.31423 12.4937 6.25098 12.5719 6.25098C12.65 6.25098 12.7137 6.31451 12.7137 6.39252V11.7062C12.7137 11.7844 12.65 11.8477 12.5719 11.8477Z" fill="black"/>
<path d="M12.5718 8.37576C12.5423 8.37576 12.5127 8.36668 12.4872 8.34768L10.8192 7.10784C10.7564 7.06103 10.7434 6.97225 10.7903 6.90956C10.8371 6.84688 10.9261 6.83383 10.9889 6.88063L12.6568 8.12047C12.7196 8.16727 12.7327 8.25606 12.6858 8.31874C12.6579 8.35619 12.615 8.37576 12.5718 8.37576Z" fill="black"/>
<path d="M12.5719 9.44948C12.5423 9.44948 12.5128 9.4404 12.4872 9.42139L11.3946 8.6093C11.3319 8.5625 11.3188 8.47372 11.3657 8.41103C11.4125 8.34834 11.5015 8.33529 11.5643 8.3821L12.6568 9.19419C12.7196 9.24099 12.7327 9.32978 12.6858 9.39246C12.658 9.4299 12.6151 9.44948 12.5719 9.44948Z" fill="black"/>
<path d="M12.5719 10.5231C12.5423 10.5231 12.5128 10.514 12.4872 10.495L11.9408 10.0888C11.878 10.042 11.8649 9.95321 11.9118 9.89052C11.9587 9.82783 12.0476 9.81479 12.1104 9.86159L12.6568 10.2678C12.7196 10.3146 12.7327 10.4034 12.6858 10.466C12.658 10.5035 12.6151 10.5231 12.5719 10.5231Z" fill="black"/>
<path d="M12.5721 8.37576C12.5289 8.37576 12.486 8.3559 12.4582 8.31874C12.4113 8.25606 12.4244 8.16727 12.4872 8.12047L14.1551 6.88063C14.2179 6.83383 14.3068 6.84688 14.3537 6.90956C14.4006 6.97225 14.3875 7.06103 14.3247 7.10784L12.6568 8.34768C12.6312 8.36668 12.6017 8.37576 12.5721 8.37576Z" fill="black"/>
<path d="M12.5721 9.44948C12.5289 9.44948 12.486 9.42962 12.4582 9.39246C12.4113 9.32978 12.4244 9.24099 12.4872 9.19419L13.5797 8.3821C13.6425 8.33529 13.7315 8.34834 13.7783 8.41103C13.8252 8.47372 13.8121 8.5625 13.7494 8.6093L12.6568 9.42139C12.6312 9.4404 12.6017 9.44948 12.5721 9.44948Z" fill="black"/>
<path d="M12.5721 10.5231C12.5289 10.5231 12.486 10.5032 12.4582 10.466C12.4113 10.4034 12.4244 10.3146 12.4872 10.2678L13.0336 9.86159C13.0964 9.81479 13.1853 9.82783 13.2322 9.89052C13.2791 9.95321 13.266 10.042 13.2032 10.0888L12.6568 10.495C12.6312 10.514 12.6017 10.5231 12.5721 10.5231Z" fill="black"/>
<path d="M12.5719 6.68974C12.515 6.68974 12.4633 6.6557 12.4412 6.60351L11.7177 4.90018C11.7027 4.86472 11.7027 4.82501 11.7177 4.78956L12.4412 3.08623C12.4633 3.03375 12.5147 3 12.5719 3C12.629 3 12.6804 3.03404 12.7026 3.08623L13.426 4.78956C13.4411 4.82501 13.4411 4.86472 13.426 4.90018L12.7026 6.60351C12.6804 6.65598 12.629 6.68974 12.5719 6.68974ZM12.0024 4.84458L12.5719 6.18512L13.1413 4.84458L12.5719 3.50405L12.0024 4.84458Z" fill="black"/>
<path d="M12.5719 11.8478C12.5477 11.8478 12.5233 11.8415 12.5011 11.8288L7.89141 9.17208C7.8235 9.13294 7.8002 9.04642 7.83941 8.97863C7.87863 8.91084 7.96529 8.88758 8.0332 8.92672L12.6429 11.5834C12.7108 11.6225 12.7341 11.7091 12.6949 11.7769C12.6687 11.8222 12.621 11.8478 12.5719 11.8478Z" fill="black"/>
<path d="M7.65074 10.9339C7.5959 10.9339 7.54362 10.9019 7.52032 10.8483C7.48935 10.7765 7.52259 10.6931 7.59448 10.6622L9.50394 9.84018C9.57583 9.80927 9.65937 9.84245 9.69034 9.91422C9.72131 9.98598 9.68806 10.0694 9.61618 10.1003L7.70672 10.9223C7.68853 10.9303 7.66921 10.9339 7.65046 10.9339H7.65074Z" fill="black"/>
<path d="M9.24052 11.1874C9.18568 11.1874 9.1334 11.1553 9.1101 11.1017C9.07913 11.03 9.11237 10.9466 9.18426 10.9157L10.4351 10.3773C10.507 10.3464 10.5905 10.3796 10.6215 10.4513C10.6524 10.5231 10.6192 10.6065 10.5473 10.6374L9.2965 11.1758C9.27832 11.1837 9.25899 11.1874 9.24024 11.1874H9.24052Z" fill="black"/>
<path d="M10.7974 11.4548C10.7425 11.4548 10.6903 11.4228 10.667 11.3692C10.636 11.2974 10.6692 11.214 10.7411 11.1831L11.3665 10.9139C11.4384 10.883 11.5219 10.9162 11.5529 10.9879C11.5839 11.0597 11.5506 11.1431 11.4788 11.174L10.8534 11.4432C10.8352 11.4511 10.8158 11.4548 10.7971 11.4548H10.7974Z" fill="black"/>
<path d="M9.56019 10.1122C9.48915 10.1122 9.42778 10.0591 9.41954 9.98706L9.17773 7.9252C9.16864 7.84748 9.22433 7.77714 9.30219 7.76806C9.37976 7.75898 9.45051 7.81458 9.4596 7.8923L9.70141 9.95416C9.7105 10.0319 9.65481 10.1022 9.57695 10.1113C9.57127 10.1119 9.56587 10.1122 9.56019 10.1122Z" fill="black"/>
<path d="M10.4913 10.6491C10.4203 10.6491 10.3589 10.596 10.3507 10.524L10.1924 9.17325C10.1833 9.09553 10.239 9.02518 10.3169 9.01611C10.3947 9.00703 10.4652 9.06263 10.4743 9.14035L10.6326 10.4911C10.6416 10.5688 10.586 10.6392 10.5081 10.6482C10.5024 10.6488 10.497 10.6491 10.4913 10.6491Z" fill="black"/>
<path d="M11.4225 11.1856C11.3515 11.1856 11.2901 11.1326 11.2818 11.0605L11.2026 10.3852C11.1935 10.3074 11.2492 10.2371 11.327 10.228C11.4049 10.2189 11.4754 10.2745 11.4844 10.3523L11.5637 11.0276C11.5728 11.1054 11.5171 11.1757 11.4393 11.1848C11.4336 11.1853 11.4282 11.1856 11.4225 11.1856Z" fill="black"/>
<path d="M8.09713 9.26889C8.09145 9.26889 8.08548 9.26861 8.0798 9.26776L6.24024 9.04168C6.20217 9.03686 6.1675 9.01701 6.1442 8.98637L5.02865 7.50912C4.99426 7.46373 4.99057 7.40218 5.01898 7.35311C5.0474 7.30375 5.10281 7.27624 5.15935 7.28333L6.99891 7.5094C7.03698 7.51422 7.07165 7.53408 7.09495 7.56471L8.21079 9.04197C8.24517 9.08735 8.24886 9.1489 8.22045 9.19798C8.19488 9.24223 8.14771 9.26889 8.0977 9.26889H8.09713ZM6.33486 8.76768L7.7823 8.94553L6.904 7.78312L5.45628 7.60527L6.33458 8.76768H6.33486Z" fill="black"/>
<path d="M7.96245 14.5045C7.91329 14.5045 7.86584 14.479 7.83941 14.4336C7.8002 14.3658 7.8235 14.2793 7.89141 14.2401L12.5011 11.5835C12.569 11.5443 12.6557 11.5676 12.6949 11.6354C12.7341 11.7032 12.7108 11.7897 12.6429 11.8288L8.0332 14.4855C8.01075 14.4983 7.9866 14.5045 7.96245 14.5045Z" fill="black"/>
<path d="M9.31868 15.6454C9.31328 15.6454 9.30759 15.6451 9.30191 15.6445C9.22406 15.6354 9.16836 15.5651 9.17746 15.4874L9.41926 13.4255C9.42836 13.3478 9.49911 13.2922 9.57668 13.3013C9.65454 13.3103 9.71023 13.3807 9.70114 13.4584L9.45933 15.5203C9.4508 15.5923 9.38943 15.6454 9.31868 15.6454Z" fill="black"/>
<path d="M10.3334 14.3976C10.328 14.3976 10.3223 14.3973 10.3166 14.3968C10.2387 14.3877 10.183 14.3173 10.1921 14.2396L10.3504 12.8889C10.3595 12.8112 10.43 12.7556 10.5078 12.7646C10.5857 12.7737 10.6414 12.8441 10.6323 12.9218L10.474 14.2725C10.4655 14.3446 10.4041 14.3976 10.3334 14.3976Z" fill="black"/>
<path d="M11.3438 13.1856C11.3384 13.1856 11.3327 13.1853 11.327 13.1848C11.2492 13.1757 11.1935 13.1054 11.2026 13.0276L11.2818 12.3523C11.2909 12.2745 11.3617 12.2189 11.4393 12.228C11.5171 12.2371 11.5728 12.3074 11.5637 12.3852L11.4844 13.0605C11.4759 13.1326 11.4145 13.1856 11.3438 13.1856Z" fill="black"/>
<path d="M9.5602 13.5834C9.54145 13.5834 9.52241 13.5797 9.50394 13.5717L7.59448 12.7497C7.52259 12.7188 7.48935 12.6354 7.52032 12.5636C7.55129 12.4919 7.63483 12.4587 7.70672 12.4896L9.61618 13.3116C9.68806 13.3425 9.72131 13.4259 9.69034 13.4977C9.66732 13.5513 9.61504 13.5834 9.55991 13.5834H9.5602Z" fill="black"/>
<path d="M10.4913 13.0468C10.4726 13.0468 10.4535 13.0431 10.4351 13.0351L9.18426 12.4968C9.11237 12.4659 9.07913 12.3825 9.1101 12.3107C9.14107 12.2389 9.22461 12.2058 9.2965 12.2367L10.5473 12.775C10.6192 12.806 10.6524 12.8893 10.6215 12.9611C10.5985 13.0147 10.5462 13.0468 10.491 13.0468H10.4913Z" fill="black"/>
<path d="M11.4228 12.51C11.404 12.51 11.385 12.5063 11.3668 12.4984L10.7414 12.2292C10.6695 12.1983 10.6363 12.1149 10.6672 12.0431C10.6982 11.9714 10.7817 11.9382 10.8536 11.9691L11.479 12.2383C11.5509 12.2692 11.5842 12.3526 11.5532 12.4244C11.5302 12.478 11.4779 12.51 11.4228 12.51Z" fill="black"/>
<path d="M5.14173 16.1302C5.09144 16.1302 5.04456 16.1036 5.01898 16.0593C4.99057 16.0099 4.99426 15.9487 5.02865 15.9033L6.14448 14.426C6.1675 14.3954 6.20217 14.3756 6.24053 14.3707L8.08008 14.1447C8.13663 14.1376 8.19175 14.1651 8.22045 14.2144C8.24886 14.2638 8.24517 14.3251 8.21079 14.3704L7.09495 15.8477C7.07193 15.8783 7.03727 15.8982 6.99891 15.903L5.15935 16.1291C5.15367 16.1299 5.1477 16.1302 5.14202 16.1302H5.14173ZM6.33486 14.6447L5.45657 15.8071L6.90429 15.6293L7.78258 14.4669L6.33515 14.6447H6.33486Z" fill="black"/>
<path d="M12.5719 17.1612C12.4934 17.1612 12.4301 17.0976 12.4301 17.0196V11.706C12.4301 11.6277 12.4937 11.5645 12.5719 11.5645C12.65 11.5645 12.7137 11.628 12.7137 11.706V17.0196C12.7137 17.0979 12.65 17.1612 12.5719 17.1612Z" fill="black"/>
<path d="M14.2395 16.5589C14.21 16.5589 14.1804 16.5498 14.1548 16.5308L12.4869 15.2909C12.4241 15.2441 12.411 15.1554 12.4579 15.0927C12.5048 15.03 12.5937 15.0169 12.6565 15.0637L14.3245 16.3036C14.3873 16.3504 14.4003 16.4392 14.3535 16.5018C14.3256 16.5393 14.2827 16.5589 14.2395 16.5589Z" fill="black"/>
<path d="M13.6644 15.0579C13.6348 15.0579 13.6053 15.0488 13.5797 15.0298L12.4872 14.2177C12.4244 14.1709 12.4113 14.0821 12.4582 14.0194C12.5051 13.9567 12.594 13.9437 12.6568 13.9905L13.7494 14.8026C13.8121 14.8494 13.8252 14.9382 13.7783 15.0009C13.7505 15.0383 13.7076 15.0579 13.6644 15.0579Z" fill="black"/>
<path d="M13.118 13.5782C13.0884 13.5782 13.0589 13.5692 13.0333 13.5502L12.4869 13.144C12.4241 13.0972 12.411 13.0084 12.4579 12.9457C12.5048 12.883 12.5937 12.87 12.6565 12.9168L13.2029 13.323C13.2657 13.3698 13.2788 13.4585 13.2319 13.5212C13.2041 13.5587 13.1612 13.5782 13.118 13.5782Z" fill="black"/>
<path d="M10.9042 16.5589C10.861 16.5589 10.8181 16.539 10.7903 16.5018C10.7434 16.4392 10.7564 16.3504 10.8192 16.3036L12.4872 15.0637C12.55 15.0169 12.6389 15.03 12.6858 15.0927C12.7327 15.1554 12.7196 15.2441 12.6568 15.2909L10.9889 16.5308C10.9633 16.5498 10.9338 16.5589 10.9042 16.5589Z" fill="black"/>
<path d="M11.4793 15.0579C11.4361 15.0579 11.3932 15.038 11.3654 15.0009C11.3185 14.9382 11.3316 14.8494 11.3944 14.8026L12.4869 13.9905C12.5497 13.9437 12.6386 13.9567 12.6855 14.0194C12.7324 14.0821 12.7193 14.1709 12.6565 14.2177L11.564 15.0298C11.5384 15.0488 11.5089 15.0579 11.4793 15.0579Z" fill="black"/>
<path d="M12.0258 13.5782C11.9826 13.5782 11.9397 13.5584 11.9118 13.5212C11.8649 13.4585 11.878 13.3698 11.9408 13.323L12.4872 12.9168C12.55 12.87 12.6389 12.883 12.6858 12.9457C12.7327 13.0084 12.7196 13.0972 12.6568 13.144L12.1104 13.5502C12.0849 13.5692 12.0553 13.5782 12.0258 13.5782Z" fill="black"/>
<path d="M12.5719 20.4124C12.515 20.4124 12.4633 20.3784 12.4412 20.3262L11.7177 18.6228C11.7027 18.5874 11.7027 18.5477 11.7177 18.5122L12.4412 16.8089C12.4633 16.7564 12.5147 16.7227 12.5719 16.7227C12.629 16.7227 12.6804 16.7567 12.7026 16.8089L13.426 18.5122C13.4411 18.5477 13.4411 18.5874 13.426 18.6228L12.7026 20.3262C12.6804 20.3786 12.629 20.4124 12.5719 20.4124ZM12.0024 18.5675L12.5719 19.9081L13.1413 18.5675L12.5719 17.227L12.0024 18.5675Z" fill="black"/>
<path d="M17.1816 14.5045C17.1574 14.5045 17.133 14.4983 17.1108 14.4855L12.5011 11.8288C12.4332 11.7897 12.4099 11.7032 12.4491 11.6354C12.4883 11.5676 12.575 11.5443 12.6429 11.5835L17.2526 14.2401C17.3205 14.2793 17.3438 14.3658 17.3046 14.4336C17.2785 14.479 17.2307 14.5045 17.1816 14.5045Z" fill="black"/>
<path d="M15.5835 13.5834C15.5287 13.5834 15.4764 13.5513 15.4531 13.4977C15.4221 13.4259 15.4554 13.3425 15.5272 13.3116L17.4367 12.4896C17.5086 12.4587 17.5921 12.4919 17.6231 12.5636C17.6541 12.6354 17.6208 12.7188 17.5489 12.7497L15.6395 13.5717C15.6213 13.5797 15.602 13.5834 15.5832 13.5834H15.5835Z" fill="black"/>
<path d="M14.6524 13.0468C14.5975 13.0468 14.5453 13.0147 14.522 12.9611C14.491 12.8893 14.5242 12.806 14.5961 12.775L15.8469 12.2367C15.9188 12.2058 16.0024 12.2389 16.0333 12.3107C16.0643 12.3825 16.0311 12.4659 15.9592 12.4968L14.7084 13.0351C14.6902 13.0431 14.6709 13.0468 14.6521 13.0468H14.6524Z" fill="black"/>
<path d="M13.7212 12.51C13.6664 12.51 13.6141 12.478 13.5908 12.4244C13.5598 12.3526 13.5931 12.2692 13.665 12.2383L14.2904 11.9691C14.3623 11.9382 14.4458 11.9714 14.4768 12.0431C14.5078 12.1149 14.4745 12.1983 14.4026 12.2292L13.7772 12.4984C13.759 12.5063 13.74 12.51 13.7212 12.51Z" fill="black"/>
<path d="M15.8251 15.6454C15.754 15.6454 15.6926 15.5923 15.6844 15.5203L15.4426 13.4584C15.4335 13.3807 15.4892 13.3103 15.567 13.3013C15.6449 13.2922 15.7154 13.3478 15.7245 13.4255L15.9663 15.4874C15.9754 15.5651 15.9197 15.6354 15.8418 15.6445C15.8361 15.6451 15.8307 15.6454 15.8251 15.6454Z" fill="black"/>
<path d="M14.8104 14.3976C14.7393 14.3976 14.6779 14.3446 14.6697 14.2725L14.5114 12.9218C14.5023 12.8441 14.558 12.7737 14.6359 12.7646C14.7138 12.7556 14.7842 12.8112 14.7933 12.8889L14.9516 14.2396C14.9607 14.3173 14.905 14.3877 14.8271 14.3968C14.8214 14.3973 14.816 14.3976 14.8104 14.3976Z" fill="black"/>
<path d="M13.7999 13.1856C13.7289 13.1856 13.6675 13.1326 13.6593 13.0605L13.58 12.3852C13.5709 12.3074 13.6266 12.2371 13.7045 12.228C13.7823 12.2189 13.8528 12.2745 13.8619 12.3523L13.9412 13.0276C13.9503 13.1054 13.8946 13.1757 13.8167 13.1848C13.811 13.1853 13.8056 13.1856 13.7999 13.1856Z" fill="black"/>
<path d="M20.002 16.1302C19.9963 16.1302 19.9903 16.1299 19.9847 16.1291L18.1451 15.903C18.107 15.8982 18.0724 15.8783 18.0491 15.8477L16.9332 14.3704C16.8988 14.3251 16.8951 14.2635 16.9236 14.2144C16.952 14.1651 17.0071 14.1376 17.0639 14.1447L18.9035 14.3707C18.9416 14.3756 18.9762 14.3954 18.9995 14.426L20.1154 15.9033C20.1497 15.9487 20.1534 16.0102 20.125 16.0593C20.0994 16.1036 20.0523 16.1302 20.0023 16.1302H20.002ZM18.2397 15.6293L19.6872 15.8071L18.8089 14.6447L17.3614 14.4669L18.2397 15.6293Z" fill="black"/>
<path d="M12.5722 11.8478C12.523 11.8478 12.4756 11.8222 12.4491 11.7769C12.4099 11.7091 12.4332 11.6225 12.5011 11.5834L17.1108 8.92672C17.1787 8.88758 17.2654 8.91084 17.3046 8.97863C17.3438 9.04642 17.3205 9.13294 17.2526 9.17208L12.6429 11.8288C12.6205 11.8415 12.5963 11.8478 12.5722 11.8478Z" fill="black"/>
<path d="M15.5838 10.1122C15.5784 10.1122 15.5727 10.1119 15.567 10.1113C15.4892 10.1022 15.4335 10.0319 15.4426 9.95416L15.6844 7.8923C15.6935 7.81458 15.7642 7.75898 15.8418 7.76806C15.9197 7.77714 15.9754 7.84748 15.9663 7.9252L15.7245 9.98706C15.7159 10.0591 15.6546 10.1122 15.5838 10.1122Z" fill="black"/>
<path d="M14.6524 10.6491C14.647 10.6491 14.6413 10.6488 14.6356 10.6482C14.5578 10.6392 14.5021 10.5688 14.5112 10.4911L14.6694 9.14035C14.6785 9.06263 14.749 9.00703 14.8269 9.01611C14.9047 9.02518 14.9604 9.09553 14.9513 9.17325L14.793 10.524C14.7845 10.596 14.7231 10.6491 14.6524 10.6491Z" fill="black"/>
<path d="M13.7212 11.1856C13.7158 11.1856 13.7102 11.1853 13.7045 11.1848C13.6266 11.1757 13.5709 11.1054 13.58 11.0276L13.6593 10.3523C13.6684 10.2745 13.7391 10.2189 13.8167 10.228C13.8946 10.2371 13.9503 10.3074 13.9412 10.3852L13.8619 11.0605C13.8534 11.1326 13.792 11.1856 13.7212 11.1856Z" fill="black"/>
<path d="M17.493 10.9339C17.4742 10.9339 17.4552 10.9303 17.4367 10.9223L15.5272 10.1003C15.4554 10.0694 15.4221 9.98598 15.4531 9.91422C15.4841 9.84245 15.5676 9.80927 15.6395 9.84018L17.5489 10.6622C17.6208 10.6931 17.6541 10.7765 17.6231 10.8483C17.6001 10.9019 17.5478 10.9339 17.4927 10.9339H17.493Z" fill="black"/>
<path d="M15.9032 11.1874C15.8844 11.1874 15.8654 11.1837 15.8469 11.1758L14.5961 10.6374C14.5242 10.6065 14.491 10.5231 14.522 10.4513C14.5529 10.3796 14.6365 10.3464 14.7084 10.3773L15.9592 10.9157C16.0311 10.9466 16.0643 11.03 16.0333 11.1017C16.0103 11.1553 15.958 11.1874 15.9029 11.1874H15.9032Z" fill="black"/>
<path d="M14.3463 11.4548C14.3276 11.4548 14.3085 11.4511 14.2901 11.4432L13.6647 11.174C13.5928 11.1431 13.5595 11.0597 13.5905 10.9879C13.6215 10.9162 13.705 10.883 13.7769 10.9139L14.4023 11.1831C14.4742 11.214 14.5074 11.2974 14.4765 11.3692C14.4535 11.4228 14.4012 11.4548 14.3461 11.4548H14.3463Z" fill="black"/>
<path d="M17.0466 9.26889C16.9963 9.26889 16.9494 9.24223 16.9238 9.19798C16.8954 9.14862 16.8991 9.08735 16.9335 9.04197L18.0493 7.56471C18.0723 7.53408 18.107 7.51422 18.1454 7.5094L19.9849 7.28333C20.0415 7.27624 20.0966 7.30375 20.1253 7.35311C20.1537 7.40246 20.15 7.46373 20.1156 7.50912L18.9998 8.98637C18.9768 9.01701 18.9421 9.03686 18.9038 9.04168L17.0642 9.26776C17.0585 9.26861 17.0525 9.26889 17.0469 9.26889H17.0466ZM18.2397 7.78341L17.3614 8.94581L18.8089 8.76796L19.6871 7.60556L18.2397 7.78341Z" fill="black"/>
<path d="M44.1898 11.0821C45.4722 16.3759 44.9195 18.5864 41.9249 18.878C39.1451 19.1483 36.2673 18.3291 34.8585 14.5359C33.4497 10.7426 33.752 8.56982 35.9343 6.45918C39.1207 3.37759 43.1751 6.89401 44.1898 11.0821Z" fill="#A6D848"/>
<path d="M46.6312 5.86594C47.0057 7.42942 46.8352 8.08466 45.9342 8.17684C45.0979 8.26251 44.2344 8.02594 43.8187 6.90665C43.403 5.78736 43.4985 5.14404 44.1588 4.51519C45.1229 3.59701 46.3345 4.62893 46.6312 5.86594Z" fill="#A6D848"/>
<path d="M40.2342 11.5102C40.2021 11.5102 40.1697 11.4994 40.1433 11.477L36.5111 8.43879C36.4511 8.38858 36.4432 8.29923 36.4934 8.23909C36.5437 8.17924 36.6332 8.1713 36.6935 8.22151L40.3257 11.2597C40.3857 11.3099 40.3936 11.3993 40.3433 11.4594C40.3152 11.4929 40.2751 11.5102 40.2345 11.5102H40.2342Z" fill="black"/>
<path d="M40.037 15.3979C40.0163 15.3979 39.9955 15.3934 39.9756 15.384L35.4876 13.2274C35.4168 13.1934 35.3873 13.1089 35.4214 13.0382C35.4555 12.9676 35.5401 12.9381 35.6109 12.9721L40.099 15.1287C40.1697 15.1628 40.1993 15.2473 40.1652 15.3179C40.1407 15.3687 40.0902 15.3982 40.0373 15.3982L40.037 15.3979Z" fill="black"/>
<path d="M40.2345 11.5102C40.1939 11.5102 40.1538 11.4929 40.1257 11.4594C40.0754 11.3995 40.0833 11.3102 40.1433 11.2597L43.7755 8.22151C43.8355 8.1713 43.925 8.17924 43.9756 8.23909C44.0259 8.29895 44.0179 8.3883 43.958 8.43879L40.3257 11.477C40.299 11.4991 40.2669 11.5102 40.2345 11.5102Z" fill="black"/>
<path d="M40.4317 15.3977C40.3789 15.3977 40.3283 15.3682 40.3039 15.3174C40.2698 15.2471 40.2996 15.1623 40.3701 15.1282L44.8581 12.9716C44.9286 12.9376 45.0136 12.9674 45.0477 13.0377C45.0818 13.108 45.0519 13.1929 44.9815 13.2269L40.4934 15.3835C40.4735 15.3931 40.4525 15.3974 40.432 15.3974L40.4317 15.3977Z" fill="black"/>
<path d="M40.2342 17.5597C39.0789 17.5597 37.8249 17.0219 36.8802 16.1213C36.0834 15.3617 35.1332 13.9939 35.1332 11.7928C35.1332 10.9101 35.3992 9.95078 35.924 8.94184C36.3403 8.14137 36.9199 7.30687 37.6468 6.46159C38.8817 5.02603 40.1342 4.04034 40.1467 4.0307C40.1981 3.99042 40.2703 3.99042 40.3217 4.0307C40.3342 4.04034 41.5868 5.02631 42.8214 6.46187C43.5482 7.30715 44.1279 8.14166 44.5441 8.94212C45.0689 9.95107 45.3349 10.9104 45.3349 11.7931C45.3349 13.9942 44.385 15.362 43.588 16.1216C42.6432 17.0222 41.3896 17.56 40.2339 17.56L40.2342 17.5597ZM40.2342 4.32399C39.931 4.5719 38.8891 5.45179 37.859 6.64993C36.7449 7.94594 35.4171 9.89037 35.4171 11.7928C35.4171 15.5336 38.2915 17.2764 40.2342 17.2764C41.3185 17.2764 42.4991 16.7681 43.3922 15.9165C44.1492 15.1949 45.0513 13.8938 45.0513 11.7928C45.0513 9.88895 43.7215 7.94338 42.6063 6.64625C41.5768 5.44924 40.5371 4.57162 40.2345 4.32428L40.2342 4.32399Z" fill="black"/>
<path d="M40.2342 21.4125C40.1558 21.4125 40.0924 21.349 40.0924 21.271V4.14154C40.0924 4.06325 40.1561 4 40.2342 4C40.3124 4 40.376 4.06354 40.376 4.14154V21.2707C40.376 21.349 40.3124 21.4122 40.2342 21.4122V21.4125Z" fill="black"/>
<rect x="28" y="27" width="25" height="24" rx="6" fill="white"/>
<rect y="27" width="25" height="24" rx="6" fill="white"/>
<path d="M20.7278 37.3768C21.4768 41.2392 20.7357 42.953 17.8088 43.45C15.092 43.9113 12.3817 43.5622 11.3705 40.84C10.3593 38.1178 10.8546 36.4558 13.1642 34.6659C16.5364 32.0528 20.1351 34.3211 20.7275 37.3768H20.7278Z" fill="#FFD848"/>
<path d="M10.0959 37.7588C10.4643 39.8114 10.0171 40.7382 8.34424 41.0474C6.79128 41.3344 5.25425 41.1883 4.71972 39.7488C4.18518 38.3093 4.49177 37.4138 5.83269 36.4231C7.79064 34.9767 9.80456 36.1351 10.0959 37.7591V37.7588Z" fill="#FFD848"/>
<path d="M12.0334 43.2393C12.2766 44.5943 11.9813 45.2061 10.877 45.4101C9.85185 45.5996 8.83729 45.503 8.48439 44.5529C8.13149 43.6027 8.33387 43.0115 9.21914 42.3575C10.5116 41.4028 11.8409 42.1673 12.0334 43.2393Z" fill="#FFD848"/>
<path d="M14.613 47.0975C14.5746 47.0975 14.5375 47.0789 14.5146 47.0467L13.9426 46.2395C13.6445 45.8188 13.1775 45.5776 12.6613 45.5776C12.1451 45.5776 11.6781 45.8188 11.3799 46.2395L10.808 47.0467C10.7788 47.0878 10.7272 47.1064 10.6785 47.0934C10.6298 47.0804 10.5943 47.0385 10.5897 46.9882L10.4988 46.0035C10.4513 45.4904 10.1678 45.0483 9.72062 44.7906C9.27365 44.533 8.74828 44.5089 8.27935 44.7244L7.37986 45.1381C7.33402 45.1593 7.27999 45.1497 7.24429 45.114C7.20859 45.0784 7.19894 45.0245 7.22017 44.9787L7.63458 44.0805C7.85047 43.6124 7.82635 43.0882 7.56825 42.6418C7.31015 42.1956 6.86727 41.9124 6.35324 41.865L5.36691 41.7742C5.31673 41.7696 5.27476 41.7342 5.26149 41.6856C5.24847 41.6369 5.26704 41.5854 5.30829 41.5563L6.11685 40.9853C6.53825 40.6877 6.77995 40.2215 6.77995 39.7062C6.77995 39.1909 6.53825 38.7247 6.11685 38.4271L5.30829 37.8562C5.26704 37.827 5.24847 37.7755 5.26149 37.7269C5.27452 37.6782 5.31649 37.6428 5.36691 37.6383L6.35324 37.5475C6.86727 37.5 7.31015 37.2171 7.56825 36.7707C7.82635 36.3245 7.85047 35.8 7.63458 35.3319L7.22017 34.434C7.19918 34.3882 7.20883 34.3343 7.24429 34.2986C7.27999 34.263 7.33402 34.2534 7.37986 34.2746L8.27935 34.6883C8.74828 34.9038 9.27341 34.8797 9.72062 34.622C10.1676 34.3644 10.4513 33.9223 10.4988 33.4091L10.5897 32.4245C10.5943 32.3744 10.6298 32.3325 10.6785 32.3195C10.7272 32.3065 10.7788 32.3251 10.808 32.3662L11.3799 33.1734C11.6781 33.5941 12.1451 33.8353 12.6613 33.8353C13.1775 33.8353 13.6445 33.5941 13.9426 33.1734L14.5146 32.3662C14.5437 32.3251 14.5954 32.3065 14.6441 32.3195C14.6928 32.3325 14.7283 32.3744 14.7329 32.4245L14.8238 33.4091C14.8713 33.9223 15.1547 34.3644 15.602 34.622C16.0489 34.8797 16.5743 34.9038 17.0432 34.6883L17.9427 34.2746C17.9886 34.2536 18.0426 34.2632 18.0783 34.2986C18.114 34.3343 18.1236 34.3882 18.1024 34.434L17.688 35.3319C17.4721 35.8 17.4962 36.3242 17.7543 36.7707C18.0124 37.2169 18.4553 37.5 18.9693 37.5475L19.9557 37.6383C20.0058 37.6428 20.0478 37.6782 20.0611 37.7269C20.0741 37.7755 20.0555 37.827 20.0143 37.8562L19.2057 38.4271C18.7843 38.7247 18.5426 39.1909 18.5426 39.7062C18.5426 40.2215 18.7843 40.6877 19.2057 40.9853L20.0143 41.5563C20.0555 41.5854 20.0741 41.6369 20.0611 41.6856C20.0481 41.7342 20.0061 41.7696 19.9557 41.7742L18.9693 41.865C18.4553 41.9124 18.0124 42.1953 17.7543 42.6418C17.4962 43.088 17.4721 43.6124 17.688 44.0805L18.1024 44.9787C18.1234 45.0245 18.1137 45.0784 18.0783 45.114C18.0426 45.1497 17.9886 45.1593 17.9427 45.1381L17.0432 44.7244C16.5743 44.5089 16.0492 44.533 15.602 44.7906C15.155 45.0483 14.8713 45.4904 14.8238 46.0035L14.7329 46.9882C14.7283 47.0382 14.6928 47.0801 14.6441 47.0934C14.6337 47.096 14.6233 47.0975 14.613 47.0975ZM8.93835 44.3379C9.24952 44.3379 9.55901 44.4198 9.84147 44.5826C10.3572 44.8797 10.6843 45.3897 10.739 45.9816L10.8001 46.6419L11.1836 46.1006C11.5273 45.6154 12.0662 45.337 12.6615 45.337C13.2569 45.337 13.7957 45.6154 14.1395 46.1006L14.523 46.6419L14.584 45.9816C14.6388 45.3897 14.9659 44.8797 15.4816 44.5826C15.9973 44.2855 16.6032 44.2575 17.1441 44.5063L17.7473 44.7837L17.4695 44.1812C17.2203 43.6413 17.2483 43.0364 17.5459 42.5216C17.8436 42.0068 18.3545 41.6803 18.9474 41.6256L19.6088 41.5647L19.0666 41.1818C18.5805 40.8387 18.3017 40.3007 18.3017 39.7065C18.3017 39.1122 18.5805 38.5742 19.0666 38.2311L19.6088 37.8482L18.9474 37.7873C18.3545 37.7326 17.8436 37.4061 17.5459 36.8913C17.2483 36.3765 17.2203 35.7716 17.4695 35.2317L17.7473 34.6295L17.1441 34.9069C16.6032 35.1556 15.9973 35.1277 15.4816 34.8306C14.9659 34.5334 14.6388 34.0234 14.584 33.4315L14.523 32.7713L14.1395 33.3126C13.7957 33.7978 13.2569 34.0761 12.6615 34.0761C12.0662 34.0761 11.5273 33.7978 11.1836 33.3126L10.8001 32.7713L10.739 33.4315C10.6843 34.0234 10.3572 34.5334 9.84147 34.8306C9.32575 35.1277 8.71981 35.1556 8.17901 34.9069L7.57572 34.6295L7.8536 35.2317C8.10278 35.7716 8.0748 36.3765 7.77714 36.8913C7.47948 37.4061 6.96858 37.7326 6.37567 37.7873L5.71426 37.8482L6.25651 38.2311C6.74256 38.5742 7.02141 39.1122 7.02141 39.7065C7.02141 40.3007 6.74256 40.8387 6.25651 41.1818L5.71426 41.5647L6.37567 41.6256C6.96858 41.6803 7.47948 42.0068 7.77714 42.5216C8.0748 43.0364 8.10278 43.6413 7.8536 44.1812L7.57572 44.7834L8.17901 44.506C8.4236 44.3936 8.68146 44.3377 8.93835 44.3377V44.3379Z" fill="black"/>
<path d="M12.6615 44.838C9.82724 44.838 7.52121 42.5359 7.52121 39.7066C7.52121 36.8772 9.82724 34.5752 12.6615 34.5752C15.4958 34.5752 17.8019 36.8772 17.8019 39.7066C17.8019 42.5359 15.4958 44.838 12.6615 44.838ZM12.6615 34.8158C9.95991 34.8158 7.76219 37.0099 7.76219 39.7066C7.76219 42.4033 9.96015 44.5974 12.6615 44.5974C15.3629 44.5974 17.5609 42.4033 17.5609 39.7066C17.5609 37.0099 15.3629 34.8158 12.6615 34.8158Z" fill="black"/>
<path d="M12.6615 43.8398C10.3784 43.8398 8.52081 41.9857 8.52081 39.7063C8.52081 37.4269 10.3782 35.5728 12.6615 35.5728C14.9449 35.5728 16.8023 37.4269 16.8023 39.7063C16.8023 41.9857 14.9449 43.8398 12.6615 43.8398ZM12.6615 35.8136C10.5111 35.8136 8.76179 37.5598 8.76179 39.7065C8.76179 41.8532 10.5111 43.5995 12.6615 43.5995C14.812 43.5995 16.5613 41.8532 16.5613 39.7065C16.5613 37.5598 14.812 35.8136 12.6615 35.8136Z" fill="black"/>
<path d="M39.555 32.7343C41.8046 33.5486 41.9427 35.4443 41.7963 37.6071C41.6605 39.6148 40.9067 42.0806 38.1633 43.2058C34.077 44.8822 32.0033 42.4298 31.5438 41.1675C30.2731 37.6769 36.106 31.4856 39.555 32.734V32.7343Z" fill="#FF9E3E"/>
<path d="M48.8227 36.4898C48.4985 38.1582 47.8856 38.7318 46.5228 38.4759C45.2578 38.2385 44.1323 37.6763 44.1496 36.4251C44.167 35.1739 44.6637 34.5831 45.975 34.2234C47.8893 33.6981 49.0793 35.1697 48.823 36.4898H48.8227Z" fill="#FF9E3E"/>
<path d="M46.6123 39.9637C48.0458 42.0792 48.1592 43.1489 46.8715 43.7894C45.6761 44.3839 44.2596 44.5147 43.0142 43.0822C41.7688 41.6501 41.5497 40.64 42.1794 39.336C43.0986 37.4322 45.4786 38.2899 46.6126 39.9637H46.6123Z" fill="#FF9E3E"/>
<path d="M40.5867 47.5403C40.5083 47.5403 40.4449 47.4768 40.4449 47.3988V42.1274C40.4449 42.0491 40.5086 41.9858 40.5867 41.9858C40.6649 41.9858 40.7285 42.0494 40.7285 42.1274V47.3988C40.7285 47.477 40.6649 47.5403 40.5867 47.5403Z" fill="black"/>
<path d="M43.1267 45.9643C43.0801 45.9643 43.0363 45.9413 43.0096 45.9028L40.5867 42.3775L38.1638 45.903C38.1354 45.9442 38.0879 45.9674 38.0377 45.9643C37.9876 45.9609 37.943 45.9317 37.9206 45.8872L37.2727 44.6164L34.5012 45.8253C34.4458 45.8494 34.381 45.8358 34.3401 45.7916C34.2992 45.7473 34.2906 45.6818 34.3193 45.6285L35.6872 43.0816L33.7698 42.2922C33.7206 42.272 33.6871 42.2261 33.6826 42.1733C33.678 42.1206 33.7033 42.0695 33.7482 42.0414L36.3697 40.3931L32.0865 38.761C32.032 38.7403 31.9959 38.6881 31.9953 38.6299C31.9947 38.5718 32.03 38.519 32.0842 38.4972L33.7664 37.8213L32.018 35.1132C31.9848 35.0616 31.9885 34.9947 32.0271 34.947C32.0658 34.8994 32.1308 34.8821 32.1882 34.9042L35.2672 36.0884L35.5298 34.3054C35.5375 34.2541 35.5724 34.2109 35.621 34.1931C35.6699 34.1752 35.7244 34.1851 35.7634 34.2194L38.3681 36.4938L37.3119 32.5672C37.298 32.5156 37.3145 32.4602 37.3546 32.4245C37.3946 32.3888 37.4515 32.3788 37.5015 32.3987L39.0114 32.9983L40.4614 30.2259C40.4859 30.1791 40.5344 30.1499 40.5873 30.1499C40.6401 30.1499 40.6887 30.1791 40.7132 30.2259L42.1632 32.9983L43.6731 32.3987C43.7231 32.3788 43.78 32.3888 43.82 32.4245C43.8601 32.4602 43.8766 32.5153 43.8626 32.5672L42.8065 36.4938L45.4112 34.2194C45.4504 34.1854 45.505 34.1752 45.5536 34.1931C45.6025 34.2109 45.6374 34.2541 45.6448 34.3054L45.9073 36.0884L48.9863 34.9042C49.0437 34.8821 49.1085 34.8994 49.1475 34.947C49.1861 34.9947 49.1901 35.0616 49.1566 35.1132L47.4082 37.8213L49.0903 38.4972C49.1446 38.519 49.1799 38.5715 49.1793 38.6299C49.1787 38.6881 49.1426 38.7403 49.0881 38.761L44.8049 40.3931L47.4264 42.0414C47.4713 42.0698 47.4966 42.1206 47.492 42.1733C47.4875 42.2261 47.4539 42.272 47.4048 42.2922L45.4874 43.0816L46.8553 45.6285C46.884 45.6818 46.8754 45.747 46.8345 45.7916C46.7936 45.8358 46.7288 45.8494 46.6734 45.8253L43.9018 44.6164L43.254 45.8872C43.2313 45.9317 43.1867 45.9609 43.1369 45.9643C43.1338 45.9643 43.1307 45.9646 43.1275 45.9646L43.1267 45.9643ZM40.5867 41.9855C40.6336 41.9855 40.6774 42.0085 40.7038 42.0471L43.1085 45.5462L43.7089 44.3688C43.743 44.3021 43.8231 44.2732 43.8922 44.3033L46.4109 45.4018L45.1623 43.0776C45.1433 43.0424 45.1402 43.0007 45.1538 42.963C45.1674 42.9253 45.1961 42.8949 45.2334 42.8799L47.0419 42.1353L44.4127 40.4819C44.3673 40.4533 44.342 40.4016 44.3471 40.348C44.3525 40.2947 44.3875 40.2487 44.4377 40.2297L48.6482 38.6254L47.1425 38.0204C47.1033 38.0045 47.0732 37.9722 47.0604 37.9319C47.0476 37.8916 47.0533 37.8476 47.0763 37.8122L48.682 35.3251L45.8434 36.4169C45.8031 36.4322 45.7582 36.4288 45.7209 36.407C45.6837 36.3851 45.6584 36.348 45.6522 36.3051L45.4016 34.6038L42.6414 37.0143C42.5942 37.0554 42.526 37.0608 42.4729 37.0279C42.4197 36.995 42.3947 36.9312 42.4109 36.871L43.5151 32.7669L42.149 33.3095C42.0813 33.3364 42.0043 33.3078 41.9708 33.2434L40.5876 30.5981L39.2041 33.2434C39.1705 33.3078 39.0935 33.3362 39.0259 33.3095L37.6597 32.7669L38.7639 36.871C38.7801 36.9312 38.7548 36.995 38.702 37.0279C38.6488 37.0608 38.5807 37.0554 38.5335 37.0143L35.7733 34.6038L35.5227 36.3051C35.5164 36.3477 35.4911 36.3851 35.4539 36.407C35.4167 36.4288 35.3715 36.4322 35.3315 36.4169L32.4928 35.3251L34.0985 37.8122C34.1216 37.8476 34.1272 37.8916 34.1145 37.9319C34.1017 37.9722 34.0716 38.0045 34.0323 38.0204L32.5267 38.6254L36.7371 40.2297C36.7874 40.249 36.8224 40.2947 36.8278 40.348C36.8332 40.4013 36.8076 40.4533 36.7621 40.4819L34.1329 42.1353L35.9415 42.8799C35.9787 42.8952 36.0074 42.9253 36.0211 42.963C36.0347 43.0007 36.0316 43.0424 36.0126 43.0776L34.764 45.4018L37.2827 44.3033C37.3514 44.2732 37.4319 44.3021 37.466 44.3688L38.0664 45.5462L40.4711 42.0471C40.4975 42.0085 40.5413 41.9855 40.5881 41.9855H40.5867Z" fill="black"/>
</svg>
