<svg width="26" height="26" viewBox="0 0 26 26" fill="none" xmlns="http://www.w3.org/2000/svg">
<path d="M19.4132 26.0002C18.3429 26.0006 17.2911 25.7219 16.362 25.1916L16.231 25.1179C10.1903 21.6688 5.13655 16.7312 1.55255 10.7768L0.869327 9.64021C0.169557 8.47819 -0.120413 7.11582 0.0456254 5.7702C0.211664 4.42458 0.824157 3.17315 1.78549 2.21535L3.14675 0.8566C4.29066 -0.285208 6.15107 -0.285208 7.29394 0.8566L10.2931 3.85021C10.7444 4.30287 11.0357 4.89002 11.1228 5.52272C11.2098 6.15543 11.088 6.79923 10.7756 7.3566L9.64832 9.35476C9.62463 9.3968 9.61536 9.44542 9.62193 9.49321C9.6285 9.541 9.65055 9.58533 9.68472 9.61945L16.362 16.2845C16.3968 16.3184 16.4416 16.3402 16.4898 16.3466C16.538 16.353 16.5869 16.3436 16.6293 16.3198L18.628 15.1956L18.6291 15.1946C19.1875 14.8831 19.8324 14.7617 20.4662 14.8486C21.1 14.9355 21.6882 15.226 22.1419 15.6762L25.1421 18.6719C26.286 19.8137 26.286 21.6707 25.1421 22.8115L23.7205 24.2294C23.1544 24.7926 22.4825 25.2389 21.7434 25.5428C21.0043 25.8467 20.2125 26.0021 19.4132 26.0002ZM5.22035 2.07626C5.00196 2.07626 4.78358 2.1593 4.61719 2.32538L3.25594 3.68309C2.62322 4.31351 2.22009 5.13717 2.11078 6.02282C2.00147 6.90848 2.19228 7.80517 2.65279 8.57002L3.33601 9.70664C6.73566 15.3552 11.5294 20.0394 17.2595 23.3118L17.3905 23.3855C18.9774 24.2917 20.9741 24.0353 22.249 22.7606L23.6706 21.3427C23.7498 21.2637 23.8127 21.1698 23.8556 21.0665C23.8984 20.9632 23.9205 20.8525 23.9205 20.7407C23.9205 20.6288 23.8984 20.5181 23.8556 20.4148C23.8127 20.3115 23.7498 20.2177 23.6706 20.1386L20.6704 17.1429C20.5384 17.0119 20.3671 16.9274 20.1827 16.9023C19.9982 16.8772 19.8105 16.9129 19.6482 17.0038L17.6495 18.128C17.2112 18.3729 16.7049 18.4686 16.2073 18.4006C15.7097 18.3326 15.2478 18.1046 14.8916 17.7512L8.21427 11.0862C7.8598 10.731 7.63113 10.2701 7.563 9.77349C7.49487 9.27684 7.59099 8.77155 7.83678 8.3344L8.96405 6.33727C9.05462 6.17517 9.08991 5.98806 9.06458 5.80418C9.03926 5.62031 8.9547 5.44964 8.82366 5.31795L5.8235 2.32538C5.74435 2.24626 5.65032 2.18352 5.54681 2.14077C5.44331 2.09802 5.33236 2.0761 5.22035 2.07626Z" fill="#DE6D75"/>
</svg>
