<svg width="26" height="26" viewBox="0 0 26 26" fill="none" xmlns="http://www.w3.org/2000/svg">
<path d="M22.1 2.60024H19.5V1.30024C19.5 0.955463 19.363 0.624803 19.1192 0.381005C18.8754 0.137208 18.5448 0.000244141 18.2 0.000244141C17.8552 0.000244141 17.5246 0.137208 17.2808 0.381005C17.037 0.624803 16.9 0.955463 16.9 1.30024V2.60024H9.1V1.30024C9.1 0.955463 8.96304 0.624803 8.71924 0.381005C8.47544 0.137208 8.14478 0.000244141 7.8 0.000244141C7.45522 0.000244141 7.12456 0.137208 6.88076 0.381005C6.63696 0.624803 6.5 0.955463 6.5 1.30024V2.60024H3.9C2.86566 2.60024 1.87368 3.01114 1.14228 3.74253C0.410892 4.47392 0 5.4659 0 6.50024V22.1002C0 23.1346 0.410892 24.1266 1.14228 24.858C1.87368 25.5894 2.86566 26.0002 3.9 26.0002H22.1C23.1343 26.0002 24.1263 25.5894 24.8577 24.858C25.5891 24.1266 26 23.1346 26 22.1002V6.50024C26 5.4659 25.5891 4.47392 24.8577 3.74253C24.1263 3.01114 23.1343 2.60024 22.1 2.60024ZM23.4 22.1002C23.4 22.445 23.263 22.7757 23.0192 23.0195C22.7754 23.2633 22.4448 23.4002 22.1 23.4002H3.9C3.55522 23.4002 3.22456 23.2633 2.98076 23.0195C2.73696 22.7757 2.6 22.445 2.6 22.1002V13.0002H23.4V22.1002ZM23.4 10.4002H2.6V6.50024C2.6 6.15546 2.73696 5.8248 2.98076 5.58101C3.22456 5.33721 3.55522 5.20024 3.9 5.20024H6.5V6.50024C6.5 6.84503 6.63696 7.17568 6.88076 7.41948C7.12456 7.66328 7.45522 7.80024 7.8 7.80024C8.14478 7.80024 8.47544 7.66328 8.71924 7.41948C8.96304 7.17568 9.1 6.84503 9.1 6.50024V5.20024H16.9V6.50024C16.9 6.84503 17.037 7.17568 17.2808 7.41948C17.5246 7.66328 17.8552 7.80024 18.2 7.80024C18.5448 7.80024 18.8754 7.66328 19.1192 7.41948C19.363 7.17568 19.5 6.84503 19.5 6.50024V5.20024H22.1C22.4448 5.20024 22.7754 5.33721 23.0192 5.58101C23.263 5.8248 23.4 6.15546 23.4 6.50024V10.4002Z" fill="#DE6D75"/>
</svg>
