<svg xmlns="http://www.w3.org/2000/svg" width="498.56" height="606.051" viewBox="0 0 498.56 606.051">
  <g id="Group_50" data-name="Group 50" transform="translate(-88.121 -17.007)">
    <g id="Group_48" data-name="Group 48">
      <g id="Group_45" data-name="Group 45">
        <path id="Path_53" data-name="Path 53" d="M402.51,522.159q-1.089,0-2.179-.06a43.408,43.408,0,0,1-28.348-12.88l-222.7-222.691a43.461,43.461,0,0,1-12.661-25.779L131.6,107.832A37.061,37.061,0,0,1,142,77.593c8.012-8,19.3-11.805,31.184-10.5l151.343,4.927a43.764,43.764,0,0,1,26.557,12.7l222.7,222.7c16.284,16.3,17.289,41.805,2.23,56.864L428.838,511.459A36.765,36.765,0,0,1,402.51,522.159ZM168.861,87.258c-5.176,0-9.326,1.633-12.372,4.668-3.613,3.614-5.216,8.72-4.579,14.443l5.027,152.946c.487,4.121,2.906,8.949,6.758,12.8l222.7,222.69a23.1,23.1,0,0,0,15.01,6.938,16.81,16.81,0,0,0,13.019-4.7L561.6,349.873c7.107-7.117,6.111-19.688-2.23-28.039l-222.7-222.7a23.056,23.056,0,0,0-13.577-6.8L171.728,87.407A28.7,28.7,0,0,0,168.861,87.258Z" fill="#6e6e6e"/>
      </g>
      <g id="Group_46" data-name="Group 46">
        <path id="Path_54" data-name="Path 54" d="M359.262,623.058c-.716,0-1.443-.02-2.17-.06a43.42,43.42,0,0,1-28.357-12.87l-222.7-222.7a43.34,43.34,0,0,1-12.651-25.789l-5.026-152.9a37.058,37.058,0,0,1,10.411-30.259,37.685,37.685,0,0,1,31.165-10.491l14.562.458a10.179,10.179,0,0,1,9.844,9.854l2.6,81.012c.487,4.121,2.906,8.949,6.758,12.8l222.7,222.69a23.1,23.1,0,0,0,15.01,6.938,16.893,16.893,0,0,0,13.019-4.7L509.63,401.84a10.19,10.19,0,0,1,14.413,0l6.49,6.49c16.294,16.294,17.3,41.8,2.239,56.855L385.6,612.358A36.726,36.726,0,0,1,359.262,623.058Zm-233.639-434.9c-5.176,0-9.336,1.633-12.392,4.679-3.6,3.6-5.2,8.709-4.559,14.442L113.7,360.214c.477,4.131,2.9,8.949,6.748,12.8l222.7,222.7c8.331,8.341,20.912,9.356,28.039,2.229L518.36,450.772c6.907-6.908,6.151-18.962-1.533-27.293l-87.989,87.98a37.136,37.136,0,0,1-28.507,10.64,43.408,43.408,0,0,1-28.348-12.88l-222.7-222.691a43.461,43.461,0,0,1-12.661-25.779l-2.339-72.243-5.813-.2A28.024,28.024,0,0,0,125.623,188.157Z" fill="#6e6e6e"/>
      </g>
      <g id="Group_47" data-name="Group 47">
        <path id="Path_55" data-name="Path 55" d="M228.552,204.75a40.761,40.761,0,1,1,28.836-69.575h0a40.75,40.75,0,0,1-28.836,69.575Zm.01-61.125a20.375,20.375,0,1,0,14.413,5.962A20.339,20.339,0,0,0,228.562,143.625Z" fill="#6e6e6e"/>
      </g>
    </g>
    <g id="Group_49" data-name="Group 49">
      <path id="Path_56" data-name="Path 56" d="M143.141,160a10.131,10.131,0,0,1-6.35-2.23,109.332,109.332,0,0,1-9.138-8.182C91.89,113.824,85.421,62.1,113.241,34.275c27.81-27.79,79.538-21.36,115.311,14.413a113.34,113.34,0,0,1,19.46,25.81c12.87,23.182,15.885,48.195,8.251,68.57a10.192,10.192,0,0,1-19.091-7.147c5.455-14.562,2.837-33.842-7.007-51.579A93.563,93.563,0,0,0,214.14,63.111C200.284,49.256,183.353,40.3,166.462,37.889c-15.856-2.25-29.6,1.582-38.809,10.8-19.867,19.867-13.407,58.666,14.413,86.487a92.3,92.3,0,0,0,7.445,6.668A10.192,10.192,0,0,1,143.141,160Z" fill="#6e6e6e"/>
    </g>
  </g>
</svg>
