<svg xmlns="http://www.w3.org/2000/svg" width="141.832" height="108.961" viewBox="0 0 141.832 108.961">
  <g id="Group_129" data-name="Group 129" transform="translate(-17.419 -43.461)">
    <path id="Path_218" data-name="Path 218" d="M167.3,44.038c-2.3-1.209-4.831-.379-6.795,1.179a71.485,71.485,0,0,0-15.867,16.81,96.166,96.166,0,0,0-13.988,31.706,12.978,12.978,0,0,1-2.989,3.1c-2,1.577-4.47,3.66-7.266,3.432-.779-.213-1.292-.727-1.309-1.206a18.757,18.757,0,0,1,.142-5.328,20.061,20.061,0,0,1,1.414-4.075c4.22-4.395,8.424-9.324,12.1-13.937,5.671-7.738,12.862-15.994,15.934-25.174.254-.788.478-1.8.725-2.58a3.086,3.086,0,0,0-1.1-3.226c-1.285-1.256-3.307-.96-4.824-.414-5.759,2.9-10.216,8.079-12.433,10.656-6.424,7.5-13.526,18.782-16.168,25.691a59.12,59.12,0,0,0-3.341,9.447,15.744,15.744,0,0,1-1.158,4.311c-1.263.8-2,1.551-3.744,2.887-2.975,2.569-6.232,5.446-10.805,4.537-.776-.249-1.045-1.268-1.321-1.995,2.976-1.86,5.736-4.207,8.492-6.275,3.46-3.365,7.218-6.228,8.865-10.85a3.846,3.846,0,0,0-1.1-4C107.692,76,102.646,77.392,99.379,79,91.86,82.936,85.93,90.7,86.4,99.8c.581,4.259,4.723,7.217,10.555,6.846,4.8-.626,8.766-4.234,12.778-6.618.243-.264.756-.269.763-.022a17.907,17.907,0,0,0,2.621,4.755c2.078,1.711,5.123,1.4,7.4.861,3.49-1.373,6.491-3.966,9.742-6.078.788,1.025,1.052,2.281,1.857,3.278,1.558,1.724,3.111,2.962,5.635,2.9a30.786,30.786,0,0,0,9.581-2.235c1.771-.545,3.008-1.326,3.539-1.326l-1.383-4.272a9.1,9.1,0,0,1-4.5,2.608c-1.5.277-3.534.862-4.836-.136a7.494,7.494,0,0,1-1.606-4.264c.459-2.546.613-6.345,3.125-8.182a156.219,156.219,0,0,0,14.842-16.78c1.463-2.049,3.66-5.41,5.139-7.983l1.705-2.81a67.569,67.569,0,0,0,3.392-6.646A22.067,22.067,0,0,0,168.38,46.8l-.009-.244a2.424,2.424,0,0,0-1.074-2.521M134.886,57.412h0c1.475-2.307,3.94-6.665,7.7-8.517.49-.01.729-.012,1,.241.506,1.012-.208,2.032-.433,3.039l-2.917,5.376A149.713,149.713,0,0,1,124.5,79.942l-.261.006a116.434,116.434,0,0,1,10.647-22.536M96.052,89.953h0c1.711-3.862,2.671-6.141,5.155-8.488A4.157,4.157,0,0,1,105,80.62a1.131,1.131,0,0,1,.774,1.006c.039,1.768-.953,3.059-1.939,4.322-2.975,3.366-5.933,6.745-9.183,9.1a17.3,17.3,0,0,1,1.4-5.1m66.133-37.185h0c-.488,1.022-1.228,2.067-1.713,3.332-4.12,8.18-9.745,17.424-16.7,23.671A127.361,127.361,0,0,1,154.418,57.25l1.727-2.593c1.455-2.314,3.171-5.122,4.92-5.924.523.014.756,0,1.051.24,1.277.991.545,2.769.068,3.795" transform="translate(-9.172 0)" fill="#868485" fill-rule="evenodd"/>
    <path id="Path_219" data-name="Path 219" d="M17.419,71.7l10.9-.259L39.559,98.017l2.454-3.6,4.577,11.027L44.638,108.8l-11.682.254Z" transform="translate(0 -3.722)" fill="#e04403" fill-rule="evenodd"/>
    <path id="Path_220" data-name="Path 220" d="M40.248,67.649l10.367-.243L61.622,94.024,93.231,44.669l11.908-.265L66.913,104.75l-11.653.259Z" transform="translate(-3.037 -0.125)" fill="#e04403" fill-rule="evenodd"/>
    <path id="Path_221" data-name="Path 221" d="M76.51,45.171,59.334,71.881,63.92,83.162,88.672,44.883Z" transform="translate(-5.575 -0.189)" fill="#e04403" fill-rule="evenodd"/>
    <path id="Path_222" data-name="Path 222" d="M20.149,138.821c12.524-7.356,35.971-13.689,59.752-15.992,45.041-4.073,64.772,5.129,65.04,5.124.246.23.246.23.261.469-2.242,12.973-18.337,30.542-27.132,34.3-.242.266-.5.017-.247,0,5.276-13.289-2.983-20.423-27.706-25.491-.235.007-.269-.97-.023-.979,2.5-1.314,29.426,1.385,40.032,10.245,0,0,4.658-7.695,5.154-8.21l-.007-.275C95.933,114.6,32.738,134.469,20.151,139.09Z" transform="translate(-0.363 -10.419)" fill="#e04403" fill-rule="evenodd"/>
    <g id="Group_128" data-name="Group 128" transform="translate(18.863 117.235)">
      <path id="Path_223" data-name="Path 223" d="M21.417,150.33l-2.332-6.416,3.983-1.448.394,1.085-2.81,1.022.551,1.518,2.426-.882.394,1.085-2.426.882.992,2.727Z" transform="translate(-19.085 -130.404)" fill="#868485"/>
      <path id="Path_224" data-name="Path 224" d="M25.648,145.286a4.768,4.768,0,0,1-.28-1.752,3.258,3.258,0,0,1,.254-1.069,2.4,2.4,0,0,1,.566-.834,3.1,3.1,0,0,1,1.18-.674,2.762,2.762,0,0,1,2.369.2,4.528,4.528,0,0,1,1.633,4.927,2.739,2.739,0,0,1-1.774,1.568,2.771,2.771,0,0,1-2.373-.194A3.763,3.763,0,0,1,25.648,145.286Zm1.208-.448a2.741,2.741,0,0,0,1.011,1.518,1.564,1.564,0,0,0,2.334-.766,2.8,2.8,0,0,0-.1-1.841,2.748,2.748,0,0,0-.991-1.516,1.615,1.615,0,0,0-2.354.785A2.763,2.763,0,0,0,26.856,144.838Z" transform="translate(-19.92 -130.181)" fill="#868485"/>
      <path id="Path_225" data-name="Path 225" d="M33.993,146.1l-1.957-6.541,2.517-.753a4.073,4.073,0,0,1,1.431-.237,1.468,1.468,0,0,1,.877.42,2.125,2.125,0,0,1,.567.954,1.94,1.94,0,0,1-.028,1.333,1.891,1.891,0,0,1-.991.955,2.993,2.993,0,0,1,.8.357,7.754,7.754,0,0,1,1,.859l1.105,1.059-1.431.428-1.29-1.164a9.513,9.513,0,0,0-.918-.773.953.953,0,0,0-.44-.164,1.871,1.871,0,0,0-.624.107l-.242.073.817,2.729Zm.066-4.131.885-.265a4.354,4.354,0,0,0,1.051-.4.68.68,0,0,0,.252-.377.955.955,0,0,0-.026-.526.88.88,0,0,0-.319-.486.739.739,0,0,0-.527-.12,8.87,8.87,0,0,0-.879.238l-.934.278Z" transform="translate(-20.808 -129.885)" fill="#868485"/>
      <path id="Path_226" data-name="Path 226" d="M43.045,143.436l-1.732-6.6,4.433-1.163.293,1.117-3.226.847L43.2,139.1l3-.787.292,1.112-3,.788.472,1.8,3.34-.877.292,1.112Z" transform="translate(-22.042 -129.5)" fill="#868485"/>
      <path id="Path_227" data-name="Path 227" d="M50.571,141.487l-3.724-6.134,1.317-.311,2.687,4.555.308-5.265,1.289-.305-.581,7.154Z" transform="translate(-22.778 -129.282)" fill="#868485"/>
      <path id="Path_228" data-name="Path 228" d="M55.255,140.45l-1.408-6.68,4.485-.945.238,1.13-3.264.688.312,1.481,3.037-.64.238,1.125-3.037.64.383,1.819,3.379-.714.238,1.126Z" transform="translate(-23.709 -129.122)" fill="#868485"/>
      <path id="Path_229" data-name="Path 229" d="M61.444,139.212,60.22,132.5l2.584-.472a4.115,4.115,0,0,1,1.45-.077,1.468,1.468,0,0,1,.824.515,2.129,2.129,0,0,1,.459,1.01,1.944,1.944,0,0,1-.175,1.322,1.9,1.9,0,0,1-1.09.839,3.018,3.018,0,0,1,.76.444,7.842,7.842,0,0,1,.9.962l.981,1.176-1.469.268-1.154-1.3a9.469,9.469,0,0,0-.827-.869.969.969,0,0,0-.42-.212,1.877,1.877,0,0,0-.632.037l-.249.045.511,2.8Zm.521-4.1.909-.166a4.3,4.3,0,0,0,1.088-.283.681.681,0,0,0,.293-.347.96.96,0,0,0,.032-.527.873.873,0,0,0-.263-.517.742.742,0,0,0-.511-.179c-.1,0-.4.049-.9.14l-.958.174Z" transform="translate(-24.557 -129.001)" fill="#868485"/>
      <path id="Path_230" data-name="Path 230" d="M69.291,137.792l-.438-2.84-2.841-3.562,1.446-.223,1.85,2.448,1-2.886,1.422-.219-1.643,4.263.437,2.831Z" transform="translate(-25.327 -128.814)" fill="#868485"/>
      <path id="Path_231" data-name="Path 231" d="M75.319,136.96l-.7-5.628-1.821.227-.143-1.146,4.874-.609.143,1.146-1.815.227.7,5.628Z" transform="translate(-26.21 -128.72)" fill="#868485"/>
      <path id="Path_232" data-name="Path 232" d="M79.7,136.443l-.629-6.8,1.243-.114.247,2.676L83,131.981l-.248-2.675L84,129.191l.629,6.8-1.243.114-.274-2.972-2.436.225.275,2.973Z" transform="translate(-27.065 -128.639)" fill="#868485"/>
      <path id="Path_233" data-name="Path 233" d="M86.5,135.913,86.04,129.1l1.247-.083.453,6.811Z" transform="translate(-27.991 -128.616)" fill="#868485"/>
      <path id="Path_234" data-name="Path 234" d="M88.941,135.717,88.67,128.9l1.213-.048L92.59,133.3l-.179-4.555,1.158-.046.271,6.821-1.251.049-2.667-4.35.176,4.449Z" transform="translate(-28.341 -128.574)" fill="#868485"/>
      <path id="Path_235" data-name="Path 235" d="M98.614,132.987l.007-1.15,2.69.016-.016,2.719a3.325,3.325,0,0,1-1.142.732,3.809,3.809,0,0,1-1.509.31,3.119,3.119,0,0,1-1.688-.46,2.75,2.75,0,0,1-1.075-1.292,4.508,4.508,0,0,1-.353-1.821,4.273,4.273,0,0,1,.417-1.892,2.863,2.863,0,0,1,1.193-1.264,2.942,2.942,0,0,1,1.483-.331,2.754,2.754,0,0,1,1.795.544,2.452,2.452,0,0,1,.823,1.479l-1.241.248a1.455,1.455,0,0,0-.486-.8,1.391,1.391,0,0,0-.9-.3,1.618,1.618,0,0,0-1.3.565,2.59,2.59,0,0,0-.492,1.7,2.866,2.866,0,0,0,.478,1.826,1.566,1.566,0,0,0,1.278.616,1.969,1.969,0,0,0,.787-.165,2.608,2.608,0,0,0,.68-.408l0-.866Z" transform="translate(-29.253 -128.554)" fill="#868485"/>
      <path id="Path_236" data-name="Path 236" d="M106.957,135.786l.209-2.865-1.972-4.108,1.46.107,1.255,2.8,1.618-2.59,1.434.1-2.554,3.787-.209,2.856Z" transform="translate(-30.539 -128.588)" fill="#868485"/>
      <path id="Path_237" data-name="Path 237" d="M111.812,132.8a4.747,4.747,0,0,1,.507-1.7,3.243,3.243,0,0,1,.692-.853,2.428,2.428,0,0,1,.872-.506,3.111,3.111,0,0,1,1.357-.094,2.761,2.761,0,0,1,2.046,1.211,4.529,4.529,0,0,1-.667,5.147,3.027,3.027,0,0,1-4.332-.563A3.747,3.747,0,0,1,111.812,132.8Zm1.281.121a2.74,2.74,0,0,0,.253,1.806,1.564,1.564,0,0,0,2.435.323,2.8,2.8,0,0,0,.7-1.7,2.757,2.757,0,0,0-.235-1.8,1.615,1.615,0,0,0-2.461-.315A2.763,2.763,0,0,0,113.094,132.926Z" transform="translate(-31.413 -128.695)" fill="#868485"/>
      <path id="Path_238" data-name="Path 238" d="M120.267,130.454l1.224.245-.724,3.625a8.513,8.513,0,0,0-.178,1.128,1.127,1.127,0,0,0,.243.735,1.241,1.241,0,0,0,.759.41,1.178,1.178,0,0,0,.832-.078.973.973,0,0,0,.433-.514,8.612,8.612,0,0,0,.281-1.127l.739-3.7,1.223.245-.7,3.516a10.223,10.223,0,0,1-.439,1.684,2.005,2.005,0,0,1-.534.767,1.9,1.9,0,0,1-.822.4,2.884,2.884,0,0,1-1.207-.029,3.144,3.144,0,0,1-1.273-.484,1.962,1.962,0,0,1-.79-1.528,9.163,9.163,0,0,1,.219-1.723Z" transform="translate(-32.42 -128.807)" fill="#868485"/>
      <path id="Path_239" data-name="Path 239" d="M130.014,132.627l1.193.367-1.086,3.534a8.692,8.692,0,0,0-.291,1.105,1.127,1.127,0,0,0,.168.755,1.24,1.24,0,0,0,.713.484,1.176,1.176,0,0,0,.837.007.978.978,0,0,0,.484-.468,8.463,8.463,0,0,0,.393-1.092l1.11-3.609,1.193.367-1.054,3.427a10.083,10.083,0,0,1-.607,1.631,2.022,2.022,0,0,1-.608.709,1.9,1.9,0,0,1-.859.318,2.885,2.885,0,0,1-1.2-.152,3.133,3.133,0,0,1-1.218-.61,1.959,1.959,0,0,1-.63-1.6,9.14,9.14,0,0,1,.392-1.691Z" transform="translate(-33.645 -129.096)" fill="#868485"/>
      <path id="Path_240" data-name="Path 240" d="M135.014,139.12l1.177.329a1.708,1.708,0,0,0,.045,1.085,1.265,1.265,0,0,0,.723.629,1.3,1.3,0,0,0,.948.075.872.872,0,0,0,.529-.5.661.661,0,0,0,.033-.431,1.02,1.02,0,0,0-.308-.441q-.173-.159-.818-.647a3.239,3.239,0,0,1-1.059-1.149,1.859,1.859,0,0,1-.02-1.487,1.885,1.885,0,0,1,.61-.807,1.726,1.726,0,0,1,.973-.356,2.833,2.833,0,0,1,1.217.231,2.44,2.44,0,0,1,1.419,1.171,2.079,2.079,0,0,1,.016,1.626l-1.182-.4a1.212,1.212,0,0,0-.039-.831,1.164,1.164,0,0,0-.649-.506,1.317,1.317,0,0,0-.882-.087.517.517,0,0,0-.342.32.548.548,0,0,0,.019.454,3.1,3.1,0,0,0,.9.848,5.661,5.661,0,0,1,1.069.956,1.806,1.806,0,0,1,.378.9,2.2,2.2,0,0,1-.174,1.1,2.158,2.158,0,0,1-.681.912,1.817,1.817,0,0,1-1.058.4,3.2,3.2,0,0,1-1.341-.267,2.507,2.507,0,0,1-1.45-1.222A2.7,2.7,0,0,1,135.014,139.12Z" transform="translate(-34.486 -129.467)" fill="#868485"/>
      <path id="Path_241" data-name="Path 241" d="M140.212,143.618l3.06-6.1,4.1,2.054-.518,1.033-2.982-1.495-.678,1.352,2.774,1.392-.516,1.028-2.774-1.391-.832,1.661,3.086,1.548-.515,1.028Z" transform="translate(-35.197 -129.746)" fill="#868485"/>
      <path id="Path_242" data-name="Path 242" d="M145.952,146.648l.68-1.118,1.013.616-.68,1.118Zm1.135-1.371,1.535-3.12.832-1.369,1.1.666-.832,1.369-2.059,2.8Z" transform="translate(-35.96 -130.181)" fill="#868485"/>
    </g>
  </g>
</svg>
