<svg xmlns="http://www.w3.org/2000/svg" width="787.601" height="602.231" viewBox="0 0 787.601 602.231">
  <g id="Group_656" data-name="Group 656" transform="translate(-131.801 -257.331)">
    <g id="Group_655" data-name="Group 655">
      <g id="Group_653" data-name="Group 653">
        <path id="Path_291" data-name="Path 291" d="M148.8,726.482c69.511-40.8,199.536-76.038,331.43-88.819C730.147,614.967,839.6,666,841.035,666c1.288,1.287,1.288,1.287,1.431,2.575-12.419,71.962-101.65,169.416-150.425,190.321-1.287,1.431-2.718.144-1.43,0,29.3-73.685,10.25-134.763-126.952-162.751-144.069-27.842-345.051,6.137-414.853,31.77Z" fill="#fff" fill-rule="evenodd"/>
      </g>
      <g id="Group_654" data-name="Group 654">
        <path id="Path_292" data-name="Path 292" d="M131.8,393.739l60.512-1.453L254.884,539.9l13.583-20.033,25.487,61.219-10.865,18.6-64.947,1.455Z" fill="#fff" fill-rule="evenodd"/>
        <path id="Path_293" data-name="Path 293" d="M241.81,391.123l57.508-1.309,61.14,147.755,175.429-273.16,66.235-.025L389.951,597.212l-64.8,1.455Z" fill="#fff" fill-rule="evenodd"/>
        <path id="Path_294" data-name="Path 294" d="M429.024,264.448,333.661,414.264l25.487,62.649,137.4-212.49Z" fill="#fff" fill-rule="evenodd"/>
        <path id="Path_295" data-name="Path 295" d="M913.127,260.548c-12.734-6.719-26.9-2.136-37.764,6.6-34.61,26.049-63.5,57.818-88.089,93.448-35.458,51.514-62.33,112.466-77.614,176.132-4.289,7.011-8.293,9.874-16.588,17.173-11.155,8.731-24.884,20.323-40.335,19.041-4.292-1.142-7.154-4-7.3-6.72-1.578-9.871-.437-19.742.847-29.614,2.572-8.441,3.857-15.594,7.86-22.605,23.452-24.472,46.76-51.8,67.208-77.419,31.456-42.929,71.352-88.865,88.5-139.8,1.429-4.436,2.714-10.015,4-14.307,1.285-7.011-.434-13.877-6.158-17.88-7.156-7.007-18.313-5.286-26.753-2.279-32.038,16.034-56.777,44.655-69.074,59.108-35.606,41.643-75.066,104.316-89.787,142.661-8,19.745-13.435,31.191-18.577,52.509-2.571,12.733-3.856,19.6-6.429,23.892-7.008,4.438-11.155,8.588-20.737,16.03-16.59,14.312-34.609,30.2-59.932,25.2-4.292-1.429-5.868-7.008-7.3-11.013,16.448-10.306,31.893-23.33,47.2-34.923,19.163-18.748,40.043-34.635,49.189-60.245a21.146,21.146,0,0,0-6.16-22.172c-17.029-15.158-45.065-7.422-63.23,1.454-41.765,21.9-74.652,64.976-72.058,115.474,3.3,23.6,26.2,40.046,58.668,38.031,26.607-3.443,48.63-23.48,70.942-36.792,1.287-1.431,4.148-1.432,4.292-.145,3.008,9.727,8.876,18.165,14.6,26.46,11.591,9.438,28.471,7.715,41.059,4.706,19.453-7.589,36.042-22.044,54.062-33.782,4.437,5.721,5.871,12.73,10.307,18.165,8.587,9.581,17.316,16.445,31.336,16.01,23.89-1.725,36.477-6.308,53.212-12.465,9.87-3.008,16.735-7.3,19.6-7.3l-7.734-23.744c-5.576,7.012-15.159,11.45-25.029,14.458-8.3,1.577-19.6,4.728-26.9-.705a41.468,41.468,0,0,1-8.878-23.744c2.569-14.164,3.42-35.194,17.292-45.5,30.317-30.2,56.343-58.817,82.366-93.16,8.15-11.448,20.3-30.05,28.595-44.359l9.436-15.6c12.152-21.32,13.438-25.755,18.87-36.916a120.592,120.592,0,0,0,9-38.2v-1.288a13.351,13.351,0,0,0-6.014-13.874M733.189,334.861h0c8.15-12.878,21.874-37.059,42.757-47.367,2.718,0,4.005,0,5.579,1.285,2.864,5.578-1.14,11.3-2.425,16.882l-16.155,29.9a830.176,830.176,0,0,1-87.361,124.348h-1.43a654.547,654.547,0,0,1,59.035-125.054M517.67,515.622h0c9.434-21.462,14.865-34.053,28.594-47.076,5.435-4.294,13.874-7.3,21.028-4.729,2.718,1.43,4.149,2.86,4.293,5.578.29,9.871-5.286,17.025-10.72,24.037-16.444,18.747-32.889,37.493-50.909,50.518a92.162,92.162,0,0,1,7.714-28.328M884.82,309.055h0c-2.716,5.723-6.862,11.447-9.578,18.458-22.872,45.5-54.039,96.726-92.652,131.5,15.72-44.067,33.3-80.982,59.036-125.053l9.58-14.453c8.006-12.878,17.585-28.474,27.311-32.913,2.861.142,4.149,0,5.866,1.285,7.155,5.577,3.01,15.449.437,21.173" fill="#fff" fill-rule="evenodd"/>
      </g>
    </g>
  </g>
</svg>
