<svg xmlns="http://www.w3.org/2000/svg" width="29.555" height="23.644" viewBox="0 0 29.555 23.644">
  <path id="logo-twitter" d="M45.555,66.8a12.425,12.425,0,0,1-3.482.942,6,6,0,0,0,2.668-3.3,12.175,12.175,0,0,1-3.852,1.447A6.1,6.1,0,0,0,36.461,64,6.014,6.014,0,0,0,30.4,69.966a5.739,5.739,0,0,0,.156,1.361,17.283,17.283,0,0,1-12.5-6.237,5.892,5.892,0,0,0-.824,3,5.951,5.951,0,0,0,2.709,4.969,6,6,0,0,1-2.757-.745v.074a6,6,0,0,0,4.864,5.849,6.2,6.2,0,0,1-1.6.209,5.811,5.811,0,0,1-1.14-.111,6.061,6.061,0,0,0,5.668,4.144,12.289,12.289,0,0,1-7.532,2.555A12.5,12.5,0,0,1,16,84.947a17.159,17.159,0,0,0,9.281,2.7A17,17,0,0,0,42.549,70.662c0-.259-.007-.517-.019-.77A12.221,12.221,0,0,0,45.555,66.8Z" transform="translate(-16 -64)" fill="#fff"/>
</svg>
