<?xml version="1.0" encoding="utf-8"?>
<!-- Generator: Adobe Illustrator 24.2.3, SVG Export Plug-In . SVG Version: 6.00 Build 0)  -->
<svg version="1.1" id="Layer_1" xmlns="http://www.w3.org/2000/svg" xmlns:xlink="http://www.w3.org/1999/xlink" x="0px" y="0px"
	 viewBox="0 0 141.8 110.3" style="enable-background:new 0 0 141.8 110.3;" xml:space="preserve">
<style type="text/css">
	.st0{fill-rule:evenodd;clip-rule:evenodd;fill:#FF4D00;}
	.st1{fill-rule:evenodd;clip-rule:evenodd;fill:#BBBDBF;}
</style>
<g>
	<polygon class="st0" points="0.4,22 11.3,22 21.7,48.9 24.2,45.4 28.5,56.5 26.5,59.9 14.9,59.8 	"/>
	<polygon class="st0" points="20.1,22.1 30.4,22.1 40.6,49 73.3,0.5 85.1,0.5 45.6,59.9 34,59.9 	"/>
	<polygon class="st0" points="54.1,0.4 36.4,26.7 40.7,38.1 66.2,0.4 	"/>
	<path class="st1" d="M140.7,1.8c-2.2-1.3-4.8-0.5-6.8,1c-6.3,4.5-11.6,10.1-16.2,16.4c-3.7,5.1-6.8,10.5-9.3,16.2
		c-1.3,3-2.5,6-3.6,9.2c-1.2,3.6-2.3,7.1-5.4,9.4c-1.8,1.3-3.8,2.8-6.1,2.9c-0.6,0-1.2-0.1-1.6-0.5c-0.4-0.4-0.5-1-0.5-1.6
		c-0.1-2.9,0.4-6.1,1.9-8.6c4.3-4.3,8.6-9.1,12.4-13.6c5.8-7.6,13.2-15.7,16.5-24.8c0.2-0.8,0.5-1.8,0.8-2.6c0.3-1.2,0-2.5-1-3.3
		c-1.3-1.3-3.3-1-4.8-0.5c-5.8,2.7-10.4,7.8-12.6,10.3c-6.6,7.3-13.9,18.5-16.7,25.3C86.2,40.7,85,44.2,84,48
		c-0.8,3.1-3.6,5.3-6.1,6.9c-1.8,1.1-3.7,2.3-5.9,2.8c-2.5,0.6-4.1,0.6-5.1-1.9c3-1.8,5.8-4,8.6-6.1c3.5-3.3,7.3-6.1,9.1-10.6
		c0.5-1.5,0-3-1-4.1c-4.7-4.4-13,0.2-16.8,3.6c-6.2,5.4-13.5,21.1-0.9,23.7c6.2,1.3,11.1-3.2,16.2-6c0.3-0.3,0.8-0.3,0.8,0
		c0,1.3,1.5,3.5,2.2,4.4c0.9,1.1,2.3,1.6,3.8,1.7c5.3,0.4,9.4-3.5,13.6-6.1c-0.3,0.2,2.7,4.3,3.2,4.7c3.5,2.7,8,1.4,11.9,0.3
		c2.3-0.7,5.6-1.6,6.7-4.1c0.9-1.9-0.6-2.7-2.3-1.8c-2,1.1-4.5,2.4-6.9,2.5c-6.5,0.4-4.6-10.5-1-13.1c5.6-5.3,10.4-10.3,15.2-16.4
		c1.5-2,3.8-5.3,5.3-7.9l1.8-2.8c2.3-3.8,2.5-4.6,3.5-6.6c1.1-2.3,1.6-4.6,1.8-6.9V4.3C142,3.3,141.5,2.3,140.7,1.8 M108.2,14.3
		c1.5-2.3,3.4-4.5,5.4-6.4c0.6-0.6,2-2.1,3-1.8c2.1,0.7,0.1,4.5-0.6,5.4c-6.1,9-13.1,17.4-20.9,24.9
		C98.4,28.4,103.5,21.6,108.2,14.3 M68.8,45.9L68.8,45.9c1.8-3.8,2.8-6.1,5.3-8.4c1-0.7,2.5-1.2,3.8-0.7c0.5,0.2,0.7,0.5,0.8,1
		c0,1.8-1,3-2.1,4.3c-3,3.3-6.1,6.6-9.3,8.9C67.5,49.2,68,47.4,68.8,45.9 M135.7,10.3c-1,2.1-2.2,4.1-3.5,6.1
		c-1.3,2-2.7,3.9-4.1,5.7c-1.4,1.9-3,3.7-4.5,5.5c-1.7,2-3.3,4.1-5,6c-0.6,0.7-1.2,1.4-1.9,2c-0.6,0.6-1.3,1.2-2,1.8
		c-0.2,0.2-0.5,0.4-0.7,0.6c-0.1,0.1-0.3,0.2-0.3,0.3c0-1.9,1.2-3.3,2.1-4.8c4.4-7.9,11.2-18.3,16.8-25.5c0.4-0.5,0.8-0.9,1.3-1.2
		c0.5-0.3,1.1-0.5,1.7-0.2c1.4,0.6,0.9,2.1,0.4,3.1C135.9,9.8,135.8,10.1,135.7,10.3z"/>
	<path class="st0" d="M125.3,75c-0.3,0-19.6-9.7-64.4-6.9c-23.6,1.7-47.1,7.4-59.7,14.4v0.2c33.8-7.4,72.9,0.9,72.9,0.9
		c21.7,5.6,28.7,12.9,23.4,25.4c-0.2,0,0,0.3,0.2,0c8.8-3.5,25.3-20.6,27.8-33.6C125.5,75.3,125.5,75.3,125.3,75z"/>
</g>
</svg>
