<svg width="21" height="26" viewBox="0 0 21 26" fill="none" xmlns="http://www.w3.org/2000/svg">
<path d="M17.0625 0.000244141H1.3125C0.964403 0.000244141 0.630564 0.137208 0.384423 0.381005C0.138281 0.624803 0 0.955463 0 1.30024V24.7002C0 25.045 0.138281 25.3757 0.384423 25.6195C0.630564 25.8633 0.964403 26.0002 1.3125 26.0002H17.0625C18.1068 26.0002 19.1083 25.5894 19.8467 24.858C20.5852 24.1266 21 23.1346 21 22.1002V3.90024C21 2.8659 20.5852 1.87392 19.8467 1.14253C19.1083 0.411136 18.1068 0.000244141 17.0625 0.000244141ZM5.25 23.4002H2.625V2.60024H5.25V23.4002ZM18.375 22.1002C18.375 22.445 18.2367 22.7757 17.9906 23.0195C17.7444 23.2633 17.4106 23.4002 17.0625 23.4002H7.875V2.60024H17.0625C17.4106 2.60024 17.7444 2.73721 17.9906 2.98101C18.2367 3.2248 18.375 3.55546 18.375 3.90024V22.1002Z" fill="#DE6D75"/>
</svg>
