<svg width="21" height="26" viewBox="0 0 21 26" fill="none" xmlns="http://www.w3.org/2000/svg">
<path d="M6.5625 10.3941H7.875C8.2231 10.3941 8.55694 10.2573 8.80308 10.0136C9.04922 9.76994 9.1875 9.43948 9.1875 9.0949C9.1875 8.75032 9.04922 8.41985 8.80308 8.1762C8.55694 7.93255 8.2231 7.79566 7.875 7.79566H6.5625C6.2144 7.79566 5.88056 7.93255 5.63442 8.1762C5.38828 8.41985 5.25 8.75032 5.25 9.0949C5.25 9.43948 5.38828 9.76994 5.63442 10.0136C5.88056 10.2573 6.2144 10.3941 6.5625 10.3941ZM14.4375 12.9926H6.5625C6.2144 12.9926 5.88056 13.1295 5.63442 13.3731C5.38828 13.6168 5.25 13.9473 5.25 14.2918C5.25 14.6364 5.38828 14.9669 5.63442 15.2105C5.88056 15.4542 6.2144 15.5911 6.5625 15.5911H14.4375C14.7856 15.5911 15.1194 15.4542 15.3656 15.2105C15.6117 14.9669 15.75 14.6364 15.75 14.2918C15.75 13.9473 15.6117 13.6168 15.3656 13.3731C15.1194 13.1295 14.7856 12.9926 14.4375 12.9926ZM14.4375 18.1896H6.5625C6.2144 18.1896 5.88056 18.3264 5.63442 18.5701C5.38828 18.8137 5.25 19.1442 5.25 19.4888C5.25 19.8334 5.38828 20.1638 5.63442 20.4075C5.88056 20.6511 6.2144 20.788 6.5625 20.788H14.4375C14.7856 20.788 15.1194 20.6511 15.3656 20.4075C15.6117 20.1638 15.75 19.8334 15.75 19.4888C15.75 19.1442 15.6117 18.8137 15.3656 18.5701C15.1194 18.3264 14.7856 18.1896 14.4375 18.1896ZM20.6194 23.7633C20.557 23.7074 20.4913 23.6553 20.4225 23.6074C20.3493 23.5582 20.2699 23.5189 20.1862 23.4904L19.95 23.3865C19.6941 23.337 19.429 23.3642 19.1888 23.4645C19.0259 23.5228 18.878 23.6159 18.7555 23.7371C18.633 23.8584 18.5389 24.0048 18.48 24.166C18.4024 24.3281 18.3663 24.5066 18.375 24.6857C18.3727 24.879 18.414 25.0704 18.4959 25.2458C18.5778 25.4213 18.6982 25.5765 18.8483 25.7001C18.9985 25.8236 19.1746 25.9125 19.3638 25.9601C19.5531 26.0078 19.7507 26.0131 19.9422 25.9755C20.1338 25.938 20.3145 25.8586 20.4711 25.7432C20.6277 25.6278 20.7564 25.4792 20.8477 25.3084C20.939 25.1375 20.9906 24.9486 20.9988 24.7555C21.0069 24.5624 20.9715 24.3699 20.895 24.192C20.8285 24.0346 20.7353 23.8896 20.6194 23.7633ZM21 9.01694C20.9863 8.89759 20.9599 8.78 20.9213 8.66615V8.54922C20.8581 8.41563 20.774 8.29284 20.6719 8.18543L12.7969 0.390015C12.6884 0.288955 12.5643 0.205629 12.4294 0.14316C12.3902 0.137651 12.3504 0.137651 12.3112 0.14316C12.1779 0.0674683 12.0307 0.0188807 11.8781 0.000244141H3.9375C2.89321 0.000244141 1.89169 0.410895 1.15327 1.14186C0.414843 1.87282 0 2.86422 0 3.89795V22.0873C0 23.121 0.414843 24.1124 1.15327 24.8434C1.89169 25.5743 2.89321 25.985 3.9375 25.985H14.4375C14.7856 25.985 15.1194 25.8481 15.3656 25.6044C15.6117 25.3608 15.75 25.0303 15.75 24.6857C15.75 24.3412 15.6117 24.0107 15.3656 23.767C15.1194 23.5234 14.7856 23.3865 14.4375 23.3865H3.9375C3.5894 23.3865 3.25556 23.2496 3.00942 23.006C2.76328 22.7623 2.625 22.4318 2.625 22.0873V3.89795C2.625 3.55337 2.76328 3.22291 3.00942 2.97925C3.25556 2.7356 3.5894 2.59872 3.9375 2.59872H10.5V6.49643C10.5 7.53016 10.9148 8.52156 11.6533 9.25252C12.3917 9.98349 13.3932 10.3941 14.4375 10.3941H18.375V12.9926C18.375 13.3372 18.5133 13.6677 18.7594 13.9113C19.0056 14.155 19.3394 14.2918 19.6875 14.2918C20.0356 14.2918 20.3694 14.155 20.6156 13.9113C20.8617 13.6677 21 13.3372 21 12.9926V9.0949C21 9.0949 21 9.0949 21 9.01694ZM14.4375 7.79566C14.0894 7.79566 13.7556 7.65878 13.5094 7.41512C13.2633 7.17147 13.125 6.84101 13.125 6.49643V4.43064L16.5244 7.79566H14.4375ZM19.6875 16.8903C19.3394 16.8903 19.0056 17.0272 18.7594 17.2709C18.5133 17.5145 18.375 17.845 18.375 18.1896V20.788C18.375 21.1326 18.5133 21.4631 18.7594 21.7067C19.0056 21.9504 19.3394 22.0873 19.6875 22.0873C20.0356 22.0873 20.3694 21.9504 20.6156 21.7067C20.8617 21.4631 21 21.1326 21 20.788V18.1896C21 17.845 20.8617 17.5145 20.6156 17.2709C20.3694 17.0272 20.0356 16.8903 19.6875 16.8903Z" fill="#DE6D75"/>
</svg>
