<svg width="26" height="26" viewBox="0 0 26 26" fill="none" xmlns="http://www.w3.org/2000/svg">
<path d="M26 6.81176C26.001 6.64068 25.9682 6.47109 25.9035 6.31272C25.8388 6.15434 25.7435 6.01029 25.623 5.88883L20.111 0.377238C19.9895 0.256761 19.8455 0.161445 19.6871 0.096756C19.5287 0.0320669 19.3591 -0.00072322 19.188 0.000265868C19.0169 -0.00072322 18.8473 0.0320669 18.6889 0.096756C18.5305 0.161445 18.3865 0.256761 18.265 0.377238L14.586 4.05596L0.377021 18.2639C0.256535 18.3854 0.161213 18.5294 0.096519 18.6878C0.0318251 18.8462 -0.000967431 19.0158 2.17285e-05 19.1868V24.6984C2.17285e-05 25.0432 0.136985 25.3738 0.380782 25.6176C0.624579 25.8614 0.955239 25.9983 1.30002 25.9983H6.81201C6.99392 26.0082 7.17587 25.9798 7.34608 25.9148C7.51628 25.8499 7.67093 25.7499 7.80001 25.6214L21.931 11.4134L25.623 7.79968C25.7416 7.6737 25.8383 7.5287 25.909 7.37072C25.9215 7.2671 25.9215 7.16235 25.909 7.05874C25.9151 6.99823 25.9151 6.93726 25.909 6.87675L26 6.81176ZM6.27901 23.3985H2.60002V19.7198L15.509 6.81176L19.188 10.4905L6.27901 23.3985ZM21.021 8.65762L17.342 4.97889L19.188 3.14603L22.854 6.81176L21.021 8.65762Z" fill="#DE6D75"/>
</svg>
