<?xml version="1.0" encoding="UTF-8"?>
<svg id="Layer_1" xmlns="http://www.w3.org/2000/svg" version="1.1" viewBox="0 0 1080 1080">
  <!-- Generator: Adobe Illustrator 29.0.0, SVG Export Plug-In . SVG Version: 2.1.0 Build 186)  -->
  <defs>
    <style>
      .st0 {
        fill: #fff;
      }
    </style>
  </defs>
  <path class="st0" d="M328.47,453.42c137.78,4.42,280.81-7.27,418.01-.47,126.97,6.29,121.49,169.89,1.38,174.1-136.66-5.24-278.25,6.74-414.34,0-124.72-6.18-122.73-165.91-5.05-173.63Z"/>
  <path class="st0" d="M908.16,318.61c-15.83,15.82-37.35,23.68-59.52,25.39l-430.82-.07c-106.31-7.86-112.31-154.21-9.54-172.42l449.79.02c70.55,8.88,100.89,96.31,50.08,147.08Z"/>
  <path class="st0" d="M171.84,761.39c15.83-15.82,37.35-23.68,59.52-25.39l430.82.07c106.31,7.86,112.31,154.21,9.54,172.42l-449.79-.02c-70.55-8.88-100.89-96.31-50.08-147.08Z"/>
</svg>