<?xml version="1.0" encoding="UTF-8"?>
<svg id="Layer_1" xmlns="http://www.w3.org/2000/svg" version="1.1" viewBox="0 0 1080 1080">
  <!-- Generator: Adobe Illustrator 29.0.0, SVG Export Plug-In . SVG Version: 2.1.0 Build 186)  -->
  <defs>
    <style>
      .st0 {
        fill: #fff;
      }
    </style>
  </defs>
  <path class="st0" d="M851.44,421.84l-169.85-144.3c-4.25-3.6-10.1-4.65-15.35-2.74,0,0-85.88,31.33-86.04,31.4-14.18-67.81-6.36-120.02,8.16-142.28,4.61-7.07,9.81-11.2,15.46-12.28,27.96-5.44,56.37,23.24,75.99,76.48,2.96,8.04,11.86,12.16,19.9,9.19,8.03-2.96,12.14-11.87,9.18-19.9-25.3-68.7-66.76-104.58-110.9-96.22-14.03,2.69-26.33,11.61-35.58,25.78-23.08,35.38-27.21,101.9-10.78,173.59,11.24,49.06,29.6,90.78,51.1,120.06-10.13,26.46-3.41,58.37,20.09,78.35,33.42,28.38,83.73,20.05,106.33-19.06,12.98-22.46,12.03-51.26-2.46-72.77-24.82-36.84-74.15-41.37-105.02-13.91-12.85-20.08-24.95-46.48-34.01-77.27.73-.08,29.06-10.28,51.96-18.55,17.81-6.44,37.7-2.83,52.13,9.43l109.32,92.88c14.48,12.3,21.24,31.43,17.7,50.1l-22.59,119.07-242.96,285.98c-28.62,33.68-79.31,37.81-113,9.18l-148.32-126.01c-33.74-28.66-37.85-79.25-9.19-112.99l245.61-289.1c5.54-6.53,4.75-16.3-1.77-21.85-6.53-5.53-16.31-4.74-21.84,1.77l-245.61,289.11c-39.78,46.8-34.1,116.9,12.74,156.68l148.32,126.02c46.82,39.74,117.08,33.88,156.68-12.74l245.61-289.1c1.74-2.04,2.92-4.51,3.42-7.15l30.77-162.15c1.04-5.48-.94-11.09-5.19-14.7ZM699.33,442.17c8.96,11.74,10.33,28.29,3.34,41.31-12.3,22.91-41.35,27.34-59.78,11.67-7.8-6.62-12.6-15.85-13.55-26.02,13.7,10.98,28.03,15.39,41.91,16.98,14.46,1.65,22.95-10.58,21.34-18.99-1.61-8.42-9.59-12.13-18.14-12.31-14.61-.3-26.93-5.23-33.77-16.96,16.34-16.21,43.79-15.13,58.65,4.33Z"/>
  <g>
    <path class="st0" d="M453.15,654.79c-28.59,0-51.85-23.26-51.85-51.84s23.26-51.85,51.85-51.85,51.85,23.26,51.85,51.85-23.26,51.84-51.85,51.84ZM453.15,582.1c-11.5,0-20.85,9.35-20.85,20.85s9.36,20.84,20.85,20.84,20.85-9.35,20.85-20.84-9.36-20.85-20.85-20.85Z"/>
    <path class="st0" d="M586.43,757.78c-28.59,0-51.85-23.26-51.85-51.85s23.26-51.84,51.85-51.84,51.84,23.26,51.84,51.84-23.26,51.85-51.84,51.85ZM586.43,685.09c-11.5,0-20.85,9.35-20.85,20.84s9.36,20.86,20.85,20.86,20.85-9.35,20.85-20.86-9.35-20.84-20.85-20.84Z"/>
    <path class="st0" d="M417.58,746.78c-5.83-6.27-5.48-16.07.78-21.9l175.68-163.56c6.26-5.85,16.07-5.49,21.9.78,5.83,6.27,5.48,16.07-.78,21.9l-175.68,163.56c-6.28,5.86-16.1,5.46-21.9-.78Z"/>
  </g>
  <g>
    <path class="st0" d="M322.36,434.86l-80.26-55.7c-7.03-4.88-8.78-14.54-3.89-21.57,4.88-7.03,14.54-8.76,21.57-3.89l80.25,55.7c7.03,4.88,8.78,14.54,3.89,21.57-4.87,7.03-14.53,8.77-21.57,3.89Z"/>
    <path class="st0" d="M362.21,368.87l-55.59-94.96c-4.33-7.38-1.84-16.88,5.54-21.21,7.38-4.31,16.88-1.84,21.2,5.55l55.59,94.96c4.33,7.39,1.84,16.88-5.54,21.21-7.41,4.32-16.89,1.82-21.2-5.55Z"/>
    <path class="st0" d="M286.3,501.55l-108.46-18.56c-8.43-1.44-14.1-9.45-12.66-17.89,1.44-8.44,9.43-14.14,17.89-12.66l108.46,18.56c8.43,1.44,14.1,9.45,12.66,17.89-1.45,8.47-9.49,14.1-17.89,12.66Z"/>
  </g>
  <g>
    <path class="st0" d="M810.58,862l-67.74-57.21c-6.54-5.53-7.36-15.31-1.84-21.84,5.52-6.54,15.3-7.35,21.84-1.85l67.74,57.21c6.54,5.53,7.36,15.31,1.84,21.84-5.52,6.55-15.3,7.36-21.84,1.85Z"/>
    <path class="st0" d="M896.02,772.5l-99.1-23.07c-8.34-1.94-13.52-10.27-11.58-18.6,1.94-8.33,10.27-13.49,18.61-11.58l99.1,23.07c8.34,1.94,13.52,10.27,11.58,18.6-1.93,8.28-10.2,13.52-18.61,11.58Z"/>
    <path class="st0" d="M726.72,950.45l-39.04-93.96c-3.28-7.9.46-16.97,8.36-20.25,7.9-3.28,16.97.45,20.26,8.36l39.04,93.96c3.28,7.9-.46,16.97-8.36,20.25-7.92,3.29-16.98-.47-20.26-8.36Z"/>
  </g>
</svg>