<svg xmlns="http://www.w3.org/2000/svg" width="87.885" height="87.867" viewBox="0 0 87.885 87.867">
  <g id="noun_offers_1253176" transform="translate(-6.057 -6.066)">
    <path id="Path_301" data-name="Path 301" d="M93.5,48.931,81.511,36.938V19.98a1.5,1.5,0,0,0-1.5-1.5H63.052L51.061,6.488a1.543,1.543,0,0,0-2.121,0L36.948,18.48H19.989a1.5,1.5,0,0,0-1.5,1.5V36.938L6.5,48.931a1.5,1.5,0,0,0,0,2.121L18.489,63.044V80a1.5,1.5,0,0,0,1.5,1.5H36.948L48.939,93.494a1.5,1.5,0,0,0,2.122,0L63.052,81.5H80.011a1.5,1.5,0,0,0,1.5-1.5V63.044L93.5,51.052A1.5,1.5,0,0,0,93.5,48.931ZM78.95,61.362a1.5,1.5,0,0,0-.439,1.061V78.5H62.431a1.5,1.5,0,0,0-1.061.439L50,90.312,38.63,78.941a1.5,1.5,0,0,0-1.061-.439H21.489V62.423a1.5,1.5,0,0,0-.439-1.061L9.679,49.991,21.05,38.62a1.5,1.5,0,0,0,.439-1.061V21.48h16.08a1.5,1.5,0,0,0,1.061-.439L50,9.67,61.37,21.041a1.5,1.5,0,0,0,1.061.439h16.08V37.56a1.5,1.5,0,0,0,.439,1.061L90.321,49.992ZM64.938,36.554,33.23,61.054a1.5,1.5,0,1,0,1.834,2.374l31.708-24.5a1.5,1.5,0,0,0-1.834-2.374ZM43.274,44.016a7.213,7.213,0,1,0-5.1-2.113A7.159,7.159,0,0,0,43.274,44.016ZM40.3,33.826a4.213,4.213,0,1,1-1.233,2.979A4.185,4.185,0,0,1,40.3,33.826Zm16.43,22.141a7.214,7.214,0,1,0,5.1,2.114A7.159,7.159,0,0,0,56.726,55.967ZM59.7,66.156a4.213,4.213,0,1,1,1.233-2.979A4.185,4.185,0,0,1,59.7,66.156Z" fill="#6e6e6e"/>
  </g>
</svg>
