<svg xmlns="http://www.w3.org/2000/svg" width="36.52" height="36.52" viewBox="0 0 36.52 36.52">
  <g id="Group_44" data-name="Group 44" transform="translate(-46.204 -39.248)">
    <circle id="Ellipse_23" data-name="Ellipse 23" cx="18.26" cy="18.26" r="18.26" transform="translate(46.204 39.248)" fill="#f06c5b"/>
    <g id="Group_43" data-name="Group 43" transform="translate(53.61 45.568)">
      <g id="Group_25" data-name="Group 25" transform="translate(0 2.145)">
        <path id="Path_38" data-name="Path 38" d="M186.381,182.19l-2.657-.968c-.337-.123-.464.216-.542.474a3.074,3.074,0,0,1-.555-.559,2.813,2.813,0,0,0,.05-.317,4.423,4.423,0,0,0-.441-2.23,2.524,2.524,0,0,0-1.677-1.4c-.66-.155-1.342-.589-1.985-.169-.491-.578-1.086-1.072-1.591-1.641a1.659,1.659,0,0,0-.91-.565,1.34,1.34,0,0,0-.258-.025c-.931,0-1.729.946-2.37,1.706-.163.194-.318.377-.45.513l-2.641,2.73a.365.365,0,0,0-.068.408l.006.013-4.416,2.062a.84.84,0,0,0-.407,1.116l.076.164-.358.167a.69.69,0,0,0-.335.918l1.607,3.451a.686.686,0,0,0,.39.357c.02.008,2.019,1.992,4.947,4.9a1.063,1.063,0,0,0,.3.3c1.275,1.268,6.085,7.066,7.6,8.577,6.677-.6,12.335-6.975,13.714-13.4-1.011-1.013-5.677-4.985-6.817-6.124C186.457,182.515,186.571,182.259,186.381,182.19Z" transform="translate(-164.788 -174.792)" fill="#1d1d1b" opacity="0.14" style="mix-blend-mode: multiply;isolation: isolate"/>
      </g>
      <g id="Group_42" data-name="Group 42" transform="translate(0.11 0)">
        <g id="Group_33" data-name="Group 33" transform="translate(0 7.435)">
          <g id="Group_26" data-name="Group 26" transform="translate(0 3.343)">
            <path id="Path_39" data-name="Path 39" d="M168.744,317.948a.581.581,0,0,1-.527-.335l-1.608-3.451a.58.58,0,0,1,.281-.771l.688-.321a.254.254,0,0,1,.215.461l-.688.321a.071.071,0,0,0-.035.1l1.607,3.451a.072.072,0,0,0,.1.034l.688-.32a.254.254,0,0,1,.215.461l-.688.32A.577.577,0,0,1,168.744,317.948Z" transform="translate(-166.555 -313.046)" fill="#fff"/>
          </g>
          <g id="Group_31" data-name="Group 31" transform="translate(0.602)">
            <g id="Group_27" data-name="Group 27" transform="translate(3.965 6.54)">
              <path id="Path_40" data-name="Path 40" d="M242.918,371.287a.968.968,0,0,1-.877-.557l-2.331-5a.254.254,0,0,1,.461-.215l2.331,5a.458.458,0,0,0,.607.221l1.127-.525a.456.456,0,0,0,.221-.606l-2.332-5.007a.254.254,0,0,1,.461-.215l2.332,5.007a.964.964,0,0,1-.467,1.282l-1.127.525A.961.961,0,0,1,242.918,371.287Z" transform="translate(-239.686 -364.236)" fill="#fff"/>
            </g>
            <g id="Group_28" data-name="Group 28" transform="translate(3.965 6.54)">
              <path id="Path_41" data-name="Path 41" d="M239.94,365.871a.254.254,0,0,1-.108-.485l2.414-1.127a.254.254,0,1,1,.215.461l-2.414,1.127A.253.253,0,0,1,239.94,365.871Z" transform="translate(-239.685 -364.235)" fill="#fff"/>
            </g>
            <g id="Group_29" data-name="Group 29">
              <path id="Path_42" data-name="Path 42" d="M182.831,266.56a.254.254,0,0,1-.108-.485l1.159-.541-2.53-5.43-4.518,2.11a.221.221,0,0,0-.107.293l.23.494a.254.254,0,0,1-.461.215l-.23-.494a.73.73,0,0,1,.354-.969l4.748-2.218a.255.255,0,0,1,.338.123l2.744,5.891a.254.254,0,0,1-.123.338l-1.389.649A.253.253,0,0,1,182.831,266.56Z" transform="translate(-176.198 -259.511)" fill="#fff"/>
            </g>
            <g id="Group_30" data-name="Group 30" transform="translate(2.157 7.385)">
              <path id="Path_43" data-name="Path 43" d="M211.66,379.046a.733.733,0,0,1-.662-.422l-.23-.494a.254.254,0,1,1,.461-.215l.23.494a.222.222,0,0,0,.125.114.219.219,0,0,0,.169-.007l.946-.442a.254.254,0,1,1,.215.461l-.946.442A.726.726,0,0,1,211.66,379.046Z" transform="translate(-210.744 -377.769)" fill="#fff"/>
            </g>
          </g>
          <g id="Group_32" data-name="Group 32" transform="translate(0.877 3.343)">
            <path id="Path_44" data-name="Path 44" d="M182.733,317.6a.254.254,0,0,1-.231-.147l-1.883-4.042a.254.254,0,1,1,.461-.215l1.883,4.042a.254.254,0,0,1-.23.362Z" transform="translate(-180.596 -313.046)" fill="#fff"/>
          </g>
        </g>
        <g id="Group_34" data-name="Group 34" transform="translate(5.464 2.254)">
          <path id="Path_45" data-name="Path 45" d="M258.251,188.643c-.972,0-1.051-.17-1.114-.306l-3.068-6.587a.254.254,0,0,1,.048-.284l2.641-2.73c.135-.139.291-.324.455-.519.69-.818,1.549-1.836,2.522-1.643h0a1.552,1.552,0,0,1,.849.53c.74.832,4.576,8.284,4.5,9.546-.064,1.038-1.386,1.339-2.021,1.484-.28.064-1.656.268-2.974.4C259.26,188.611,258.672,188.643,258.251,188.643Zm-.674-.565c.558.23,4.608-.266,5.37-.44.554-.126,1.586-.361,1.626-1.019a19.35,19.35,0,0,0-1.864-4.626,34.646,34.646,0,0,0-2.506-4.551,1.064,1.064,0,0,0-.567-.369h0c-.68-.133-1.463.794-2.035,1.472-.171.2-.332.393-.478.545l-2.52,2.6Z" transform="translate(-254.045 -176.549)" fill="#fff"/>
        </g>
        <g id="Group_37" data-name="Group 37" transform="translate(14.01 3.86)">
          <g id="Group_35" data-name="Group 35" transform="translate(2.414 5.292)">
            <path id="Path_46" data-name="Path 46" d="M429.813,287.516a.251.251,0,0,1-.181-.075.236.236,0,0,1-.054-.081.251.251,0,0,1-.02-.1.254.254,0,0,1,.434-.18.257.257,0,0,1,.075.18.247.247,0,0,1-.019.1.217.217,0,0,1-.056.081.242.242,0,0,1-.178.075Z" transform="translate(-429.557 -287.011)" fill="#fff"/>
          </g>
          <g id="Group_36" data-name="Group 36">
            <path id="Path_47" data-name="Path 47" d="M393.574,208.062a.254.254,0,0,1-.1-.489l.014-.005a1.226,1.226,0,0,0,.569-1.051,4.152,4.152,0,0,0-1.6-3.433,1.217,1.217,0,0,0-1.171-.24l-.007,0a.254.254,0,0,1-.241-.448.217.217,0,0,1,.04-.02,1.681,1.681,0,0,1,1.668.285,4.655,4.655,0,0,1,1.817,3.9,1.686,1.686,0,0,1-.869,1.468l-.033.013A.252.252,0,0,1,393.574,208.062Z" transform="translate(-390.905 -202.264)" fill="#fff"/>
          </g>
        </g>
        <g id="Group_41" data-name="Group 41" transform="translate(15.65)">
          <g id="Group_38" data-name="Group 38">
            <path id="Path_48" data-name="Path 48" d="M417.41,143.613a.254.254,0,0,1-.239-.341l.968-2.657a.254.254,0,0,1,.478.174l-.968,2.657A.254.254,0,0,1,417.41,143.613Z" transform="translate(-417.155 -140.448)" fill="#fff"/>
          </g>
          <g id="Group_39" data-name="Group 39" transform="translate(2.798 8.663)">
            <path id="Path_49" data-name="Path 49" d="M464.866,280.649a.255.255,0,0,1-.087-.015l-2.657-.968a.254.254,0,0,1,.174-.478l2.657.968a.254.254,0,0,1-.087.493Z" transform="translate(-461.955 -279.172)" fill="#fff"/>
          </g>
          <g id="Group_40" data-name="Group 40" transform="translate(2.444 3.979)">
            <path id="Path_50" data-name="Path 50" d="M456.543,205.862a.254.254,0,0,1-.108-.485L459,204.182a.254.254,0,0,1,.215.461l-2.563,1.194A.253.253,0,0,1,456.543,205.862Z" transform="translate(-456.289 -204.158)" fill="#fff"/>
          </g>
        </g>
      </g>
    </g>
  </g>
</svg>
