<svg xmlns="http://www.w3.org/2000/svg" width="23.505" height="20.504" viewBox="0 0 23.505 20.504">
  <g id="partly-sunny-outline-w" transform="translate(-15.5 -47.5)">
    <path id="Path_254" data-name="Path 254" d="M19.5,182.135a.753.753,0,0,0,.628-.621c.567-3.443,3.077-5.514,6-5.514a5.592,5.592,0,0,1,5.261,3.645.743.743,0,0,0,.572.463c2.344.382,4.295,1.948,4.295,4.669a4.8,4.8,0,0,1-5.064,4.726H20.22c-2.321,0-4.22-1.158-4.22-3.713a3.761,3.761,0,0,1,3.5-3.655Z" transform="translate(0 -121.999)" fill="none" stroke="#fff" stroke-linejoin="round" stroke-width="1"/>
    <path id="Path_255" data-name="Path 255" d="M230.453,58.474a3.751,3.751,0,1,0-5.793-4.313m9.506,1.341h1.5m-7.5-7.5v1.5m-5.3.7,1.061,1.061m9.548-1.061-1.061,1.061" transform="translate(-197.161)" fill="none" stroke="#fff" stroke-linecap="round" stroke-linejoin="round" stroke-width="1"/>
  </g>
</svg>
