<svg xmlns="http://www.w3.org/2000/svg" width="49.288" height="33.192" viewBox="0 0 49.288 33.192">
  <g id="partly-sunny-outline" transform="translate(-15.5 -61.808)">
    <path id="Path_254" data-name="Path 254" d="M24.34,190.626a1.8,1.8,0,0,0,1.5-1.481C27.188,180.937,33.173,176,40.144,176a13.332,13.332,0,0,1,12.542,8.69,1.771,1.771,0,0,0,1.364,1.1c5.589.911,10.239,4.643,10.239,11.132,0,6.64-5.432,11.267-12.072,11.267H26.06c-5.533,0-10.06-2.761-10.06-8.853,0-5.418,4.322-8.073,8.34-8.713Z" transform="translate(0 -113.692)" fill="none" stroke="#000" stroke-linejoin="round" stroke-width="1"/>
  </g>
</svg>
