<svg xmlns="http://www.w3.org/2000/svg" width="54.654" height="47.5" viewBox="0 0 54.654 47.5">
  <g id="partly-sunny-outline" transform="translate(-15.5 -47.5)">
    <path id="Path_254" data-name="Path 254" d="M24.34,190.626a1.8,1.8,0,0,0,1.5-1.481C27.188,180.937,33.173,176,40.144,176a13.332,13.332,0,0,1,12.542,8.69,1.771,1.771,0,0,0,1.364,1.1c5.589.911,10.239,4.643,10.239,11.132,0,6.64-5.432,11.267-12.072,11.267H26.06c-5.533,0-10.06-2.761-10.06-8.853,0-5.418,4.322-8.073,8.34-8.713Z" transform="translate(0 -113.692)" fill="none" stroke="#000" stroke-linejoin="round" stroke-width="1"/>
    <path id="Path_255" data-name="Path 255" d="M240.961,72.971a8.942,8.942,0,1,0-13.81-10.284m22.663,3.2h3.577M235.507,48v3.577M222.86,53.238l2.53,2.53m22.764-2.53-2.53,2.53" transform="translate(-183.737)" fill="none" stroke="#000" stroke-linecap="round" stroke-linejoin="round" stroke-width="1"/>
  </g>
</svg>
