<svg xmlns="http://www.w3.org/2000/svg" width="20.705" height="14.136" viewBox="0 0 20.705 14.136">
  <g id="partly-sunny-outline-w" transform="translate(-15.5 -61.808)">
    <path id="Path_254" data-name="Path 254" d="M19.4,181.968a.733.733,0,0,0,.611-.6A5.957,5.957,0,0,1,25.852,176a5.44,5.44,0,0,1,5.118,3.546.723.723,0,0,0,.556.45c2.281.372,4.178,1.895,4.178,4.543a4.67,4.67,0,0,1-4.926,4.6H20.105c-2.258,0-4.105-1.127-4.105-3.613A3.659,3.659,0,0,1,19.4,181.968Z" transform="translate(0 -113.692)" fill="none" stroke="#fff" stroke-linejoin="round" stroke-width="1"/>
  </g>
</svg>
