<svg width="21" height="27" viewBox="0 0 21 27" fill="none" xmlns="http://www.w3.org/2000/svg">
<path d="M10.1667 11.6193C11.3157 11.6193 12.4389 11.2786 13.3943 10.6402C14.3496 10.0019 15.0943 9.09453 15.534 8.03298C15.9737 6.97143 16.0887 5.80333 15.8646 4.67639C15.6404 3.54945 15.0871 2.51429 14.2746 1.70182C13.4621 0.88934 12.427 0.336037 11.3 0.111875C10.1731 -0.112287 9.00501 0.0027613 7.94346 0.44247C6.88191 0.88218 5.97458 1.6268 5.33623 2.58217C4.69787 3.53754 4.35714 4.66076 4.35714 5.80977C4.35714 7.35055 4.96922 8.82823 6.05871 9.91773C7.14821 11.0072 8.62589 11.6193 10.1667 11.6193ZM10.1667 2.90501C10.7412 2.90501 11.3028 3.07537 11.7805 3.39455C12.2582 3.71373 12.6305 4.16739 12.8503 4.69817C13.0702 5.22894 13.1277 5.81299 13.0156 6.37646C12.9035 6.93993 12.6269 7.45751 12.2206 7.86375C11.8144 8.26999 11.2968 8.54664 10.7334 8.65872C10.1699 8.7708 9.58584 8.71328 9.05506 8.49342C8.52429 8.27357 8.07063 7.90126 7.75145 7.42357C7.43227 6.94588 7.26191 6.38428 7.26191 5.80977C7.26191 5.03938 7.56794 4.30054 8.11269 3.75579C8.65744 3.21105 9.39628 2.90501 10.1667 2.90501ZM10.1667 14.5241C7.4703 14.5241 4.88437 15.5952 2.97775 17.5018C1.07113 19.4084 0 21.9944 0 24.6907C0 25.0759 0.153019 25.4453 0.425393 25.7177C0.697767 25.9901 1.06719 26.1431 1.45238 26.1431C1.83758 26.1431 2.207 25.9901 2.47937 25.7177C2.75174 25.4453 2.90476 25.0759 2.90476 24.6907C2.90476 22.7647 3.66985 20.9177 5.03172 19.5558C6.3936 18.1939 8.24069 17.4288 10.1667 17.4288C12.0926 17.4288 13.9397 18.1939 15.3016 19.5558C16.6635 20.9177 17.4286 22.7647 17.4286 24.6907C17.4286 25.0759 17.5816 25.4453 17.854 25.7177C18.1263 25.9901 18.4958 26.1431 18.881 26.1431C19.2661 26.1431 19.6356 25.9901 19.9079 25.7177C20.1803 25.4453 20.3333 25.0759 20.3333 24.6907C20.3333 21.9944 19.2622 19.4084 17.3556 17.5018C15.449 15.5952 12.863 14.5241 10.1667 14.5241Z" fill="#DE6D75"/>
</svg>
