<svg width="26" height="26" viewBox="0 0 26 26" fill="none" xmlns="http://www.w3.org/2000/svg">
<path d="M22.9915 7.79483V21.5439C22.9915 22.1761 22.9839 22.8108 22.9915 23.4431V23.4685L24.261 22.1989H2.65866C2.36667 22.1989 2.07467 22.1964 1.78268 22.1989H1.7446L3.01413 23.4685V9.71944C3.01413 9.08721 3.02174 8.45245 3.01413 7.82022V7.79483L1.7446 9.06436H23.3469C23.6389 9.06436 23.9309 9.0669 24.2229 9.06436H24.261C24.586 9.06436 24.9288 8.92217 25.1598 8.69366C25.3807 8.47276 25.5458 8.11221 25.5305 7.79483C25.5153 7.46729 25.4087 7.12706 25.1598 6.896C24.911 6.66749 24.6063 6.5253 24.261 6.5253H2.65866C2.36667 6.5253 2.07467 6.52276 1.78268 6.5253H1.7446C1.05905 6.5253 0.475065 7.10674 0.475065 7.79483V21.5439C0.475065 22.1761 0.467448 22.8108 0.475065 23.4431V23.4685C0.475065 24.154 1.05651 24.738 1.7446 24.738H23.3469C23.6389 24.738 23.9309 24.7405 24.2229 24.738H24.261C24.9466 24.738 25.5305 24.1565 25.5305 23.4685V9.71944C25.5305 9.08721 25.5382 8.45245 25.5305 7.82022V7.79483C25.5305 7.46983 25.3883 7.12706 25.1598 6.896C24.9389 6.6751 24.5784 6.51006 24.261 6.5253C23.9335 6.54053 23.5932 6.64717 23.3622 6.896C23.1362 7.14737 22.9915 7.45206 22.9915 7.79483Z" fill="#DE6D75"/>
<path d="M24.2607 6.52794H2.65833C2.36634 6.52794 2.07435 6.5254 1.78235 6.52794H1.74427C2.04388 7.25158 2.34349 7.97267 2.6431 8.6963L4.31888 6.91388C5.21009 5.96681 6.1013 5.02228 6.98997 4.07521C7.1931 3.85939 7.39876 3.64103 7.60189 3.42521C7.30228 3.54962 7.00267 3.67404 6.70306 3.79591H17.7581C18.2659 3.79591 18.7738 3.80353 19.2816 3.79591H19.3044C19.0048 3.6715 18.7052 3.54708 18.4056 3.42521L20.0814 5.20763C20.9726 6.1547 21.8638 7.09923 22.7525 8.0463C22.9556 8.26212 23.1613 8.48048 23.3644 8.6963C23.5827 8.9299 23.9458 9.06701 24.2632 9.06701C24.5755 9.06701 24.9462 8.9299 25.162 8.6963C25.3829 8.45509 25.548 8.13771 25.5327 7.79747C25.5175 7.4547 25.3982 7.15255 25.162 6.89865C24.6568 6.3629 24.154 5.82716 23.6488 5.29142C22.788 4.37736 21.9298 3.46329 21.0691 2.55177C20.8126 2.27755 20.5536 2.00587 20.2972 1.73165C20.0357 1.45236 19.7107 1.26447 19.3019 1.25685H7.089C6.86048 1.25685 6.58372 1.23146 6.36536 1.30255C5.92864 1.44474 5.68743 1.75451 5.39036 2.06935C4.59056 2.9174 3.79329 3.76544 2.99349 4.61603C2.31302 5.33966 1.63255 6.06076 0.952081 6.78439C0.916534 6.82247 0.878448 6.8631 0.842902 6.90119C0.489972 7.27697 0.378253 7.81017 0.581378 8.28751C0.776886 8.74708 1.23138 9.06701 1.74173 9.06701H23.3441C23.6361 9.06701 23.9281 9.06954 24.2201 9.06701H24.2581C24.5831 9.06701 24.9259 8.92482 25.157 8.6963C25.3779 8.4754 25.5429 8.11486 25.5277 7.79747C25.5124 7.46994 25.4058 7.1297 25.157 6.89865C24.9107 6.67267 24.606 6.52794 24.2607 6.52794Z" fill="#DE6D75"/>
<path d="M14.534 7.79502V14.7571C15.1713 14.3915 15.8086 14.0259 16.4434 13.6603C15.6055 13.221 14.7676 12.7817 13.9271 12.3425C13.8205 12.2866 13.7139 12.2282 13.6047 12.1724C13.4066 12.0733 13.1908 11.987 12.9623 11.9972C12.7287 12.0073 12.5307 12.0632 12.3199 12.1698C12.3098 12.1749 12.2996 12.18 12.2895 12.1876C12.2336 12.2181 12.1752 12.246 12.1193 12.2765C11.6318 12.5329 11.1443 12.7868 10.6568 13.0433C10.2658 13.2489 9.8748 13.4546 9.48125 13.6577C10.1186 14.0233 10.7559 14.389 11.3906 14.7546V7.79248L10.1211 9.06201H15.801C16.126 9.06201 16.4688 8.91982 16.6998 8.69131C16.9207 8.47041 17.0857 8.10986 17.0705 7.79248C17.0553 7.46494 16.9486 7.12471 16.6998 6.89365C16.451 6.66514 16.1463 6.52295 15.801 6.52295H10.1211C9.43555 6.52295 8.85156 7.10439 8.85156 7.79248V14.7546C8.85156 15.2015 9.09531 15.6255 9.48125 15.8515C9.8875 16.0901 10.3547 16.0647 10.7635 15.8515C11.5912 15.4173 12.4215 14.9831 13.2492 14.5489C13.3686 14.488 13.4854 14.4245 13.6047 14.3636H12.3225C13.1502 14.7978 13.9805 15.2319 14.8082 15.6661C14.9275 15.727 15.0443 15.7905 15.1637 15.8515C15.5699 16.0647 16.0396 16.0901 16.4459 15.8515C16.8318 15.6255 17.0756 15.204 17.0756 14.7546V7.79248C17.0756 7.46748 16.9334 7.12471 16.7049 6.89365C16.484 6.67275 16.1234 6.50771 15.8061 6.52295C15.4785 6.53818 15.1383 6.64482 14.9072 6.89365C14.6787 7.14756 14.534 7.45224 14.534 7.79502Z" fill="#DE6D75"/>
</svg>
