<?xml version="1.0" encoding="UTF-8"?>
<svg id="Layer_1" xmlns="http://www.w3.org/2000/svg" version="1.1" viewBox="0 0 1080 1080">
  <!-- Generator: Adobe Illustrator 29.0.0, SVG Export Plug-In . SVG Version: 2.1.0 Build 186)  -->
  <defs>
    <style>
      .st0 {
        fill: #fff;
      }
    </style>
  </defs>
  <path class="st0" d="M764.51,418.18c0-8.77-7.08-15.85-15.85-15.85h-467.72c-8.77,0-15.85,7.08-15.85,15.85s7.08,15.85,15.85,15.85h467.8c8.7-.08,15.78-7.16,15.78-15.85ZM838.46,596.48v-241.71c0-49.48-40.25-89.8-89.8-89.8h-112.43v-59.64c0-8.77-7.08-15.85-15.85-15.85s-15.85,7.08-15.85,15.85v59.64h-179.53v-59.64c0-8.77-7.08-15.85-15.85-15.85s-15.85,7.08-15.85,15.85v59.64h-112.35c-49.48,0-89.8,40.25-89.8,89.8v392.69c0,49.48,40.25,89.8,89.8,89.8h311.12c31.4,32.78,75.57,53.25,124.43,53.25,95.04,0,172.37-77.34,172.37-172.37-.08-47.48-19.32-90.5-50.4-121.66ZM280.94,805.49c-32.01,0-58.1-26.09-58.1-58.1v-392.61c0-32.01,26.09-58.1,58.1-58.1h112.43v6.77c0,8.77,7.08,15.85,15.85,15.85s15.85-7.08,15.85-15.85v-6.77h179.53v6.77c0,8.77,7.08,15.85,15.85,15.85s15.85-7.08,15.85-15.85v-6.77h112.43c32.01,0,58.1,26.09,58.1,58.1v216.55c-26.32-16.24-57.25-25.63-90.34-25.63-95.04,0-172.37,77.34-172.37,172.37,0,31.86,8.77,61.79,23.93,87.42h-287.11ZM716.42,859.66c-78.11,0-141.59-63.49-141.59-141.59s63.49-141.59,141.59-141.59,141.59,63.49,141.59,141.59-63.56,141.59-141.59,141.59ZM793.52,743.46h-87.19c-8.54,0-15.39-6.93-15.39-15.39v-91.57c0-8.46,6.85-15.39,15.39-15.39s15.39,6.93,15.39,15.39v76.18h71.8c8.54,0,15.39,6.93,15.39,15.39s-6.85,15.39-15.39,15.39Z"/>
</svg>