<?xml version="1.0" encoding="UTF-8"?>
<svg id="Layer_1" xmlns="http://www.w3.org/2000/svg" version="1.1" viewBox="0 0 1080 1080">
  <!-- Generator: Adobe Illustrator 29.0.0, SVG Export Plug-In . SVG Version: 2.1.0 Build 186)  -->
  <defs>
    <style>
      .st0 {
        fill: #fff;
      }
    </style>
  </defs>
  <path class="st0" d="M540.01,338.57c55.6,0,105.97,22.56,142.42,59.01,36.45,36.45,59.01,86.82,59.01,142.42s-22.56,105.97-59.01,142.42c-36.45,36.45-86.82,59.01-142.42,59.01s-105.97-22.56-142.42-59.01c-36.45-36.45-59.01-86.82-59.01-142.42s22.56-105.97,59.01-142.42c36.45-36.45,86.83-59.01,142.42-59.01h0ZM336.92,709.31c-32.96,32.96-65.91,65.91-98.87,98.87-9.69,9.7-9.69,25.45,0,35.15,9.7,9.69,25.45,9.69,35.14,0,32.96-32.96,65.91-65.92,98.87-98.87,9.7-9.7,9.7-25.45,0-35.14-9.7-9.69-25.45-9.69-35.14,0h0ZM709.31,743.08c32.96,32.96,65.91,65.92,98.87,98.87,9.7,9.7,25.45,9.7,35.14,0,9.69-9.69,9.69-25.45,0-35.14-32.96-32.96-65.91-65.92-98.87-98.87-9.69-9.7-25.45-9.7-35.14,0-9.69,9.7-9.69,25.45,0,35.14h0ZM743.08,370.7c32.96-32.96,65.91-65.91,98.87-98.87,9.69-9.69,9.69-25.45,0-35.14-9.69-9.69-25.45-9.69-35.14,0-32.96,32.96-65.91,65.91-98.87,98.87-9.7,9.7-9.7,25.45,0,35.14,9.69,9.69,25.45,9.69,35.14,0h0ZM370.69,336.92c-32.96-32.96-65.91-65.91-98.87-98.87-9.69-9.69-25.44-9.69-35.14,0-9.69,9.7-9.69,25.45,0,35.14,32.96,32.96,65.92,65.91,98.87,98.87,9.69,9.7,25.45,9.7,35.14,0,9.69-9.7,9.69-25.45,0-35.14h0ZM276.67,516.12c13.72,0,24.85,11.13,24.85,24.86s-11.13,24.86-24.85,24.86h-139.82c-13.72,0-24.85-11.13-24.85-24.86s11.13-24.86,24.85-24.86h139.82ZM516.11,803.33c0-13.73,11.13-24.86,24.86-24.86s24.85,11.13,24.85,24.86v139.81c0,13.73-11.13,24.85-24.85,24.85s-24.86-11.13-24.86-24.85v-139.81h0ZM803.33,563.89c-13.72,0-24.85-11.13-24.85-24.86s11.13-24.86,24.85-24.86h139.82c13.72,0,24.85,11.13,24.85,24.86s-11.13,24.86-24.85,24.86h-139.82ZM563.88,276.67c0,13.72-11.13,24.86-24.86,24.86s-24.86-11.13-24.86-24.86v-139.82c0-13.72,11.13-24.86,24.86-24.86s24.86,11.13,24.86,24.86v139.82h0ZM647.3,432.72c-27.45-27.45-65.39-44.44-107.28-44.44s-79.84,16.99-107.28,44.44c-27.45,27.45-44.44,65.39-44.44,107.28s16.99,79.84,44.44,107.28c27.45,27.44,65.39,44.44,107.28,44.44s79.83-17,107.28-44.44c27.44-27.45,44.44-65.39,44.44-107.28s-17-79.83-44.44-107.28Z"/>
</svg>