<?xml version="1.0" standalone="no"?>
<!DOCTYPE svg PUBLIC "-//W3C//DTD SVG 20010904//EN"
 "http://www.w3.org/TR/2001/REC-SVG-20010904/DTD/svg10.dtd">
<svg version="1.0" xmlns="http://www.w3.org/2000/svg"
 width="296.000000pt" height="296.000000pt" viewBox="0 0 296.000000 296.000000"
 preserveAspectRatio="xMidYMid meet">

<g transform="translate(0.000000,296.000000) scale(0.100000,-0.100000)"
fill="#000000" stroke="none">
<path d="M799 2297 c-173 -89 -210 -313 -77 -454 l31 -32 -27 -31 c-29 -35
-34 -75 -10 -84 9 -3 37 -6 63 -6 106 0 300 -73 395 -149 32 -25 48 -31 90
-31 48 0 161 -22 172 -33 3 -2 -53 -164 -124 -358 l-129 -354 -119 -17 c-238
-33 -445 -125 -607 -268 -38 -34 -47 -48 -45 -69 l3 -26 791 -3 c700 -2 793 0
804 13 20 24 3 48 -75 110 -172 138 -354 214 -585 245 -47 6 -86 13 -87 14 -4
3 242 675 249 682 8 7 80 -30 148 -76 45 -31 67 -39 121 -44 132 -13 278 -67
380 -142 68 -49 89 -42 89 32 0 195 -118 458 -267 595 -66 60 -192 144 -241
160 -30 10 -33 14 -26 38 4 14 8 42 8 61 1 29 -3 36 -22 38 -19 3 -26 -5 -44
-46 l-21 -49 -76 19 c-54 14 -113 19 -208 20 l-131 0 -6 42 c-9 61 -60 142
-112 179 -62 44 -98 55 -176 56 -56 1 -76 -4 -129 -32z m229 -63 c35 -17 60
-40 81 -71 46 -69 54 -143 16 -143 -32 0 -170 -64 -239 -111 -80 -54 -90 -53
-134 11 -56 83 -50 189 16 263 72 79 166 98 260 51z m505 -270 c15 -9 10 -15
-40 -50 -99 -68 -170 -145 -279 -302 -1 -2 -33 14 -71 37 -81 48 -175 85 -262
102 l-64 12 39 34 c88 76 222 142 339 169 69 16 310 14 338 -2z m136 -116 c30
-93 41 -170 41 -284 0 -130 -3 -140 -39 -115 -82 58 -282 131 -358 131 -31 0
-29 10 13 67 89 118 257 261 311 263 6 0 21 -28 32 -62z m129 11 c78 -44 205
-171 259 -256 49 -79 99 -210 109 -287 l7 -47 -64 35 c-68 37 -200 79 -284 90
l-50 7 4 132 c3 132 -9 246 -35 318 -7 22 -10 39 -6 39 4 0 31 -14 60 -31z
m-453 -1179 c39 -6 106 -19 150 -30 89 -23 301 -124 355 -170 l35 -29 -672 -1
c-370 0 -673 2 -673 4 0 2 26 21 57 43 209 146 502 218 748 183z"/>
</g>
</svg>
