<svg width="50" height="45" viewBox="0 0 50 45" fill="none" xmlns="http://www.w3.org/2000/svg">
<path d="M49.0724 15.2786C51.3332 26.9374 49.0964 32.1105 40.2614 33.6107C32.0606 35.0034 23.8794 33.9494 20.8271 25.7323C17.7748 17.5152 19.2696 12.4984 26.2414 7.0957C36.4205 -0.792147 47.2834 6.05484 49.0717 15.2786H49.0724Z" fill="#FFD848"/>
<path d="M16.9797 16.4306C18.0915 22.6264 16.7416 25.424 11.6921 26.3573C7.00441 27.2237 2.36481 26.7825 0.751294 22.4374C-0.862226 18.0922 0.0632102 15.3891 4.11084 12.3988C10.021 8.03255 16.1001 11.5295 16.9797 16.4314V16.4306Z" fill="#FFD848"/>
<path d="M22.828 32.9738C23.5619 37.0638 22.6707 38.9108 19.3374 39.5264C16.2428 40.0985 13.1803 39.807 12.1151 36.9388C11.0499 34.0706 11.6608 32.2862 14.333 30.3121C18.2342 27.4301 22.2469 29.7378 22.828 32.9738Z" fill="#FFD848"/>
<path d="M30.6145 44.6203C30.4988 44.6203 30.3866 44.5643 30.3175 44.4669L28.5911 42.0305C27.6911 40.7607 26.2815 40.0324 24.7233 40.0324C23.1651 40.0324 21.7555 40.7607 20.8555 42.0305L19.1291 44.4669C19.041 44.5912 18.8852 44.6472 18.7381 44.6079C18.591 44.5687 18.484 44.4422 18.4702 44.2903L18.1957 41.3182C18.0522 39.7692 17.1967 38.4347 15.8467 37.657C14.4975 36.8793 12.9117 36.8066 11.4962 37.4571L8.78104 38.7059C8.6427 38.7698 8.4796 38.7407 8.37183 38.6332C8.26407 38.5256 8.23495 38.3628 8.29902 38.2247L9.54994 35.5135C10.2016 34.1005 10.1288 32.5181 9.34971 31.1705C8.57062 29.8237 7.23378 28.9689 5.68215 28.8257L2.70486 28.5517C2.55341 28.5379 2.42672 28.431 2.38667 28.2842C2.34735 28.1374 2.40341 27.9818 2.52792 27.8939L4.96859 26.1705C6.24062 25.2721 6.9702 23.8649 6.9702 22.3094C6.9702 20.754 6.24062 19.3468 4.96859 18.4484L2.52792 16.725C2.40341 16.637 2.34735 16.4815 2.38667 16.3347C2.42599 16.1878 2.55268 16.081 2.70486 16.0672L5.68215 15.7932C7.23378 15.65 8.57062 14.7959 9.34971 13.4483C10.1288 12.1015 10.2016 10.5184 9.54994 9.10536L8.29902 6.39491C8.23568 6.2568 8.2648 6.09399 8.37183 5.98641C8.4796 5.87884 8.6427 5.84977 8.78104 5.91373L11.4962 7.16247C12.9117 7.813 14.4968 7.74032 15.8467 6.96258C17.196 6.18485 18.0522 4.85034 18.1957 3.30141L18.4702 0.32929C18.484 0.178104 18.591 0.0516313 18.7381 0.012381C18.8852 -0.0268692 19.041 0.0290987 19.1291 0.153391L20.8555 2.58981C21.7555 3.85963 23.1651 4.58794 24.7233 4.58794C26.2815 4.58794 27.6911 3.85963 28.5911 2.58981L30.3175 0.153391C30.4056 0.0290987 30.5614 -0.0268692 30.7085 0.012381C30.8555 0.0516313 30.9626 0.178104 30.9764 0.32929L31.2509 3.30141C31.3944 4.85034 32.2499 6.18485 33.5998 6.96258C34.949 7.74032 36.5349 7.813 37.9504 7.16247L40.6655 5.91373C40.8039 5.85049 40.967 5.87957 41.0747 5.98641C41.1825 6.09399 41.2116 6.2568 41.1475 6.39491L39.8966 9.10536C39.245 10.5184 39.3178 12.1007 40.0969 13.4483C40.876 14.7952 42.2128 15.65 43.7644 15.7932L46.7417 16.0672C46.8932 16.081 47.0199 16.1878 47.0599 16.3347C47.0992 16.4815 47.0432 16.637 46.9186 16.725L44.478 18.4484C43.2059 19.3468 42.4764 20.754 42.4764 22.3094C42.4764 23.8649 43.2059 25.2721 44.478 26.1705L46.9186 27.8939C47.0432 27.9818 47.0992 28.1374 47.0599 28.2842C47.0206 28.431 46.8939 28.5379 46.7417 28.5517L43.7644 28.8257C42.2128 28.9689 40.876 29.8229 40.0969 31.1705C39.3178 32.5174 39.245 34.1005 39.8966 35.5135L41.1475 38.2247C41.2109 38.3628 41.1818 38.5256 41.0747 38.6332C40.967 38.7407 40.8039 38.7698 40.6655 38.7059L37.9504 37.4571C36.5349 36.8066 34.9498 36.8793 33.5998 37.657C32.2506 38.4347 31.3944 39.7692 31.2509 41.3182L30.9764 44.2903C30.9626 44.4415 30.8555 44.568 30.7085 44.6079C30.6771 44.6159 30.6458 44.6203 30.6145 44.6203ZM13.4854 36.2905C14.4247 36.2905 15.3589 36.5376 16.2115 37.029C17.7683 37.9259 18.7556 39.4654 18.9209 41.252L19.1051 43.2451L20.2628 41.6111C21.3004 40.1465 22.927 39.3062 24.724 39.3062C26.521 39.3062 28.1477 40.1465 29.1852 41.6111L30.3429 43.2451L30.5272 41.252C30.6924 39.4654 31.6798 37.9259 33.2365 37.029C34.7932 36.1321 36.6223 36.0477 38.2547 36.7986L40.0758 37.6359L39.237 35.8173C38.4848 34.1877 38.5693 32.3619 39.4678 30.8078C40.3663 29.2538 41.9084 28.2682 43.6982 28.1032L45.6947 27.9193L44.0578 26.7636C42.5907 25.7278 41.749 24.104 41.749 22.3102C41.749 20.5163 42.5907 18.8925 44.0578 17.8567L45.6947 16.701L43.6982 16.5171C41.9084 16.3521 40.3663 15.3665 39.4678 13.8125C38.5693 12.2585 38.4848 10.4326 39.237 8.80298L40.0758 6.98511L38.2547 7.82245C36.6223 8.5733 34.7932 8.48898 33.2365 7.59204C31.6798 6.6951 30.6924 5.15562 30.5272 3.369L30.3429 1.37596L29.1852 3.00994C28.1477 4.47455 26.521 5.3148 24.724 5.3148C22.927 5.3148 21.3004 4.47455 20.2628 3.00994L19.1051 1.37596L18.9209 3.369C18.7556 5.15562 17.7683 6.6951 16.2115 7.59204C14.6548 8.48898 12.8258 8.5733 11.1933 7.82245L9.37227 6.98511L10.2111 8.80298C10.9632 10.4326 10.8788 12.2585 9.98026 13.8125C9.08176 15.3665 7.53959 16.3521 5.74986 16.5171L3.75336 16.701L5.39018 17.8567C6.85734 18.8925 7.69905 20.5163 7.69905 22.3102C7.69905 24.104 6.85734 25.7278 5.39018 26.7636L3.75336 27.9193L5.74986 28.1032C7.53959 28.2682 9.08176 29.2538 9.98026 30.8078C10.8788 32.3619 10.9632 34.1877 10.2111 35.8173L9.37227 37.6352L11.1933 36.7979C11.9316 36.4584 12.71 36.2898 13.4854 36.2898V36.2905Z" fill="black"/>
<path d="M24.724 37.7994C16.1686 37.7994 9.2077 30.8507 9.2077 22.3101C9.2077 13.7695 16.1686 6.8208 24.724 6.8208C33.2794 6.8208 40.2403 13.7695 40.2403 22.3101C40.2403 30.8507 33.2794 37.7994 24.724 37.7994ZM24.724 7.54693C16.569 7.54693 9.93511 14.17 9.93511 22.3101C9.93511 30.4502 16.5698 37.0733 24.724 37.0733C32.8782 37.0733 39.5129 30.4502 39.5129 22.3101C39.5129 14.17 32.8782 7.54693 24.724 7.54693Z" fill="black"/>
<path d="M24.724 34.7874C17.8323 34.7874 12.2251 29.1906 12.2251 22.3102C12.2251 15.4298 17.8316 9.83301 24.724 9.83301C31.6164 9.83301 37.223 15.4298 37.223 22.3102C37.223 29.1906 31.6164 34.7874 24.724 34.7874ZM24.724 10.5599C18.2328 10.5599 12.9525 15.831 12.9525 22.311C12.9525 28.7909 18.2328 34.062 24.724 34.062C31.2152 34.062 36.4956 28.7909 36.4956 22.311C36.4956 15.831 31.2152 10.5599 24.724 10.5599Z" fill="black"/>
</svg>
