<svg width="43" height="45" viewBox="0 0 43 45" fill="none" xmlns="http://www.w3.org/2000/svg">
<path d="M32.1516 22.6418C42.6832 28.1637 32.3897 41.2464 23.5546 42.7467C15.3538 44.1393 6.95854 41.3126 3.90625 33.0955C0.854693 24.8791 -2.61772 11.5086 7.76894 9.4341C20.4048 6.91046 23.8656 18.2981 32.1509 22.6418H32.1516Z" fill="#40DCDC"/>
<path d="M42.4647 10.9264C42.1538 15.3689 41.9703 17.2457 38.2649 18.0357C34.8253 18.7699 31.4388 18.075 30.4369 15.3776C29.435 12.6803 28.4236 8.24427 32.7902 7.2085C38.1025 5.94885 42.6584 8.15341 42.4647 10.9256V10.9264Z" fill="#40DCDC"/>
<path d="M19.4029 22.6722C19.2019 22.6722 19.0396 22.5094 19.0396 22.3095V8.69327C19.0396 8.49266 19.2027 8.33057 19.4029 8.33057C19.6031 8.33057 19.7662 8.49338 19.7662 8.69327V22.3095C19.7662 22.5101 19.6031 22.6722 19.4029 22.6722Z" fill="black"/>
<path d="M19.4029 13.7763C19.3272 13.7763 19.2514 13.753 19.1859 13.7043L14.9118 10.5272C14.7509 10.4073 14.7174 10.1798 14.8376 10.0192C14.9577 9.85854 15.1856 9.8251 15.3465 9.94503L19.6206 13.1221C19.7815 13.2421 19.815 13.4696 19.6949 13.6302C19.6235 13.7261 19.5136 13.7763 19.4029 13.7763Z" fill="black"/>
<path d="M19.4029 16.5274C19.3272 16.5274 19.2514 16.5041 19.1859 16.4554L16.3863 14.3744C16.2254 14.2545 16.1919 14.027 16.312 13.8663C16.4322 13.7057 16.6601 13.6723 16.821 13.7922L19.6206 15.8732C19.7815 15.9931 19.815 16.2206 19.6949 16.3813C19.6235 16.4772 19.5136 16.5274 19.4029 16.5274Z" fill="black"/>
<path d="M19.4029 19.2778C19.3272 19.2778 19.2514 19.2545 19.1859 19.2058L17.7857 18.1649C17.6248 18.045 17.5913 17.8175 17.7115 17.6569C17.8316 17.4962 18.0595 17.4628 18.2204 17.5827L19.6206 18.6236C19.7815 18.7435 19.815 18.971 19.6949 19.1317C19.6235 19.2276 19.5136 19.2778 19.4029 19.2778Z" fill="black"/>
<path d="M19.4036 13.7763C19.2929 13.7763 19.183 13.7254 19.1116 13.6302C18.9915 13.4696 19.025 13.2421 19.1859 13.1221L23.46 9.94503C23.6209 9.8251 23.8488 9.85854 23.9689 10.0192C24.0891 10.1798 24.0556 10.4073 23.8947 10.5272L19.6206 13.7043C19.5551 13.753 19.4793 13.7763 19.4036 13.7763Z" fill="black"/>
<path d="M19.4036 16.5274C19.2929 16.5274 19.183 16.4765 19.1116 16.3813C18.9915 16.2206 19.025 15.9931 19.1859 15.8732L21.9855 13.7922C22.1464 13.6723 22.3743 13.7057 22.4945 13.8663C22.6146 14.027 22.5811 14.2545 22.4202 14.3744L19.6206 16.4554C19.5551 16.5041 19.4793 16.5274 19.4036 16.5274Z" fill="black"/>
<path d="M19.4036 19.2778C19.2929 19.2778 19.183 19.2269 19.1116 19.1317C18.9915 18.971 19.025 18.7435 19.1859 18.6236L20.5861 17.5827C20.747 17.4628 20.9749 17.4962 21.095 17.6569C21.2152 17.8175 21.1817 18.045 21.0208 18.1649L19.6206 19.2058C19.5551 19.2545 19.4793 19.2778 19.4036 19.2778Z" fill="black"/>
<path d="M19.4029 9.45495C19.2573 9.45495 19.1247 9.36773 19.068 9.23398L17.2142 4.86921C17.1756 4.77835 17.1756 4.67659 17.2142 4.58574L19.068 0.220964C19.1247 0.0864959 19.2565 0 19.4029 0C19.5492 0 19.681 0.0872228 19.7378 0.220964L21.5916 4.58574C21.6302 4.67659 21.6302 4.77835 21.5916 4.86921L19.7378 9.23398C19.681 9.36845 19.5492 9.45495 19.4029 9.45495ZM17.9437 4.72675L19.4029 8.16187L20.862 4.72675L19.4029 1.29162L17.9437 4.72675Z" fill="black"/>
<path d="M19.4029 22.6721C19.341 22.6721 19.2784 22.6561 19.2216 22.6234L7.40926 15.8156C7.23524 15.7153 7.17553 15.4936 7.27601 15.3199C7.37649 15.1462 7.59857 15.0866 7.77259 15.1869L19.5849 21.9946C19.7589 22.0949 19.8186 22.3166 19.7182 22.4903C19.6512 22.6066 19.5289 22.6721 19.4029 22.6721Z" fill="black"/>
<path d="M6.79253 20.33C6.652 20.33 6.51803 20.2478 6.45832 20.1105C6.37895 19.9266 6.46415 19.7129 6.64836 19.6336L11.5413 17.5272C11.7256 17.448 11.9396 17.533 12.019 17.7169C12.0984 17.9008 12.0132 18.1145 11.829 18.1937L6.93597 20.3002C6.88937 20.3205 6.83986 20.33 6.7918 20.33H6.79253Z" fill="black"/>
<path d="M10.8664 20.9791C10.7259 20.9791 10.5919 20.897 10.5322 20.7596C10.4528 20.5757 10.538 20.362 10.7222 20.2828L13.9274 18.9032C14.1116 18.824 14.3257 18.909 14.4051 19.0929C14.4844 19.2768 14.3992 19.4905 14.215 19.5697L11.0098 20.9493C10.9632 20.9696 10.9137 20.9791 10.8657 20.9791H10.8664Z" fill="black"/>
<path d="M14.8558 21.6648C14.7152 21.6648 14.5813 21.5827 14.5216 21.4453C14.4422 21.2614 14.5274 21.0477 14.7116 20.9685L16.3142 20.2787C16.4984 20.1994 16.7125 20.2845 16.7918 20.4684C16.8712 20.6523 16.786 20.866 16.6018 20.9452L14.9992 21.635C14.9526 21.6553 14.9031 21.6648 14.855 21.6648H14.8558Z" fill="black"/>
<path d="M11.6855 18.2241C11.5035 18.2241 11.3462 18.0882 11.3251 17.9035L10.7055 12.62C10.6822 12.4209 10.8249 12.2406 11.0244 12.2173C11.2232 12.1941 11.4045 12.3365 11.4278 12.5357L12.0474 17.8192C12.0707 18.0184 11.928 18.1986 11.7285 18.2219C11.7139 18.2233 11.7001 18.2241 11.6855 18.2241Z" fill="black"/>
<path d="M14.0716 19.5996C13.8895 19.5996 13.7323 19.4637 13.7112 19.2791L13.3056 15.8178C13.2823 15.6186 13.425 15.4383 13.6245 15.4151C13.824 15.3918 14.0046 15.5343 14.0279 15.7334L14.4335 19.1947C14.4568 19.3939 14.314 19.5742 14.1145 19.5974C14.1 19.5989 14.0861 19.5996 14.0716 19.5996Z" fill="black"/>
<path d="M16.4576 20.9749C16.2756 20.9749 16.1183 20.839 16.0972 20.6544L15.8941 18.9237C15.8708 18.7246 16.0135 18.5443 16.213 18.521C16.4125 18.4978 16.5931 18.6402 16.6164 18.8394L16.8195 20.5701C16.8428 20.7692 16.7001 20.9495 16.5006 20.9727C16.486 20.9742 16.4722 20.9749 16.4576 20.9749Z" fill="black"/>
<path d="M7.93641 16.0635C7.92185 16.0635 7.90656 16.0628 7.892 16.0606L3.17813 15.4813C3.08056 15.4689 2.99173 15.418 2.93203 15.3395L0.0734183 11.5541C-0.0146846 11.4378 -0.0241502 11.28 0.0486621 11.1543C0.121474 11.0278 0.263458 10.9573 0.408355 10.9755L5.12222 11.5548C5.21979 11.5671 5.30862 11.618 5.36833 11.6965L8.22766 15.482C8.31577 15.5983 8.32523 15.756 8.25242 15.8818C8.18689 15.9952 8.06602 16.0635 7.93787 16.0635H7.93641ZM3.4206 14.7791L7.12965 15.2349L4.87903 12.2562L1.16924 11.8005L3.41987 14.7791H3.4206Z" fill="black"/>
<path d="M7.59129 29.4802C7.46532 29.4802 7.34373 29.4147 7.27601 29.2984C7.17553 29.1247 7.23524 28.903 7.40926 28.8027L19.2216 21.995C19.3956 21.8947 19.6177 21.9543 19.7182 22.128C19.8186 22.3017 19.7589 22.5234 19.5849 22.6237L7.77259 29.4315C7.71507 29.4642 7.65318 29.4802 7.59129 29.4802Z" fill="black"/>
<path d="M11.0666 32.4038C11.0528 32.4038 11.0382 32.403 11.0236 32.4016C10.8241 32.3783 10.6814 32.1981 10.7047 31.9989L11.3244 26.7154C11.3477 26.5162 11.529 26.3738 11.7277 26.397C11.9272 26.4203 12.07 26.6005 12.0467 26.7997L11.427 32.0832C11.4052 32.2678 11.2479 32.4038 11.0666 32.4038Z" fill="black"/>
<path d="M13.6667 29.206C13.6529 29.206 13.6383 29.2053 13.6238 29.2039C13.4243 29.1806 13.2816 29.0003 13.3049 28.8012L13.7104 25.3399C13.7337 25.1407 13.9143 24.9983 14.1138 25.0215C14.3133 25.0448 14.456 25.2251 14.4327 25.4242L14.0272 28.8855C14.0053 29.0701 13.848 29.206 13.6667 29.206Z" fill="black"/>
<path d="M16.2559 26.1004C16.2421 26.1004 16.2275 26.0997 16.213 26.0982C16.0135 26.075 15.8708 25.8947 15.8941 25.6955L16.0972 23.9649C16.1205 23.7657 16.3018 23.6233 16.5006 23.6465C16.7001 23.6698 16.8428 23.8501 16.8195 24.0492L16.6164 25.7799C16.5945 25.9645 16.4372 26.1004 16.2559 26.1004Z" fill="black"/>
<path d="M11.6855 27.12C11.6375 27.12 11.5887 27.1106 11.5413 27.0902L6.64836 24.9838C6.46415 24.9045 6.37895 24.6909 6.45832 24.507C6.53769 24.3231 6.75175 24.238 6.93597 24.3172L11.829 26.4237C12.0132 26.5029 12.0984 26.7166 12.019 26.9005C11.96 27.0379 11.826 27.12 11.6848 27.12H11.6855Z" fill="black"/>
<path d="M14.0716 25.7447C14.0235 25.7447 13.9747 25.7353 13.9274 25.7149L10.7222 24.3353C10.538 24.2561 10.4528 24.0424 10.5322 23.8585C10.6115 23.6746 10.8256 23.5896 11.0098 23.6688L14.215 25.0484C14.3992 25.1276 14.4844 25.3413 14.4051 25.5252C14.3461 25.6626 14.2121 25.7447 14.0708 25.7447H14.0716Z" fill="black"/>
<path d="M16.4584 24.3694C16.4103 24.3694 16.3615 24.3599 16.3149 24.3396L14.7123 23.6498C14.5281 23.5706 14.4429 23.3569 14.5223 23.173C14.6017 22.9891 14.8157 22.904 14.9999 22.9833L16.6025 23.6731C16.7867 23.7523 16.8719 23.966 16.7926 24.1499C16.7336 24.2872 16.5996 24.3694 16.4584 24.3694Z" fill="black"/>
<path d="M0.363211 33.6455C0.234333 33.6455 0.114193 33.5772 0.0486621 33.4638C-0.0241502 33.3373 -0.0146846 33.1803 0.0734183 33.064L2.93276 29.2786C2.99173 29.2001 3.08056 29.1492 3.17886 29.1368L7.89273 28.5575C8.03762 28.5393 8.17888 28.6098 8.25242 28.7363C8.32523 28.8628 8.31577 29.0198 8.22766 29.1361L5.36833 32.9216C5.30935 33.0001 5.22052 33.0509 5.12222 33.0633L0.408355 33.6426C0.393792 33.6448 0.378502 33.6455 0.363939 33.6455H0.363211ZM3.4206 29.839L1.16997 32.8176L4.87976 32.3619L7.13038 29.3832L3.42133 29.839H3.4206Z" fill="black"/>
<path d="M19.4029 36.2884C19.2019 36.2884 19.0396 36.1256 19.0396 35.9257V22.3095C19.0396 22.1089 19.2027 21.9468 19.4029 21.9468C19.6031 21.9468 19.7662 22.1096 19.7662 22.3095V35.9257C19.7662 36.1263 19.6031 36.2884 19.4029 36.2884Z" fill="black"/>
<path d="M23.6762 34.7455C23.6005 34.7455 23.5248 34.7223 23.4592 34.6736L19.1852 31.4965C19.0243 31.3766 18.9908 31.149 19.1109 30.9884C19.231 30.8278 19.4589 30.7943 19.6199 30.9143L23.8939 34.0914C24.0549 34.2113 24.0883 34.4388 23.9682 34.5994C23.8968 34.6954 23.7869 34.7455 23.6762 34.7455Z" fill="black"/>
<path d="M22.2025 30.8989C22.1268 30.8989 22.0511 30.8757 21.9855 30.827L19.1859 28.746C19.025 28.6261 18.9915 28.3986 19.1116 28.2379C19.2318 28.0773 19.4597 28.0439 19.6206 28.1638L22.4202 30.2448C22.5811 30.3647 22.6146 30.5922 22.4945 30.7528C22.4231 30.8488 22.3132 30.8989 22.2025 30.8989Z" fill="black"/>
<path d="M20.8023 27.1073C20.7266 27.1073 20.6509 27.0841 20.5853 27.0354L19.1852 25.9945C19.0243 25.8746 18.9908 25.6471 19.1109 25.4865C19.231 25.3258 19.4589 25.2924 19.6199 25.4123L21.02 26.4532C21.181 26.5731 21.2144 26.8006 21.0943 26.9612C21.0229 27.0572 20.913 27.1073 20.8023 27.1073Z" fill="black"/>
<path d="M15.1295 34.7455C15.0189 34.7455 14.9089 34.6947 14.8376 34.5994C14.7174 34.4388 14.7509 34.2113 14.9118 34.0914L19.1859 30.9143C19.3468 30.7943 19.5747 30.8278 19.6949 30.9884C19.815 31.149 19.7815 31.3766 19.6206 31.4965L15.3465 34.6736C15.281 34.7223 15.2053 34.7455 15.1295 34.7455Z" fill="black"/>
<path d="M16.6033 30.8989C16.4926 30.8989 16.3826 30.8481 16.3113 30.7528C16.1911 30.5922 16.2246 30.3647 16.3855 30.2448L19.1852 28.1638C19.3461 28.0439 19.574 28.0773 19.6941 28.2379C19.8143 28.3986 19.7808 28.6261 19.6199 28.746L16.8202 30.827C16.7547 30.8757 16.679 30.8989 16.6033 30.8989Z" fill="black"/>
<path d="M18.0034 27.1073C17.8928 27.1073 17.7828 27.0565 17.7115 26.9612C17.5913 26.8006 17.6248 26.5731 17.7857 26.4532L19.1859 25.4123C19.3468 25.2924 19.5747 25.3258 19.6949 25.4865C19.815 25.6471 19.7815 25.8746 19.6206 25.9945L18.2204 27.0354C18.1549 27.0841 18.0792 27.1073 18.0034 27.1073Z" fill="black"/>
<path d="M19.4029 44.619C19.2573 44.619 19.1247 44.5318 19.068 44.398L17.2142 40.0333C17.1756 39.9424 17.1756 39.8407 17.2142 39.7498L19.068 35.385C19.1247 35.2506 19.2565 35.1641 19.4029 35.1641C19.5492 35.1641 19.681 35.2513 19.7378 35.385L21.5916 39.7498C21.6302 39.8407 21.6302 39.9424 21.5916 40.0333L19.7378 44.398C19.681 44.5325 19.5492 44.619 19.4029 44.619ZM17.9437 39.8915L19.4029 43.3267L20.862 39.8915L19.4029 36.4564L17.9437 39.8915Z" fill="black"/>
<path d="M31.2152 29.4802C31.1533 29.4802 31.0907 29.4642 31.0339 29.4315L19.2216 22.6237C19.0476 22.5234 18.9879 22.3017 19.0883 22.128C19.1888 21.9543 19.4109 21.8947 19.5849 21.995L31.3973 28.8027C31.5713 28.903 31.631 29.1247 31.5305 29.2984C31.4635 29.4147 31.3412 29.4802 31.2152 29.4802Z" fill="black"/>
<path d="M27.1203 27.12C26.9797 27.12 26.8458 27.0379 26.786 26.9005C26.7067 26.7166 26.7919 26.5029 26.9761 26.4237L31.8691 24.3172C32.0533 24.238 32.2674 24.3231 32.3467 24.507C32.4261 24.6909 32.3409 24.9045 32.1567 24.9838L27.2637 27.0902C27.2171 27.1106 27.1676 27.12 27.1195 27.12H27.1203Z" fill="black"/>
<path d="M24.7342 25.7447C24.5937 25.7447 24.4597 25.6626 24.4 25.5252C24.3206 25.3413 24.4058 25.1276 24.59 25.0484L27.7952 23.6688C27.9795 23.5896 28.1935 23.6746 28.2729 23.8585C28.3523 24.0424 28.2671 24.2561 28.0828 24.3353L24.8777 25.7149C24.8311 25.7353 24.7815 25.7447 24.7335 25.7447H24.7342Z" fill="black"/>
<path d="M22.3481 24.3694C22.2076 24.3694 22.0736 24.2872 22.0139 24.1499C21.9346 23.966 22.0198 23.7523 22.204 23.6731L23.8066 22.9833C23.9908 22.904 24.2049 22.9891 24.2842 23.173C24.3636 23.3569 24.2784 23.5706 24.0942 23.6498L22.4916 24.3396C22.445 24.3599 22.3962 24.3694 22.3481 24.3694Z" fill="black"/>
<path d="M27.7392 32.4038C27.5571 32.4038 27.3999 32.2678 27.3787 32.0832L26.7591 26.7997C26.7358 26.6005 26.8785 26.4203 27.078 26.397C27.2775 26.3738 27.4581 26.5162 27.4814 26.7154L28.101 31.9989C28.1243 32.1981 27.9816 32.3783 27.7821 32.4016C27.7676 32.403 27.7537 32.4038 27.7392 32.4038Z" fill="black"/>
<path d="M25.139 29.206C24.957 29.206 24.7997 29.0701 24.7786 28.8855L24.3731 25.4242C24.3498 25.2251 24.4925 25.0448 24.692 25.0215C24.8915 24.9983 25.0721 25.1407 25.0953 25.3399L25.5009 28.8012C25.5242 29.0003 25.3815 29.1806 25.182 29.2039C25.1674 29.2053 25.1536 29.206 25.139 29.206Z" fill="black"/>
<path d="M22.5498 26.1004C22.3678 26.1004 22.2105 25.9645 22.1894 25.7799L21.9863 24.0492C21.963 23.8501 22.1057 23.6698 22.3052 23.6465C22.5047 23.6233 22.6853 23.7657 22.7086 23.9649L22.9117 25.6955C22.935 25.8947 22.7923 26.075 22.5928 26.0982C22.5782 26.0997 22.5644 26.1004 22.5498 26.1004Z" fill="black"/>
<path d="M38.4426 33.6455C38.428 33.6455 38.4127 33.6448 38.3981 33.6426L33.6843 33.0633C33.5867 33.0509 33.4979 33.0001 33.4382 32.9216L30.5788 29.1361C30.4907 29.0198 30.4813 28.8621 30.5541 28.7363C30.6269 28.6098 30.7681 28.5393 30.9138 28.5575L35.6276 29.1368C35.7252 29.1492 35.814 29.2001 35.8737 29.2786L38.7331 33.064C38.8212 33.1803 38.8306 33.3381 38.7578 33.4638C38.6923 33.5772 38.5714 33.6455 38.4433 33.6455H38.4426ZM33.9267 32.3619L37.6358 32.8176L35.3852 29.839L31.6761 29.3832L33.9267 32.3619Z" fill="black"/>
<path d="M19.4036 22.6721C19.2777 22.6721 19.1561 22.6066 19.0883 22.4903C18.9879 22.3166 19.0476 22.0949 19.2216 21.9946L31.0339 15.1869C31.2079 15.0866 31.43 15.1462 31.5305 15.3199C31.631 15.4936 31.5713 15.7153 31.3973 15.8156L19.5849 22.6234C19.5274 22.6561 19.4655 22.6721 19.4036 22.6721Z" fill="black"/>
<path d="M27.121 18.2241C27.1072 18.2241 27.0926 18.2233 27.078 18.2219C26.8785 18.1986 26.7358 18.0184 26.7591 17.8192L27.3787 12.5357C27.402 12.3365 27.5833 12.1941 27.7821 12.2173C27.9816 12.2406 28.1243 12.4209 28.101 12.62L27.4814 17.9035C27.4596 18.0882 27.3023 18.2241 27.121 18.2241Z" fill="black"/>
<path d="M24.7342 19.5996C24.7204 19.5996 24.7058 19.5989 24.6913 19.5974C24.4917 19.5742 24.349 19.3939 24.3723 19.1947L24.7779 15.7334C24.8012 15.5343 24.9818 15.3918 25.1813 15.4151C25.3808 15.4383 25.5235 15.6186 25.5002 15.8178L25.0946 19.2791C25.0728 19.4637 24.9155 19.5996 24.7342 19.5996Z" fill="black"/>
<path d="M22.3481 20.9749C22.3343 20.9749 22.3198 20.9742 22.3052 20.9727C22.1057 20.9495 21.963 20.7692 21.9863 20.5701L22.1894 18.8394C22.2127 18.6402 22.394 18.4978 22.5928 18.521C22.7923 18.5443 22.935 18.7246 22.9117 18.9237L22.7086 20.6544C22.6867 20.839 22.5295 20.9749 22.3481 20.9749Z" fill="black"/>
<path d="M32.0132 20.33C31.9652 20.33 31.9164 20.3205 31.8691 20.3002L26.9761 18.1937C26.7919 18.1145 26.7067 17.9008 26.786 17.7169C26.8654 17.533 27.0795 17.448 27.2637 17.5272L32.1567 19.6336C32.3409 19.7129 32.4261 19.9266 32.3467 20.1105C32.2877 20.2478 32.1538 20.33 32.0125 20.33H32.0132Z" fill="black"/>
<path d="M27.9394 20.9791C27.8913 20.9791 27.8426 20.9696 27.7952 20.9493L24.59 19.5697C24.4058 19.4905 24.3206 19.2768 24.4 19.0929C24.4794 18.909 24.6934 18.824 24.8777 18.9032L28.0828 20.2828C28.2671 20.362 28.3523 20.5757 28.2729 20.7596C28.2139 20.897 28.0799 20.9791 27.9387 20.9791H27.9394Z" fill="black"/>
<path d="M23.95 21.6648C23.902 21.6648 23.8532 21.6553 23.8058 21.635L22.2032 20.9452C22.019 20.866 21.9338 20.6523 22.0132 20.4684C22.0926 20.2845 22.3066 20.1994 22.4909 20.2787L24.0935 20.9685C24.2777 21.0477 24.3629 21.2614 24.2835 21.4453C24.2245 21.5827 24.0905 21.6648 23.9493 21.6648H23.95Z" fill="black"/>
<path d="M30.8694 16.0635C30.7405 16.0635 30.6203 15.9952 30.5548 15.8818C30.482 15.7553 30.4915 15.5983 30.5796 15.482L33.4389 11.6965C33.4979 11.618 33.5867 11.5671 33.685 11.5548L38.3989 10.9755C38.5438 10.9573 38.685 11.0278 38.7586 11.1543C38.8314 11.2808 38.8219 11.4378 38.7338 11.5541L35.8745 15.3395C35.8155 15.418 35.7267 15.4689 35.6284 15.4813L30.9145 16.0606C30.8999 16.0628 30.8847 16.0635 30.8701 16.0635H30.8694ZM33.9267 12.2569L31.6761 15.2356L35.3852 14.7799L37.6358 11.8012L33.9267 12.2569Z" fill="black"/>
</svg>
