<?xml version="1.0" encoding="UTF-8"?>
<svg id="Layer_1" xmlns="http://www.w3.org/2000/svg" version="1.1" viewBox="0 0 1080 1080">
  <!-- Generator: Adobe Illustrator 29.0.0, SVG Export Plug-In . SVG Version: 2.1.0 Build 186)  -->
  <defs>
    <style>
      .st0 {
        fill: #fff;
      }
    </style>
  </defs>
  <g>
    <path class="st0" d="M515.65,607.08c6.26-10.9,20.17-14.65,31.07-8.39,10.9,6.26,14.65,20.17,8.39,31.07l-181.18,313.83c-6.26,10.9-20.17,14.65-31.07,8.39-10.9-6.26-14.65-20.18-8.39-31.07l181.18-313.83Z"/>
    <path class="st0" d="M443.24,745.72c12.16-3.25,24.7,3.99,27.95,16.16,3.25,12.16-3.99,24.69-16.16,27.95l-124.2,33.27c-12.16,3.25-24.69-3.99-27.95-16.16-3.25-12.17,4-24.7,16.16-27.95l124.2-33.27Z"/>
    <path class="st0" d="M427.1,773.68c-3.25-12.16,3.99-24.7,16.16-27.95,12.17-3.25,24.7,3.99,27.95,16.16l33.27,124.18c3.25,12.16-3.99,24.7-16.16,27.95-12.17,3.25-24.7-3.99-27.95-16.16l-33.27-124.19Z"/>
    <path class="st0" d="M705.54,626.59c-8.92-8.91-8.92-23.4,0-32.31,8.91-8.91,23.4-8.91,32.31,0l90.91,90.92c8.92,8.91,8.92,23.4,0,32.31-8.91,8.91-23.4,8.91-32.31,0l-90.91-90.92Z"/>
    <path class="st0" d="M911.59,587.67c12.57,0,22.76,10.2,22.76,22.76s-10.19,22.76-22.76,22.76H168.39c-12.57-.01-22.76-10.21-22.76-22.78s10.2-22.76,22.76-22.76h743.2Z"/>
    <path class="st0" d="M342.14,594.27c8.92-8.91,23.4-8.91,32.31,0,8.92,8.92,8.92,23.4,0,32.31l-90.91,90.92c-8.92,8.91-23.4,8.91-32.31,0-8.92-8.92-8.92-23.4,0-32.31l90.91-90.92Z"/>
    <path class="st0" d="M524.25,628.68c-6.26-10.9-2.5-24.81,8.39-31.07,10.9-6.26,24.81-2.5,31.07,8.4l181.8,314.9c6.26,10.9,2.5,24.81-8.39,31.07-10.9,6.26-24.81,2.5-31.07-8.39l-181.8-314.9Z"/>
    <path class="st0" d="M624.96,789.83c-12.16-3.25-19.41-15.78-16.16-27.95,3.25-12.17,15.78-19.41,27.95-16.16l124.2,33.27c12.17,3.25,19.41,15.78,16.16,27.95-3.25,12.17-15.78,19.41-27.95,16.16l-124.2-33.27Z"/>
    <path class="st0" d="M608.78,761.9c3.25-12.17,15.78-19.41,27.95-16.16,12.16,3.25,19.4,15.78,16.16,27.95l-33.27,124.19c-3.25,12.17-15.78,19.41-27.95,16.16-12.17-3.25-19.41-15.78-16.16-27.95l33.27-124.18Z"/>
  </g>
  <g>
    <path class="st0" d="M748.12,519.45c0,12.62-10.23,22.85-22.86,22.85s-22.86-10.23-22.86-22.85c0-44.84-18.19-85.45-47.58-114.83v-.09c-29.32-29.32-69.93-47.49-114.83-47.49s-85.51,18.17-114.83,47.49v.09c-29.38,29.38-47.58,69.99-47.58,114.83,0,12.62-10.23,22.85-22.85,22.85s-22.86-10.23-22.86-22.85c0-57.45,23.32-109.49,60.97-147.14l.05.05c37.71-37.69,89.74-61.02,147.09-61.02s109.39,23.33,147.1,61.02l.05-.05c37.65,37.65,60.97,89.69,60.97,147.14Z"/>
    <path class="st0" d="M354.76,496.57c12.62,0,22.86,10.23,22.86,22.85s-10.24,22.86-22.86,22.86h-186.36c-12.62,0-22.86-10.23-22.86-22.86s10.24-22.85,22.86-22.85h186.36Z"/>
    <path class="st0" d="M911.61,496.57c12.62,0,22.86,10.23,22.86,22.85s-10.23,22.86-22.86,22.86h-186.35c-12.62,0-22.86-10.23-22.86-22.86s10.24-22.85,22.86-22.85h186.35Z"/>
    <path class="st0" d="M517.12,147.85c0-12.62,10.24-22.85,22.86-22.85s22.86,10.23,22.86,22.85v186.35c0,12.62-10.24,22.86-22.86,22.86s-22.86-10.23-22.86-22.86v-186.35Z"/>
    <path class="st0" d="M786.59,240.52c8.92-8.91,23.4-8.91,32.31,0,8.92,8.92,8.92,23.4,0,32.31l-131.76,131.76c-8.91,8.91-23.4,8.91-32.31,0-8.91-8.91-8.91-23.4,0-32.31l131.76-131.77Z"/>
    <path class="st0" d="M261.07,272.87c-8.92-8.91-8.92-23.4,0-32.31,8.91-8.91,23.4-8.91,32.31,0l131.77,131.77c8.91,8.91,8.91,23.4,0,32.31-8.91,8.92-23.4,8.92-32.31,0l-131.76-131.77Z"/>
  </g>
</svg>