<?xml version="1.0" encoding="UTF-8"?>
<svg id="Layer_1" xmlns="http://www.w3.org/2000/svg" version="1.1" viewBox="0 0 1080 1080">
  <!-- Generator: Adobe Illustrator 29.0.0, SVG Export Plug-In . SVG Version: 2.1.0 Build 186)  -->
  <defs>
    <style>
      .st0 {
        fill: #fff;
      }

      .st1 {
        fill: #d41d29;
      }
    </style>
  </defs>
  <path class="st0" d="M868.93,540c0-181.66-147.27-328.93-328.93-328.93s-328.93,147.27-328.93,328.93,147.27,328.93,328.93,328.93,328.93-147.27,328.93-328.93Z"/>
  <path class="st1" d="M610.52,568.56h-8.88c-66.59,0-133.19.04-199.78-.02-20.27-.02-33.84-16.3-29.5-35.08,3.06-13.27,14.41-21.77,29.44-21.78,59.96-.04,119.91-.02,179.87-.02,9.14,0,18.28,0,28.82,0-2.71-2.91-4.35-4.79-6.1-6.55-18.75-18.79-37.59-37.49-56.26-56.36-8.38-8.48-11.1-18.69-7.05-30.05,3.94-11.04,12.17-17.3,23.75-18.73,8.73-1.08,16.53,1.69,22.72,7.86,37.61,37.47,75.24,74.92,112.56,112.68,11.09,11.22,11.14,27.89.05,39.13-37.3,37.78-74.85,75.31-112.58,112.66-11.4,11.28-28.68,10.83-39.7-.02-11.26-11.08-11.68-28.49-.25-40.21,18.69-19.18,37.8-37.95,56.72-56.91,1.76-1.77,3.42-3.64,6.18-6.59Z"/>
</svg>