<?xml version="1.0" encoding="UTF-8"?>
<svg id="Layer_1" xmlns="http://www.w3.org/2000/svg" version="1.1" viewBox="0 0 1080 1080">
  <!-- Generator: Adobe Illustrator 29.0.0, SVG Export Plug-In . SVG Version: 2.1.0 Build 186)  -->
  <defs>
    <style>
      .st0 {
        fill: #fff;
      }
    </style>
  </defs>
  <g id="Element">
    <path class="st0" d="M894.59,287.39l-101.97-101.97c-12.61-12.61-29.38-19.56-47.22-19.56s-34.6,6.95-47.22,19.56l-113.29,113.29s0,0,0,0c0,0-373.78,373.78-373.78,373.78-.02.02-.04.04-.05.05l-.04.04c-.36.36-.7.74-1.03,1.13-.14.17-.27.34-.41.51-.2.25-.39.51-.58.77-.14.2-.28.4-.41.61-.18.27-.34.54-.5.82-.11.19-.23.38-.34.58-.24.45-.47.92-.67,1.39-.07.16-.13.33-.2.5-.15.37-.28.74-.41,1.12-.06.18-.11.36-.17.54-.13.45-.24.9-.34,1.35-.02.08-.04.16-.06.24,0,.02,0,.05-.01.07,0,.04-.02.08-.03.12l-39.65,209.6c-1.15,6.08.78,12.33,5.15,16.7,3.54,3.54,8.31,5.48,13.23,5.48,1.16,0,2.32-.11,3.48-.33l209.6-39.65s.07-.02.1-.02c.03,0,.06,0,.09-.01.1-.02.19-.05.29-.07.43-.09.86-.2,1.28-.32.19-.06.38-.11.57-.18.36-.12.72-.25,1.08-.39.18-.07.36-.13.53-.21.47-.2.93-.43,1.38-.67.2-.11.39-.23.59-.34.28-.16.55-.33.82-.5.2-.13.41-.27.6-.41.26-.19.52-.38.78-.59.17-.13.34-.26.51-.4.39-.33.77-.67,1.13-1.03l.04-.04s.04-.04.05-.05l441.76-441.76h0s0,0,0,0l45.32-45.32c26.03-26.04,26.03-68.4,0-94.43ZM768.07,455.44l-143.49-143.49,41.52-41.52,143.49,143.49-41.52,41.52ZM403.67,819.84c-11.63-32.99-30.47-62.98-55.49-88-25.02-25.02-55.01-43.86-88-55.49l337.94-337.94,143.49,143.49-337.95,337.94ZM238.94,708.79c63.61,19.12,113.17,68.67,132.29,132.29l-163.15,30.87,30.87-163.15ZM868.13,355.37l-32.09,32.09-143.49-143.49,32.09-32.09c5.55-5.55,12.92-8.6,20.76-8.6s15.22,3.05,20.76,8.6l101.97,101.97c11.45,11.45,11.45,30.07,0,41.52Z"/>
    <path class="st0" d="M634.9,445.12c-7.3-7.3-19.15-7.31-26.45,0l-226.59,226.59c-7.31,7.3-7.31,19.15,0,26.45,3.65,3.65,8.44,5.48,13.23,5.48s9.58-1.83,13.23-5.48l226.59-226.59c7.31-7.31,7.31-19.15,0-26.45Z"/>
  </g>
</svg>