<?xml version="1.0" encoding="UTF-8"?>
<svg id="Layer_1" xmlns="http://www.w3.org/2000/svg" version="1.1" viewBox="0 0 1080 1080">
  <!-- Generator: Adobe Illustrator 29.0.0, SVG Export Plug-In . SVG Version: 2.1.0 Build 186)  -->
  <defs>
    <style>
      .st0 {
        fill: #fff;
      }
    </style>
  </defs>
  <path class="st0" d="M226.34,764.86c.92-8.11,8.62-16.19,16.82-17.01l312.52-.06c.68-.23,2.41-7.15,2.88-8.46,22.42-62.62,105.43-76.78,146.43-23.96,44.68,57.55.76,140.3-71.79,136.45-36.62-1.94-68.71-29.19-77.13-64.68l-310.66.04c-9.15-.26-17.97-7.81-19.07-17.03-.15-1.26-.14-4.02,0-5.29ZM635.98,722.25c-33.44,1.86-53.54,38.59-36.65,67.81,15.89,27.49,54.9,30.21,74.51,5.22,23.84-30.39.5-75.16-37.86-73.03Z"/>
  <path class="st0" d="M226.34,310.08c1.1-9.8,10.17-17.26,19.85-17.39l273.22-.05c.61-.21,1.91-5.93,2.33-7.12,23.35-66.69,112.73-78.42,151.14-18.88,40.04,62.07-12.95,141.21-85.65,129.14-33.2-5.51-59.76-31.41-67.83-63.79H242.78c-8.28-1.33-15.5-8.55-16.45-16.99-.14-1.22-.14-3.7,0-4.91ZM598.56,267.47c-35.46,2.64-54.33,43.97-32.59,72.44,21.71,28.44,66.44,21.33,78.4-12.25,10.91-30.61-13.53-62.6-45.82-60.19Z"/>
  <path class="st0" d="M226.34,537.28c1.03-8.62,9.02-16.17,17.62-16.97l108.58-.08c12.82-54.66,75.64-81.82,124.64-53.33,77.1,44.82,40.29,164.37-49.95,157.32-35.47-2.77-67.09-29.87-74.67-64.62l-108.98-.06c-8.44-.85-16.27-8.53-17.24-16.97-.15-1.26-.15-4.03,0-5.29ZM429.61,495.05c-26.51,2.55-44.65,28.92-39.05,54.71,7.13,32.84,47.68,46.66,73.32,24.56,33.64-29,10.06-83.53-34.27-79.27Z"/>
  <path class="st0" d="M553.58,520.38l282.23-.11c23.61,2.86,23.97,36.06.38,39.3h-282.71c-23.01-3.36-22.93-36.02.11-39.2Z"/>
  <path class="st0" d="M722.53,292.8l110.65-.13c24.49.02,28.39,33.93,4.48,39.29h-118.22c-22.95-5.14-21.28-37.22,3.09-39.16Z"/>
  <path class="st0" d="M756.54,747.95l81.37.06c22.83,5.34,20.49,37.65-3.59,39.16-24.51-1.24-50.54,1.59-74.87,0-24.35-1.59-26.16-34.57-2.9-39.23Z"/>
</svg>