<?xml version="1.0" encoding="UTF-8"?>
<svg id="Layer_1" xmlns="http://www.w3.org/2000/svg" version="1.1" viewBox="0 0 1080 1080">
  <!-- Generator: Adobe Illustrator 29.0.0, SVG Export Plug-In . SVG Version: 2.1.0 Build 186)  -->
  <defs>
    <style>
      .st0 {
        fill: #fff;
      }
    </style>
  </defs>
  <path class="st0" d="M919.4,447.48l-102.94-95.48v-94.71c0-37.11-30.19-67.3-67.3-67.3h-29.94c-20.65,0-39.16,9.35-51.52,24.04l-75.26-69.8c-12.48-11.58-28.74-17.96-45.77-17.96-16.53,0-32.43,6.06-44.78,17.06l-270.84,241.35-2.17,1.93-67.29,59.97c-21.04,18.74-28.15,47.87-18.12,74.2,10.03,26.33,34.72,43.35,62.89,43.35h7.02v322.3c0,37.11,30.19,67.3,67.3,67.3h516.99c37.11,0,67.3-30.19,67.3-67.3v-322.3h8.63c27.88,0,52.47-16.77,62.65-42.72,10.18-25.95,3.55-54.97-16.88-73.93ZM873.63,517.84h-33.9c-11.61,0-21.02,9.41-21.02,21.02v347.57c0,11.61-9.41,21.02-21.02,21.02H280.7c-11.61,0-21.02-9.41-21.02-21.02v-347.57c0-11.61-9.41-21.02-21.02-21.02h-32.29c-19.31,0-28.4-23.86-13.98-36.71l67.29-59.97,2.17-1.93,270.84-241.35c3.99-3.55,8.99-5.33,13.98-5.33,5.13,0,10.27,1.87,14.29,5.61l101.93,94.54c4.21,3.9,9.23,5.65,14.16,5.65,10.82,0,21.15-8.45,21.15-21.06,0-11.61,9.41-21.02,21.02-21.02h29.94c11.61,0,21.02,9.41,21.02,21.02v105.74c0,5.85,2.44,11.43,6.72,15.41l111.02,102.97c14.01,12.99,4.82,36.43-14.29,36.43Z"/>
  <g>
    <path class="st0" d="M449.57,584.19c58.9,1.89,120.06-3.11,178.71-.2,54.28,2.69,51.94,72.63.59,74.43-58.43-2.24-118.96,2.88-177.14,0-53.32-2.64-52.47-70.93-2.16-74.23Z"/>
    <path class="st0" d="M697.4,526.55c-6.77,6.76-15.97,10.13-25.45,10.86l-184.18-.03c-45.45-3.36-48.02-65.93-4.08-73.72h192.3c30.16,3.81,43.13,41.19,21.41,62.89Z"/>
    <path class="st0" d="M382.6,715.86c6.77-6.76,15.97-10.13,25.45-10.86l184.18.03c45.45,3.36,48.02,65.93,4.08,73.72h-192.3c-30.16-3.81-43.13-41.19-21.41-62.89Z"/>
  </g>
</svg>