<?xml version="1.0" encoding="UTF-8"?>
<svg id="Layer_1" xmlns="http://www.w3.org/2000/svg" version="1.1" viewBox="0 0 1080 1080">
  <!-- Generator: Adobe Illustrator 29.0.0, SVG Export Plug-In . SVG Version: 2.1.0 Build 186)  -->
  <defs>
    <style>
      .st0 {
        fill: #fff;
      }
    </style>
  </defs>
  <path class="st0" d="M709.6,799.73c-1.94,0-3.88-.46-5.66-1.39l-163.94-86.2-163.94,86.2c-4.1,2.15-9.06,1.79-12.82-.93-3.75-2.72-5.62-7.33-4.84-11.91l31.31-182.56-132.63-129.28c-3.32-3.23-4.51-8.07-3.08-12.47,1.43-4.4,5.24-7.62,9.82-8.28l183.29-26.63,81.97-166.1c2.04-4.15,6.27-6.78,10.91-6.78s8.86,2.63,10.91,6.78l81.97,166.1,183.29,26.63c4.58.67,8.39,3.88,9.82,8.28,1.43,4.4.24,9.24-3.08,12.47l-132.63,129.28,31.31,182.56c.78,4.57-1.09,9.18-4.84,11.91-2.12,1.54-4.63,2.32-7.15,2.32ZM540,686.23c1.95,0,3.89.47,5.66,1.39l147.78,77.7-28.22-164.56c-.67-3.95.63-7.98,3.5-10.77l119.55-116.54-165.22-24.01c-3.96-.57-7.39-3.07-9.16-6.65l-73.9-149.73-73.9,149.73c-1.77,3.59-5.2,6.08-9.16,6.65l-165.22,24.01,119.55,116.54c2.87,2.8,4.17,6.82,3.5,10.77l-28.22,164.56,147.78-77.7c1.77-.93,3.71-1.39,5.66-1.39Z"/>
  <path class="st0" d="M439.83,704.19c-4.37,0-8.6-2.36-10.77-6.5-3.13-5.95-.85-13.31,5.1-16.43l100.18-52.68c3.55-1.87,7.78-1.87,11.33,0l78.35,41.21-14.96-87.27c-.67-3.95.63-7.98,3.5-10.77l63.39-61.79-87.61-12.74c-3.96-.57-7.39-3.07-9.16-6.65l-50.09-101.49c-2.98-6.03-.51-13.32,5.52-16.3,6.04-2.97,13.32-.5,16.29,5.52l47.26,95.76,105.67,15.37c4.59.67,8.39,3.88,9.82,8.28,1.43,4.4.24,9.24-3.08,12.47l-76.47,74.52,18.05,105.26c.78,4.57-1.09,9.18-4.84,11.91-3.75,2.72-8.71,3.09-12.82.92l-94.51-49.7-94.51,49.7c-1.81.95-3.75,1.4-5.66,1.4Z"/>
  <path class="st0" d="M540,225.47c-6.72,0-12.17-5.45-12.17-12.17v-26.14c0-6.72,5.45-12.17,12.17-12.17s12.17,5.45,12.17,12.17v26.14c0,6.72-5.45,12.17-12.17,12.17Z"/>
  <path class="st0" d="M376.66,269.24c-4.2,0-8.29-2.18-10.54-6.09l-13.07-22.63c-3.36-5.82-1.37-13.26,4.45-16.62,5.81-3.36,13.26-1.37,16.62,4.45l13.07,22.63c3.36,5.82,1.37,13.26-4.45,16.62-1.92,1.11-4.01,1.64-6.08,1.64Z"/>
  <path class="st0" d="M257.06,388.82c-2.07,0-4.16-.53-6.08-1.64l-22.63-13.07c-5.82-3.36-7.81-10.8-4.45-16.62,3.36-5.83,10.81-7.81,16.62-4.45l22.63,13.07c5.82,3.36,7.81,10.8,4.45,16.62-2.25,3.91-6.34,6.09-10.54,6.09Z"/>
  <path class="st0" d="M213.31,552.17h-26.14c-6.72,0-12.17-5.45-12.17-12.17s5.45-12.17,12.17-12.17h26.14c6.72,0,12.17,5.45,12.17,12.17s-5.45,12.17-12.17,12.17Z"/>
  <path class="st0" d="M234.45,728.58c-4.2,0-8.29-2.18-10.54-6.08-3.36-5.81-1.37-13.26,4.45-16.62l22.63-13.07c5.81-3.37,13.26-1.38,16.62,4.45,3.36,5.81,1.37,13.26-4.45,16.62l-22.63,13.07c-1.92,1.11-4.01,1.63-6.08,1.63Z"/>
  <path class="st0" d="M363.58,857.73c-2.07,0-4.16-.52-6.08-1.63-5.82-3.36-7.81-10.8-4.45-16.62l13.07-22.63c3.36-5.83,10.8-7.82,16.62-4.45,5.82,3.36,7.81,10.8,4.45,16.62l-13.07,22.63c-2.25,3.91-6.34,6.08-10.54,6.08Z"/>
  <path class="st0" d="M540,905c-6.72,0-12.17-5.45-12.17-12.17v-26.14c0-6.72,5.45-12.17,12.17-12.17s12.17,5.45,12.17,12.17v26.14c0,6.72-5.45,12.17-12.17,12.17Z"/>
  <path class="st0" d="M716.42,857.73c-4.2,0-8.29-2.18-10.54-6.08l-13.07-22.63c-3.36-5.81-1.37-13.26,4.45-16.62,5.81-3.37,13.26-1.38,16.62,4.45l13.07,22.63c3.36,5.81,1.37,13.26-4.45,16.62-1.92,1.11-4.01,1.63-6.08,1.63Z"/>
  <path class="st0" d="M845.55,728.58c-2.07,0-4.16-.52-6.08-1.63l-22.63-13.07c-5.82-3.36-7.81-10.8-4.45-16.62,3.36-5.83,10.81-7.82,16.62-4.45l22.63,13.07c5.82,3.36,7.81,10.8,4.45,16.62-2.25,3.91-6.34,6.08-10.54,6.08Z"/>
  <path class="st0" d="M892.83,552.17h-26.14c-6.72,0-12.17-5.45-12.17-12.17s5.45-12.17,12.17-12.17h26.14c6.72,0,12.17,5.45,12.17,12.17s-5.45,12.17-12.17,12.17Z"/>
  <path class="st0" d="M822.94,388.82c-4.2,0-8.29-2.18-10.54-6.09-3.36-5.82-1.37-13.26,4.45-16.62l22.63-13.07c5.81-3.35,13.26-1.37,16.62,4.45,3.36,5.82,1.37,13.26-4.45,16.62l-22.63,13.07c-1.92,1.11-4.01,1.64-6.08,1.64Z"/>
  <path class="st0" d="M703.34,269.24c-2.07,0-4.16-.53-6.08-1.64-5.82-3.36-7.81-10.8-4.45-16.62l13.07-22.63c3.36-5.83,10.81-7.81,16.62-4.45,5.82,3.36,7.81,10.8,4.45,16.62l-13.07,22.63c-2.25,3.91-6.34,6.09-10.54,6.09Z"/>
</svg>