<?xml version="1.0" encoding="UTF-8"?>
<svg id="Layer_1" xmlns="http://www.w3.org/2000/svg" version="1.1" viewBox="0 0 1080 1080">
  <!-- Generator: Adobe Illustrator 29.0.0, SVG Export Plug-In . SVG Version: 2.1.0 Build 186)  -->
  <defs>
    <style>
      .st0 {
        fill: #fff;
      }
    </style>
  </defs>
  <path class="st0" d="M376.38,472.38c-39.09,10.47-78.19,20.94-117.3,31.43-12.4,3.32-25.17-4.07-28.48-16.47-3.32-12.4,4.07-25.17,16.47-28.48,24.12-6.46,48.23-12.91,72.35-19.38-39.67-22.9-79.34-45.81-119.02-68.72-11.11-6.43-14.89-20.65-8.47-31.76,6.43-11.1,20.65-14.89,31.76-8.47,39.66,22.91,79.32,45.81,118.98,68.7-6.46-24.14-12.92-48.27-19.39-72.41-3.32-12.4,4.07-25.17,16.46-28.48,12.4-3.32,25.17,4.07,28.48,16.47,10.47,39.11,20.94,78.22,31.42,117.32,23.63,13.64,47.25,27.28,70.87,40.92,11.11,6.43,14.9,20.65,8.47,31.76-6.43,11.1-20.65,14.89-31.76,8.46-23.61-13.64-47.22-27.27-70.83-40.89h0ZM563.3,446.34v-81.87c28.61-28.61,57.22-57.23,85.84-85.84,9.08-9.08,9.08-23.85,0-32.93-9.09-9.08-23.85-9.08-32.93,0-17.64,17.64-35.28,35.28-52.91,52.91v-137.32c0-12.86-10.43-23.29-23.3-23.29s-23.29,10.43-23.29,23.29v137.32c-17.64-17.63-35.28-35.27-52.91-52.91-9.09-9.08-23.85-9.08-32.94,0-9.09,9.09-9.09,23.85,0,32.93,28.62,28.61,57.23,57.23,85.84,85.84v81.87c0,12.86,10.43,23.29,23.29,23.29s23.3-10.43,23.3-23.29h0ZM516.71,633.68c0-12.86,10.43-23.29,23.29-23.29s23.3,10.43,23.3,23.29v81.84c28.61,28.61,57.22,57.22,85.84,85.84,9.08,9.08,9.08,23.85,0,32.93-9.09,9.09-23.85,9.09-32.93,0-17.64-17.64-35.28-35.28-52.91-52.91v137.32c0,12.86-10.43,23.3-23.3,23.3s-23.29-10.43-23.29-23.3v-137.32c-17.64,17.63-35.28,35.27-52.91,52.91-9.09,9.09-23.85,9.09-32.94,0-9.09-9.09-9.09-23.85,0-32.93,28.62-28.62,57.23-57.23,85.84-85.84v-81.84h0ZM632.66,513.29c-11.11,6.38-25.29,2.55-31.66-8.56-6.38-11.11-2.55-25.29,8.55-31.66,23.6-13.63,47.2-27.25,70.81-40.88,10.47-39.13,20.96-78.25,31.44-117.37,3.32-12.4,16.08-19.78,28.48-16.47,12.4,3.31,19.78,16.08,16.47,28.48-6.47,24.17-12.94,48.31-19.41,72.46,39.69-22.91,79.38-45.83,119.09-68.76,11.1-6.37,25.29-2.55,31.66,8.56,6.37,11.11,2.55,25.29-8.55,31.67-39.67,22.91-79.33,45.81-119,68.7,24.13,6.47,48.27,12.94,72.4,19.4,12.4,3.32,19.78,16.08,16.47,28.48-3.32,12.4-16.09,19.78-28.48,16.47-39.14-10.48-78.26-20.97-117.38-31.45-23.63,13.64-47.27,27.28-70.89,40.93h0ZM447.21,566.73c-23.61,13.63-47.22,27.26-70.81,40.88-39.1-10.48-78.21-20.95-117.32-31.42-12.4-3.32-25.17,4.07-28.48,16.47-3.32,12.4,4.07,25.17,16.47,28.48,24.12,6.45,48.25,12.91,72.36,19.38-39.67,22.9-79.34,45.81-119.02,68.72-11.1,6.43-14.89,20.65-8.46,31.76,6.43,11.1,20.65,14.89,31.75,8.46,39.67-22.9,79.32-45.79,118.97-68.69-6.46,24.12-12.92,48.26-19.39,72.4-3.32,12.4,4.07,25.16,16.46,28.48,12.4,3.32,25.17-4.07,28.48-16.47,10.47-39.11,20.94-78.21,31.42-117.3,23.63-13.64,47.25-27.28,70.87-40.92,11.11-6.43,14.9-20.65,8.47-31.76-6.43-11.1-20.65-14.89-31.76-8.47h0ZM609.47,606.93c23.63,13.64,47.27,27.28,70.91,40.93,10.47,39.1,20.94,78.2,31.42,117.32,3.32,12.4,16.08,19.78,28.48,16.47,12.4-3.32,19.78-16.08,16.47-28.48-6.47-24.14-12.94-48.28-19.4-72.4,39.65,22.89,79.31,45.79,118.97,68.69,11.11,6.43,25.33,2.64,31.76-8.46,6.43-11.11,2.64-25.32-8.46-31.76-39.68-22.91-79.34-45.82-119.01-68.72,24.11-6.47,48.22-12.92,72.34-19.38,12.4-3.32,19.78-16.09,16.47-28.48-3.32-12.4-16.09-19.78-28.48-16.47-39.11,10.47-78.22,20.94-117.32,31.42-23.62-13.64-47.25-27.28-70.85-40.91-11.1-6.43-25.32-2.64-31.75,8.46-6.43,11.11-2.64,25.32,8.46,31.76Z"/>
</svg>