<svg width="1080" height="1080" viewBox="0 0 1080 1080" fill="none" xmlns="http://www.w3.org/2000/svg">
<path d="M515.649 607.08C521.909 596.18 535.819 592.43 546.719 598.69C557.619 604.95 561.369 618.86 555.109 629.76L373.929 943.59C367.669 954.49 353.759 958.24 342.859 951.98C331.959 945.72 328.209 931.8 334.469 920.91L515.649 607.08Z" fill="#D51C29"/>
<path d="M443.24 745.721C455.4 742.471 467.94 749.711 471.19 761.881C474.44 774.041 467.2 786.571 455.03 789.831L330.83 823.101C318.67 826.351 306.14 819.111 302.88 806.941C299.63 794.771 306.88 782.241 319.04 778.991L443.24 745.721Z" fill="#D51C29"/>
<path d="M427.1 773.68C423.85 761.52 431.09 748.98 443.26 745.73C455.43 742.48 467.959 749.72 471.209 761.89L504.48 886.07C507.73 898.23 500.49 910.77 488.32 914.02C476.15 917.27 463.619 910.03 460.369 897.86L427.1 773.67V773.68Z" fill="#D51C29"/>
<path d="M705.54 626.59C696.62 617.68 696.62 603.19 705.54 594.28C714.45 585.37 728.94 585.37 737.85 594.28L828.76 685.2C837.68 694.11 837.68 708.6 828.76 717.51C819.85 726.42 805.36 726.42 796.45 717.51L705.54 626.59Z" fill="#D51C29"/>
<path d="M911.59 587.67C924.16 587.67 934.35 597.87 934.35 610.43C934.35 622.99 924.16 633.19 911.59 633.19H168.39C155.82 633.18 145.63 622.98 145.63 610.41C145.63 597.84 155.83 587.65 168.39 587.65H911.59V587.67Z" fill="#D51C29"/>
<path d="M342.14 594.27C351.06 585.36 365.54 585.36 374.45 594.27C383.37 603.19 383.37 617.67 374.45 626.58L283.54 717.5C274.62 726.41 260.14 726.41 251.23 717.5C242.31 708.58 242.31 694.1 251.23 685.19L342.14 594.27Z" fill="#D51C29"/>
<path d="M524.25 628.681C517.99 617.781 521.75 603.87 532.64 597.61C543.54 591.35 557.45 595.111 563.71 606.011L745.51 920.91C751.77 931.81 748.01 945.72 737.12 951.98C726.22 958.24 712.31 954.481 706.05 943.591L524.25 628.691V628.681Z" fill="#D51C29"/>
<path d="M624.96 789.831C612.8 786.581 605.55 774.051 608.8 761.881C612.05 749.711 624.58 742.471 636.75 745.721L760.95 778.991C773.12 782.241 780.36 794.771 777.11 806.941C773.86 819.111 761.33 826.351 749.16 823.101L624.96 789.831Z" fill="#D51C29"/>
<path d="M608.78 761.9C612.03 749.73 624.56 742.49 636.73 745.74C648.89 748.99 656.13 761.52 652.89 773.69L619.62 897.88C616.37 910.05 603.84 917.29 591.67 914.04C579.5 910.79 572.26 898.26 575.51 886.09L608.78 761.91V761.9Z" fill="#D51C29"/>
<path d="M748.12 519.45C748.12 532.07 737.89 542.3 725.26 542.3C712.63 542.3 702.4 532.07 702.4 519.45C702.4 474.61 684.21 434 654.82 404.62V404.53C625.5 375.21 584.89 357.04 539.99 357.04C495.09 357.04 454.48 375.21 425.16 404.53V404.62C395.78 434 377.58 474.61 377.58 519.45C377.58 532.07 367.35 542.3 354.73 542.3C342.11 542.3 331.87 532.07 331.87 519.45C331.87 462 355.19 409.96 392.84 372.31L392.89 372.36C430.6 334.67 482.63 311.34 539.98 311.34C597.33 311.34 649.37 334.67 687.08 372.36L687.13 372.31C724.78 409.96 748.1 462 748.1 519.45H748.12Z" fill="#D51C29"/>
<path d="M354.76 496.57C367.38 496.57 377.62 506.8 377.62 519.42C377.62 532.04 367.38 542.28 354.76 542.28H168.4C155.78 542.28 145.54 532.05 145.54 519.42C145.54 506.79 155.78 496.57 168.4 496.57H354.76Z" fill="#D51C29"/>
<path d="M911.61 496.57C924.23 496.57 934.47 506.8 934.47 519.42C934.47 532.04 924.24 542.28 911.61 542.28H725.26C712.64 542.28 702.4 532.05 702.4 519.42C702.4 506.79 712.64 496.57 725.26 496.57H911.61Z" fill="#D51C29"/>
<path d="M517.12 147.85C517.12 135.23 527.36 125 539.98 125C552.6 125 562.84 135.23 562.84 147.85V334.2C562.84 346.82 552.6 357.06 539.98 357.06C527.36 357.06 517.12 346.83 517.12 334.2V147.85Z" fill="#D51C29"/>
<path d="M786.59 240.52C795.51 231.61 809.99 231.61 818.9 240.52C827.82 249.44 827.82 263.92 818.9 272.83L687.14 404.59C678.23 413.5 663.74 413.5 654.83 404.59C645.92 395.68 645.92 381.19 654.83 372.28L786.59 240.51V240.52Z" fill="#D51C29"/>
<path d="M261.07 272.87C252.15 263.96 252.15 249.47 261.07 240.56C269.98 231.65 284.47 231.65 293.38 240.56L425.15 372.33C434.06 381.24 434.06 395.73 425.15 404.64C416.24 413.56 401.75 413.56 392.84 404.64L261.08 272.87H261.07Z" fill="#D51C29"/>
</svg>
