<svg width="1080" height="1080" viewBox="0 0 1080 1080" fill="none" xmlns="http://www.w3.org/2000/svg">
<path d="M540 211.07C358.34 211.07 211.07 358.34 211.07 540C211.07 721.66 358.34 868.93 540 868.93C721.66 868.93 868.93 721.66 868.93 540C868.93 358.34 721.66 211.07 540 211.07ZM700.16 559.64C662.86 597.42 625.31 634.95 587.58 672.3C576.18 683.58 558.9 683.13 547.88 672.28C536.62 661.2 536.2 643.79 547.63 632.07C566.32 612.89 585.43 594.12 604.35 575.16C606.11 573.39 607.77 571.52 610.53 568.57H601.65C535.06 568.57 468.46 568.61 401.87 568.55C381.6 568.53 368.03 552.25 372.37 533.47C375.43 520.2 386.78 511.7 401.81 511.69C461.77 511.65 521.72 511.67 581.68 511.67C590.82 511.67 599.96 511.67 610.5 511.67C607.79 508.76 606.15 506.88 604.4 505.12C585.65 486.33 566.81 467.63 548.14 448.76C539.76 440.28 537.04 430.07 541.09 418.71C545.03 407.67 553.26 401.41 564.84 399.98C573.57 398.9 581.37 401.67 587.56 407.84C625.17 445.31 662.8 482.76 700.12 520.52C711.21 531.74 711.26 548.41 700.17 559.65L700.16 559.64Z" fill="#D51C29"/>
</svg>
