<svg width="1080" height="1080" viewBox="0 0 1080 1080" fill="none" xmlns="http://www.w3.org/2000/svg">
<path d="M226.34 764.86C227.26 756.75 234.96 748.67 243.16 747.85L555.68 747.79C556.36 747.56 558.09 740.641 558.56 739.331C580.98 676.711 663.99 662.551 704.99 715.371C749.67 772.921 705.75 855.671 633.2 851.821C596.58 849.881 564.49 822.631 556.07 787.141L245.41 787.181C236.26 786.921 227.44 779.371 226.34 770.151C226.19 768.891 226.2 766.13 226.34 764.86ZM635.98 722.251C602.54 724.111 582.44 760.841 599.33 790.061C615.22 817.551 654.23 820.271 673.84 795.281C697.68 764.891 674.34 720.121 635.98 722.251Z" fill="#D51C29"/>
<path d="M226.34 310.08C227.44 300.28 236.51 292.82 246.19 292.69L519.41 292.64C520.02 292.43 521.32 286.71 521.74 285.52C545.09 218.83 634.47 207.1 672.88 266.64C712.92 328.71 659.93 407.85 587.23 395.78C554.03 390.27 527.47 364.37 519.4 331.99H242.78C234.5 330.66 227.28 323.44 226.33 315C226.19 313.78 226.19 311.3 226.33 310.09L226.34 310.08ZM598.56 267.47C563.1 270.11 544.23 311.44 565.97 339.91C587.68 368.35 632.41 361.24 644.37 327.66C655.28 297.05 630.84 265.06 598.55 267.47H598.56Z" fill="#D51C29"/>
<path d="M226.34 537.28C227.37 528.66 235.36 521.11 243.96 520.31L352.54 520.23C365.36 465.57 428.18 438.41 477.18 466.9C554.28 511.72 517.47 631.27 427.23 624.22C391.76 621.45 360.14 594.35 352.56 559.6L243.58 559.54C235.14 558.69 227.31 551.01 226.34 542.57C226.19 541.31 226.19 538.54 226.34 537.28ZM429.61 495.05C403.1 497.6 384.96 523.97 390.56 549.76C397.69 582.6 438.24 596.42 463.88 574.32C497.52 545.32 473.94 490.79 429.61 495.05Z" fill="#D51C29"/>
<path d="M553.58 520.38L835.81 520.27C859.42 523.13 859.78 556.33 836.19 559.57H553.48C530.47 556.21 530.55 523.55 553.59 520.37L553.58 520.38Z" fill="#D51C29"/>
<path d="M722.53 292.8L833.18 292.67C857.67 292.69 861.57 326.6 837.66 331.96H719.44C696.49 326.82 698.16 294.74 722.53 292.8Z" fill="#D51C29"/>
<path d="M756.54 747.95L837.91 748.01C860.74 753.35 858.4 785.66 834.32 787.17C809.81 785.93 783.78 788.76 759.45 787.17C735.1 785.58 733.29 752.6 756.55 747.94L756.54 747.95Z" fill="#D51C29"/>
</svg>
