<svg width="1080" height="1080" viewBox="0 0 1080 1080" fill="none" xmlns="http://www.w3.org/2000/svg">
<path d="M919.4 447.48L816.46 352V257.29C816.46 220.18 786.27 189.99 749.16 189.99H719.22C698.57 189.99 680.06 199.34 667.7 214.03L592.44 144.23C579.96 132.65 563.7 126.27 546.67 126.27C530.14 126.27 514.24 132.33 501.89 143.33L231.05 384.68L228.88 386.61L161.59 446.58C140.55 465.32 133.44 494.45 143.47 520.78C153.5 547.11 178.19 564.13 206.36 564.13H213.38V886.43C213.38 923.54 243.57 953.729 280.68 953.729H797.67C834.78 953.729 864.97 923.54 864.97 886.43V564.13H873.6C901.48 564.13 926.07 547.36 936.25 521.41C946.43 495.46 939.8 466.44 919.37 447.48H919.4ZM873.63 517.84H839.73C828.12 517.84 818.71 527.25 818.71 538.86V886.43C818.71 898.04 809.3 907.45 797.69 907.45H280.7C269.09 907.45 259.68 898.04 259.68 886.43V538.86C259.68 527.25 250.27 517.84 238.66 517.84H206.37C187.06 517.84 177.97 493.98 192.39 481.13L259.68 421.16L261.85 419.23L532.69 177.88C536.68 174.33 541.68 172.55 546.67 172.55C551.8 172.55 556.94 174.42 560.96 178.16L662.89 272.7C667.1 276.6 672.12 278.35 677.05 278.35C687.87 278.35 698.2 269.9 698.2 257.29C698.2 245.68 707.61 236.27 719.22 236.27H749.16C760.77 236.27 770.18 245.68 770.18 257.29V363.03C770.18 368.88 772.62 374.46 776.9 378.44L887.92 481.41C901.93 494.4 892.74 517.84 873.63 517.84Z" fill="#D51C29"/>
<path d="M449.571 584.19C508.471 586.08 569.631 581.08 628.281 583.99C682.561 586.68 680.221 656.62 628.871 658.42C570.441 656.18 509.911 661.3 451.731 658.42C398.411 655.78 399.261 587.49 449.571 584.19Z" fill="#D51C29"/>
<path d="M697.401 526.55C690.631 533.31 681.431 536.68 671.951 537.41L487.771 537.38C442.321 534.02 439.751 471.45 483.691 463.66H675.991C706.151 467.47 719.121 504.85 697.401 526.55Z" fill="#D51C29"/>
<path d="M382.6 715.86C389.37 709.1 398.57 705.73 408.05 705L592.23 705.03C637.68 708.39 640.25 770.96 596.31 778.75H404.01C373.85 774.94 360.88 737.56 382.6 715.86Z" fill="#D51C29"/>
</svg>
