<svg width="1080" height="1080" viewBox="0 0 1080 1080" fill="none" xmlns="http://www.w3.org/2000/svg">
<path d="M540 646.48C598.807 646.48 646.48 598.807 646.48 540C646.48 481.192 598.807 433.52 540 433.52C481.192 433.52 433.52 481.192 433.52 540C433.52 598.807 481.192 646.48 540 646.48Z" fill="#D51C29"/>
<path d="M540 926C598.807 926 646.48 878.327 646.48 819.52C646.48 760.713 598.807 713.04 540 713.04C481.192 713.04 433.52 760.713 433.52 819.52C433.52 878.327 481.192 926 540 926Z" fill="#D51C29"/>
<path d="M540 366.96C598.807 366.96 646.48 319.287 646.48 260.48C646.48 201.673 598.807 154 540 154C481.192 154 433.52 201.673 433.52 260.48C433.52 319.287 481.192 366.96 540 366.96Z" fill="#D51C29"/>
</svg>
