<svg width="1080" height="1080" viewBox="0 0 1080 1080" fill="none" xmlns="http://www.w3.org/2000/svg">
<path d="M328.47 453.42C466.25 457.84 609.28 446.15 746.48 452.95C873.45 459.24 867.97 622.84 747.86 627.05C611.2 621.81 469.61 633.79 333.52 627.05C208.8 620.87 210.79 461.14 328.47 453.42Z" fill="#D51C29"/>
<path d="M908.16 318.61C892.33 334.43 870.81 342.29 848.64 344L417.82 343.93C311.51 336.07 305.51 189.72 408.28 171.51L858.07 171.53C928.62 180.41 958.96 267.84 908.15 318.61H908.16Z" fill="#D51C29"/>
<path d="M171.84 761.39C187.67 745.57 209.19 737.71 231.36 736L662.18 736.07C768.49 743.93 774.49 890.28 671.72 908.49L221.93 908.47C151.38 899.59 121.04 812.16 171.85 761.39H171.84Z" fill="#D51C29"/>
</svg>
