<svg width="1080" height="1080" viewBox="0 0 1080 1080" fill="none" xmlns="http://www.w3.org/2000/svg">
<path d="M709.6 799.73C707.66 799.73 705.72 799.27 703.94 798.34L540 712.14L376.06 798.34C371.96 800.49 367 800.13 363.24 797.41C359.49 794.69 357.62 790.08 358.4 785.5L389.71 602.94L257.08 473.66C253.76 470.43 252.57 465.59 254 461.19C255.43 456.79 259.24 453.57 263.82 452.91L447.11 426.28L529.08 260.18C531.12 256.03 535.35 253.4 539.99 253.4C544.63 253.4 548.85 256.03 550.9 260.18L632.87 426.28L816.16 452.91C820.74 453.58 824.55 456.79 825.98 461.19C827.41 465.59 826.22 470.43 822.9 473.66L690.27 602.94L721.58 785.5C722.36 790.07 720.49 794.68 716.74 797.41C714.62 798.95 712.11 799.73 709.59 799.73H709.6ZM540 686.23C541.95 686.23 543.89 686.7 545.66 687.62L693.44 765.32L665.22 600.76C664.55 596.81 665.85 592.78 668.72 589.99L788.27 473.45L623.05 449.44C619.09 448.87 615.66 446.37 613.89 442.79L539.99 293.06L466.09 442.79C464.32 446.38 460.89 448.87 456.93 449.44L291.71 473.45L411.26 589.99C414.13 592.79 415.43 596.81 414.76 600.76L386.54 765.32L534.32 687.62C536.09 686.69 538.03 686.23 539.98 686.23H540Z" fill="#D51C29"/>
<path d="M439.83 704.19C435.46 704.19 431.23 701.83 429.06 697.69C425.93 691.74 428.21 684.38 434.16 681.26L534.34 628.58C537.89 626.71 542.12 626.71 545.67 628.58L624.02 669.79L609.06 582.52C608.39 578.57 609.69 574.54 612.56 571.75L675.95 509.96L588.34 497.22C584.38 496.65 580.95 494.15 579.18 490.57L529.09 389.08C526.11 383.05 528.58 375.76 534.61 372.78C540.65 369.81 547.93 372.28 550.9 378.3L598.16 474.06L703.83 489.43C708.42 490.1 712.22 493.31 713.65 497.71C715.08 502.11 713.89 506.95 710.57 510.18L634.1 584.7L652.15 689.96C652.93 694.53 651.06 699.14 647.31 701.87C643.56 704.59 638.6 704.96 634.49 702.79L539.98 653.09L445.47 702.79C443.66 703.74 441.72 704.19 439.81 704.19H439.83Z" fill="#D51C29"/>
<path d="M540 225.47C533.28 225.47 527.83 220.02 527.83 213.3V187.16C527.83 180.44 533.28 174.99 540 174.99C546.72 174.99 552.17 180.44 552.17 187.16V213.3C552.17 220.02 546.72 225.47 540 225.47Z" fill="#D51C29"/>
<path d="M376.66 269.24C372.46 269.24 368.37 267.06 366.12 263.15L353.05 240.52C349.69 234.7 351.68 227.26 357.5 223.9C363.31 220.54 370.76 222.53 374.12 228.35L387.19 250.98C390.55 256.8 388.56 264.24 382.74 267.6C380.82 268.71 378.73 269.24 376.66 269.24Z" fill="#D51C29"/>
<path d="M257.06 388.82C254.99 388.82 252.9 388.29 250.98 387.18L228.35 374.11C222.53 370.75 220.54 363.31 223.9 357.49C227.26 351.66 234.71 349.68 240.52 353.04L263.15 366.11C268.97 369.47 270.96 376.91 267.6 382.73C265.35 386.64 261.26 388.82 257.06 388.82Z" fill="#D51C29"/>
<path d="M213.31 552.17H187.17C180.45 552.17 175 546.72 175 540C175 533.28 180.45 527.83 187.17 527.83H213.31C220.03 527.83 225.48 533.28 225.48 540C225.48 546.72 220.03 552.17 213.31 552.17Z" fill="#D51C29"/>
<path d="M234.45 728.58C230.25 728.58 226.16 726.4 223.91 722.5C220.55 716.69 222.54 709.24 228.36 705.88L250.99 692.81C256.8 689.44 264.25 691.43 267.61 697.26C270.97 703.07 268.98 710.52 263.16 713.88L240.53 726.95C238.61 728.06 236.52 728.58 234.45 728.58Z" fill="#D51C29"/>
<path d="M363.58 857.73C361.51 857.73 359.42 857.21 357.5 856.1C351.68 852.74 349.69 845.3 353.05 839.48L366.12 816.85C369.48 811.02 376.92 809.03 382.74 812.4C388.56 815.76 390.55 823.2 387.19 829.02L374.12 851.65C371.87 855.56 367.78 857.73 363.58 857.73Z" fill="#D51C29"/>
<path d="M540 905C533.28 905 527.83 899.55 527.83 892.83V866.69C527.83 859.97 533.28 854.52 540 854.52C546.72 854.52 552.17 859.97 552.17 866.69V892.83C552.17 899.55 546.72 905 540 905Z" fill="#D51C29"/>
<path d="M716.42 857.73C712.22 857.73 708.13 855.55 705.88 851.65L692.81 829.02C689.45 823.21 691.44 815.76 697.26 812.4C703.07 809.03 710.52 811.02 713.88 816.85L726.95 839.48C730.31 845.29 728.32 852.74 722.5 856.1C720.58 857.21 718.49 857.73 716.42 857.73Z" fill="#D51C29"/>
<path d="M845.55 728.58C843.48 728.58 841.39 728.06 839.47 726.95L816.84 713.88C811.02 710.52 809.03 703.08 812.39 697.26C815.75 691.43 823.2 689.44 829.01 692.81L851.64 705.88C857.46 709.24 859.45 716.68 856.09 722.5C853.84 726.41 849.75 728.58 845.55 728.58Z" fill="#D51C29"/>
<path d="M892.83 552.17H866.69C859.97 552.17 854.52 546.72 854.52 540C854.52 533.28 859.97 527.83 866.69 527.83H892.83C899.55 527.83 905 533.28 905 540C905 546.72 899.55 552.17 892.83 552.17Z" fill="#D51C29"/>
<path d="M822.94 388.82C818.74 388.82 814.65 386.64 812.4 382.73C809.04 376.91 811.03 369.47 816.85 366.11L839.48 353.04C845.29 349.69 852.74 351.67 856.1 357.49C859.46 363.31 857.47 370.75 851.65 374.11L829.02 387.18C827.1 388.29 825.01 388.82 822.94 388.82Z" fill="#D51C29"/>
<path d="M703.34 269.24C701.27 269.24 699.18 268.71 697.26 267.6C691.44 264.24 689.45 256.8 692.81 250.98L705.88 228.35C709.24 222.52 716.69 220.54 722.5 223.9C728.32 227.26 730.31 234.7 726.95 240.52L713.88 263.15C711.63 267.06 707.54 269.24 703.34 269.24Z" fill="#D51C29"/>
</svg>
