<svg width="1080" height="1080" viewBox="0 0 1080 1080" fill="none" xmlns="http://www.w3.org/2000/svg">
<path d="M851.44 421.841L681.59 277.541C677.34 273.941 671.49 272.891 666.24 274.801C666.24 274.801 580.36 306.131 580.2 306.201C566.02 238.391 573.84 186.181 588.36 163.921C592.97 156.851 598.17 152.721 603.82 151.641C631.78 146.201 660.19 174.881 679.81 228.121C682.77 236.161 691.67 240.281 699.71 237.311C707.74 234.351 711.85 225.441 708.89 217.411C683.59 148.711 642.13 112.831 597.99 121.191C583.96 123.881 571.66 132.801 562.41 146.971C539.33 182.351 535.2 248.871 551.63 320.561C562.87 369.621 581.23 411.341 602.73 440.621C592.6 467.081 599.32 498.991 622.82 518.971C656.24 547.351 706.55 539.021 729.15 499.911C742.13 477.451 741.18 448.651 726.69 427.141C701.87 390.301 652.54 385.771 621.67 413.231C608.82 393.151 596.72 366.751 587.66 335.961C588.39 335.881 616.72 325.681 639.62 317.411C657.43 310.971 677.32 314.581 691.75 326.841L801.07 419.721C815.55 432.021 822.31 451.151 818.77 469.821L796.18 588.891L553.22 874.871C524.6 908.551 473.91 912.681 440.22 884.051L291.9 758.041C258.16 729.381 254.05 678.791 282.71 645.051L528.32 355.951C533.86 349.421 533.07 339.651 526.55 334.101C520.02 328.571 510.24 329.361 504.71 335.871L259.1 624.981C219.32 671.781 225 741.881 271.84 781.661L420.16 907.681C466.98 947.421 537.24 941.561 576.84 894.941L822.45 605.841C824.19 603.801 825.37 601.331 825.87 598.691L856.64 436.541C857.68 431.061 855.7 425.451 851.45 421.841H851.44ZM699.33 442.171C708.29 453.911 709.66 470.461 702.67 483.481C690.37 506.391 661.32 510.821 642.89 495.151C635.09 488.531 630.29 479.301 629.34 469.131C643.04 480.111 657.37 484.521 671.25 486.111C685.71 487.761 694.2 475.531 692.59 467.121C690.98 458.701 683 454.991 674.45 454.811C659.84 454.511 647.52 449.581 640.68 437.851C657.02 421.641 684.47 422.721 699.33 442.181V442.171Z" fill="#D51C29"/>
<path d="M453.15 654.79C424.56 654.79 401.3 631.53 401.3 602.95C401.3 574.37 424.56 551.1 453.15 551.1C481.74 551.1 505 574.36 505 602.95C505 631.54 481.74 654.79 453.15 654.79ZM453.15 582.1C441.65 582.1 432.3 591.45 432.3 602.95C432.3 614.45 441.66 623.79 453.15 623.79C464.64 623.79 474 614.44 474 602.95C474 591.46 464.64 582.1 453.15 582.1Z" fill="#D51C29"/>
<path d="M586.43 757.78C557.84 757.78 534.58 734.52 534.58 705.93C534.58 677.34 557.84 654.09 586.43 654.09C615.02 654.09 638.27 677.35 638.27 705.93C638.27 734.51 615.01 757.78 586.43 757.78ZM586.43 685.09C574.93 685.09 565.58 694.44 565.58 705.93C565.58 717.42 574.94 726.79 586.43 726.79C597.92 726.79 607.28 717.44 607.28 705.93C607.28 694.42 597.93 685.09 586.43 685.09Z" fill="#D51C29"/>
<path d="M417.579 746.779C411.749 740.509 412.099 730.709 418.359 724.879L594.039 561.319C600.299 555.469 610.109 555.829 615.939 562.099C621.769 568.369 621.419 578.169 615.159 583.999L439.479 747.559C433.199 753.419 423.379 753.019 417.579 746.779Z" fill="#D51C29"/>
<path d="M322.359 434.862L242.099 379.162C235.069 374.282 233.319 364.622 238.209 357.592C243.089 350.562 252.749 348.832 259.779 353.702L340.029 409.402C347.059 414.282 348.81 423.942 343.92 430.972C339.05 438.002 329.389 439.742 322.349 434.862H322.359Z" fill="#D51C29"/>
<path d="M362.209 368.871L306.619 273.911C302.289 266.531 304.779 257.031 312.159 252.701C319.539 248.391 329.039 250.861 333.359 258.251L388.949 353.211C393.279 360.601 390.789 370.091 383.409 374.421C375.999 378.741 366.519 376.241 362.209 368.871Z" fill="#D51C29"/>
<path d="M286.3 501.551L177.84 482.991C169.41 481.551 163.74 473.541 165.18 465.101C166.62 456.661 174.61 450.961 183.07 452.441L291.53 471.001C299.96 472.441 305.63 480.451 304.19 488.891C302.74 497.361 294.7 502.991 286.3 501.551Z" fill="#D51C29"/>
<path d="M810.58 862L742.84 804.79C736.3 799.26 735.48 789.48 741 782.95C746.52 776.41 756.3 775.6 762.84 781.1L830.58 838.31C837.12 843.84 837.94 853.62 832.42 860.15C826.9 866.7 817.12 867.51 810.58 862Z" fill="#D51C29"/>
<path d="M896.02 772.501L796.92 749.431C788.58 747.491 783.4 739.161 785.34 730.831C787.28 722.501 795.61 717.341 803.95 719.251L903.05 742.321C911.39 744.261 916.57 752.591 914.63 760.921C912.7 769.201 904.43 774.441 896.02 772.501Z" fill="#D51C29"/>
<path d="M726.72 950.451L687.68 856.491C684.4 848.591 688.14 839.521 696.04 836.241C703.94 832.961 713.01 836.691 716.3 844.601L755.34 938.561C758.62 946.461 754.88 955.531 746.98 958.811C739.06 962.101 730 958.341 726.72 950.451Z" fill="#D51C29"/>
</svg>
