<svg width="1080" height="1080" viewBox="0 0 1080 1080" fill="none" xmlns="http://www.w3.org/2000/svg">
<path d="M764.51 418.18C764.51 409.41 757.43 402.33 748.66 402.33H280.94C272.17 402.33 265.09 409.41 265.09 418.18C265.09 426.95 272.17 434.03 280.94 434.03H748.74C757.44 433.95 764.52 426.87 764.52 418.18H764.51ZM838.46 596.48V354.77C838.46 305.29 798.21 264.97 748.66 264.97H636.23V205.33C636.23 196.56 629.15 189.48 620.38 189.48C611.61 189.48 604.53 196.56 604.53 205.33V264.97H425V205.33C425 196.56 417.92 189.48 409.15 189.48C400.38 189.48 393.3 196.56 393.3 205.33V264.97H280.95C231.47 264.97 191.15 305.22 191.15 354.77V747.461C191.15 796.941 231.4 837.26 280.95 837.26H592.07C623.47 870.04 667.64 890.51 716.5 890.51C811.54 890.51 888.87 813.171 888.87 718.141C888.79 670.661 869.55 627.64 838.47 596.48H838.46ZM280.94 805.49C248.93 805.49 222.84 779.401 222.84 747.391V354.78C222.84 322.77 248.93 296.68 280.94 296.68H393.37V303.45C393.37 312.22 400.45 319.3 409.22 319.3C417.99 319.3 425.07 312.22 425.07 303.45V296.68H604.6V303.45C604.6 312.22 611.68 319.3 620.45 319.3C629.22 319.3 636.3 312.22 636.3 303.45V296.68H748.73C780.74 296.68 806.83 322.77 806.83 354.78V571.331C780.51 555.091 749.58 545.701 716.49 545.701C621.45 545.701 544.12 623.04 544.12 718.07C544.12 749.93 552.89 779.86 568.05 805.49H280.94ZM716.42 859.66C638.31 859.66 574.83 796.17 574.83 718.07C574.83 639.97 638.32 576.48 716.42 576.48C794.52 576.48 858.01 639.97 858.01 718.07C858.01 796.17 794.45 859.66 716.42 859.66ZM793.52 743.461H706.33C697.79 743.461 690.94 736.53 690.94 728.07V636.5C690.94 628.04 697.79 621.11 706.33 621.11C714.87 621.11 721.72 628.04 721.72 636.5V712.68H793.52C802.06 712.68 808.91 719.61 808.91 728.07C808.91 736.53 802.06 743.461 793.52 743.461Z" fill="#D51C29"/>
</svg>
