<svg width="1080" height="1080" viewBox="0 0 1080 1080" fill="none" xmlns="http://www.w3.org/2000/svg">
<path d="M540.01 338.57C595.61 338.57 645.98 361.13 682.43 397.58C718.88 434.03 741.44 484.4 741.44 540C741.44 595.6 718.88 645.97 682.43 682.42C645.98 718.87 595.61 741.43 540.01 741.43C484.41 741.43 434.04 718.87 397.59 682.42C361.14 645.97 338.58 595.6 338.58 540C338.58 484.4 361.14 434.03 397.59 397.58C434.04 361.13 484.42 338.57 540.01 338.57ZM336.92 709.31C303.96 742.27 271.01 775.22 238.05 808.18C228.36 817.88 228.36 833.63 238.05 843.33C247.75 853.02 263.5 853.02 273.19 843.33C306.15 810.37 339.1 777.41 372.06 744.46C381.76 734.76 381.76 719.01 372.06 709.32C362.36 699.63 346.61 699.63 336.92 709.32V709.31ZM709.31 743.08C742.27 776.04 775.22 809 808.18 841.95C817.88 851.65 833.63 851.65 843.32 841.95C853.01 832.26 853.01 816.5 843.32 806.81C810.36 773.85 777.41 740.89 744.45 707.94C734.76 698.24 719 698.24 709.31 707.94C699.62 717.64 699.62 733.39 709.31 743.08ZM743.08 370.7C776.04 337.74 808.99 304.79 841.95 271.83C851.64 262.14 851.64 246.38 841.95 236.69C832.26 227 816.5 227 806.81 236.69C773.85 269.65 740.9 302.6 707.94 335.56C698.24 345.26 698.24 361.01 707.94 370.7C717.63 380.39 733.39 380.39 743.08 370.7ZM370.69 336.92C337.73 303.96 304.78 271.01 271.82 238.05C262.13 228.36 246.38 228.36 236.68 238.05C226.99 247.75 226.99 263.5 236.68 273.19C269.64 306.15 302.6 339.1 335.55 372.06C345.24 381.76 361 381.76 370.69 372.06C380.38 362.36 380.38 346.61 370.69 336.92ZM276.67 516.12C290.39 516.12 301.52 527.25 301.52 540.98C301.52 554.71 290.39 565.84 276.67 565.84H136.85C123.13 565.84 112 554.71 112 540.98C112 527.25 123.13 516.12 136.85 516.12H276.67ZM516.11 803.33C516.11 789.6 527.24 778.47 540.97 778.47C554.7 778.47 565.82 789.6 565.82 803.33V943.14C565.82 956.87 554.69 967.99 540.97 967.99C527.25 967.99 516.11 956.86 516.11 943.14V803.33ZM803.33 563.89C789.61 563.89 778.48 552.76 778.48 539.03C778.48 525.3 789.61 514.17 803.33 514.17H943.15C956.87 514.17 968 525.3 968 539.03C968 552.76 956.87 563.89 943.15 563.89H803.33ZM563.88 276.67C563.88 290.39 552.75 301.53 539.02 301.53C525.29 301.53 514.16 290.4 514.16 276.67V136.85C514.16 123.13 525.29 111.99 539.02 111.99C552.75 111.99 563.88 123.12 563.88 136.85V276.67ZM647.3 432.72C619.85 405.27 581.91 388.28 540.02 388.28C498.13 388.28 460.18 405.27 432.74 432.72C405.29 460.17 388.3 498.11 388.3 540C388.3 581.89 405.29 619.84 432.74 647.28C460.19 674.72 498.13 691.72 540.02 691.72C581.91 691.72 619.85 674.72 647.3 647.28C674.74 619.83 691.74 581.89 691.74 540C691.74 498.11 674.74 460.17 647.3 432.72Z" fill="#D51C29"/>
</svg>
