<svg width="703" height="804" viewBox="0 0 703 804" fill="none" xmlns="http://www.w3.org/2000/svg">
<path d="M187.577 334.38C148.487 344.85 109.387 355.32 70.2766 365.81C57.8766 369.13 45.1066 361.74 41.7966 349.34C38.4766 336.94 45.8666 324.17 58.2666 320.86C82.3866 314.4 106.497 307.95 130.617 301.48C90.9466 278.58 51.2766 255.67 11.5966 232.76C0.486601 226.33 -3.2934 212.11 3.1266 201C9.5566 189.9 23.7766 186.11 34.8866 192.53C74.5466 215.44 114.207 238.34 153.867 261.23C147.407 237.09 140.947 212.96 134.477 188.82C131.157 176.42 138.547 163.65 150.937 160.34C163.337 157.02 176.107 164.41 179.417 176.81C189.887 215.92 200.357 255.03 210.837 294.13C234.467 307.77 258.087 321.41 281.707 335.05C292.817 341.48 296.607 355.7 290.177 366.81C283.747 377.91 269.527 381.7 258.417 375.27C234.807 361.63 211.197 348 187.587 334.38H187.577ZM374.497 308.34V226.47C403.107 197.86 431.717 169.24 460.337 140.63C469.417 131.55 469.417 116.78 460.337 107.7C451.247 98.62 436.487 98.62 427.407 107.7C409.767 125.34 392.127 142.98 374.497 160.61V23.29C374.497 10.43 364.067 0 351.197 0C338.327 0 327.907 10.43 327.907 23.29V160.61C310.267 142.98 292.627 125.34 274.997 107.7C265.907 98.62 251.147 98.62 242.057 107.7C232.967 116.79 232.967 131.55 242.057 140.63C270.677 169.24 299.287 197.86 327.897 226.47V308.34C327.897 321.2 338.327 331.63 351.187 331.63C364.047 331.63 374.487 321.2 374.487 308.34H374.497ZM327.907 495.68C327.907 482.82 338.337 472.39 351.197 472.39C364.057 472.39 374.497 482.82 374.497 495.68V577.52C403.107 606.13 431.717 634.74 460.337 663.36C469.417 672.44 469.417 687.21 460.337 696.29C451.247 705.38 436.487 705.38 427.407 696.29C409.767 678.65 392.127 661.01 374.497 643.38V780.7C374.497 793.56 364.067 804 351.197 804C338.327 804 327.907 793.57 327.907 780.7V643.38C310.267 661.01 292.627 678.65 274.997 696.29C265.907 705.38 251.147 705.38 242.057 696.29C232.967 687.2 232.967 672.44 242.057 663.36C270.677 634.74 299.287 606.13 327.897 577.52V495.68H327.907ZM443.857 375.29C432.747 381.67 418.567 377.84 412.197 366.73C405.817 355.62 409.647 341.44 420.747 335.07C444.347 321.44 467.947 307.82 491.557 294.19C502.027 255.06 512.517 215.94 522.997 176.82C526.317 164.42 539.077 157.04 551.477 160.35C563.877 163.66 571.257 176.43 567.947 188.83C561.477 213 555.007 237.14 548.537 261.29C588.227 238.38 627.917 215.46 667.627 192.53C678.727 186.16 692.917 189.98 699.287 201.09C705.657 212.2 701.837 226.38 690.737 232.76C651.067 255.67 611.407 278.57 571.737 301.46C595.867 307.93 620.007 314.4 644.137 320.86C656.537 324.18 663.917 336.94 660.607 349.34C657.287 361.74 644.517 369.12 632.127 365.81C592.987 355.33 553.867 344.84 514.747 334.36C491.117 348 467.477 361.64 443.857 375.29ZM258.407 428.73C234.797 442.36 211.187 455.99 187.597 469.61C148.497 459.13 109.387 448.66 70.2766 438.19C57.8766 434.87 45.1066 442.26 41.7966 454.66C38.4766 467.06 45.8666 479.83 58.2666 483.14C82.3866 489.59 106.517 496.05 130.627 502.52C90.9566 525.42 51.2866 548.33 11.6066 571.24C0.50661 577.67 -3.2834 591.89 3.1466 603C9.5766 614.1 23.7966 617.89 34.8966 611.46C74.5666 588.56 114.217 565.67 153.867 542.77C147.407 566.89 140.947 591.03 134.477 615.17C131.157 627.57 138.547 640.33 150.937 643.65C163.337 646.97 176.107 639.58 179.417 627.18C189.887 588.07 200.357 548.97 210.837 509.88C234.467 496.24 258.087 482.6 281.707 468.96C292.817 462.53 296.607 448.31 290.177 437.2C283.747 426.1 269.527 422.31 258.417 428.73H258.407ZM420.667 468.93C444.297 482.57 467.937 496.21 491.577 509.86C502.047 548.96 512.517 588.06 522.997 627.18C526.317 639.58 539.077 646.96 551.477 643.65C563.877 640.33 571.257 627.57 567.947 615.17C561.477 591.03 555.007 566.89 548.547 542.77C588.197 565.66 627.857 588.56 667.517 611.46C678.627 617.89 692.847 614.1 699.277 603C705.707 591.89 701.917 577.68 690.817 571.24C651.137 548.33 611.477 525.42 571.807 502.52C595.917 496.05 620.027 489.6 644.147 483.14C656.547 479.82 663.927 467.05 660.617 454.66C657.297 442.26 644.527 434.88 632.137 438.19C593.027 448.66 553.917 459.13 514.817 469.61C491.197 455.97 467.567 442.33 443.967 428.7C432.867 422.27 418.647 426.06 412.217 437.16C405.787 448.27 409.577 462.48 420.677 468.92L420.667 468.93Z" fill="#D51C29"/>
</svg>
