<svg width="1080" height="1080" viewBox="0 0 1080 1080" fill="none" xmlns="http://www.w3.org/2000/svg">
<path d="M376.38 472.38C337.29 482.85 298.19 493.32 259.08 503.81C246.68 507.13 233.91 499.74 230.6 487.34C227.28 474.94 234.67 462.17 247.07 458.86C271.19 452.4 295.3 445.95 319.42 439.48C279.75 416.58 240.08 393.67 200.4 370.76C189.29 364.33 185.51 350.11 191.93 339C198.36 327.9 212.58 324.11 223.69 330.53C263.35 353.44 303.01 376.34 342.67 399.23C336.21 375.09 329.75 350.96 323.28 326.82C319.96 314.42 327.35 301.65 339.74 298.34C352.14 295.02 364.91 302.41 368.22 314.81C378.69 353.92 389.16 393.03 399.64 432.13C423.27 445.77 446.89 459.41 470.51 473.05C481.62 479.48 485.41 493.7 478.98 504.81C472.55 515.91 458.33 519.7 447.22 513.27C423.61 499.63 400 486 376.39 472.38H376.38ZM563.3 446.34V364.47C591.91 335.86 620.52 307.24 649.14 278.63C658.22 269.55 658.22 254.78 649.14 245.7C640.05 236.62 625.29 236.62 616.21 245.7C598.57 263.34 580.93 280.98 563.3 298.61V161.29C563.3 148.43 552.87 138 540 138C527.13 138 516.71 148.43 516.71 161.29V298.61C499.07 280.98 481.43 263.34 463.8 245.7C454.71 236.62 439.95 236.62 430.86 245.7C421.77 254.79 421.77 269.55 430.86 278.63C459.48 307.24 488.09 335.86 516.7 364.47V446.34C516.7 459.2 527.13 469.63 539.99 469.63C552.85 469.63 563.29 459.2 563.29 446.34H563.3ZM516.71 633.68C516.71 620.82 527.14 610.39 540 610.39C552.86 610.39 563.3 620.82 563.3 633.68V715.52C591.91 744.13 620.52 772.74 649.14 801.36C658.22 810.44 658.22 825.21 649.14 834.29C640.05 843.38 625.29 843.38 616.21 834.29C598.57 816.65 580.93 799.01 563.3 781.38V918.7C563.3 931.56 552.87 942 540 942C527.13 942 516.71 931.57 516.71 918.7V781.38C499.07 799.01 481.43 816.65 463.8 834.29C454.71 843.38 439.95 843.38 430.86 834.29C421.77 825.2 421.77 810.44 430.86 801.36C459.48 772.74 488.09 744.13 516.7 715.52V633.68H516.71ZM632.66 513.29C621.55 519.67 607.37 515.84 601 504.73C594.62 493.62 598.45 479.44 609.55 473.07C633.15 459.44 656.75 445.82 680.36 432.19C690.83 393.06 701.32 353.94 711.8 314.82C715.12 302.42 727.88 295.04 740.28 298.35C752.68 301.66 760.06 314.43 756.75 326.83C750.28 351 743.81 375.14 737.34 399.29C777.03 376.38 816.72 353.46 856.43 330.53C867.53 324.16 881.72 327.98 888.09 339.09C894.46 350.2 890.64 364.38 879.54 370.76C839.87 393.67 800.21 416.57 760.54 439.46C784.67 445.93 808.81 452.4 832.94 458.86C845.34 462.18 852.72 474.94 849.41 487.34C846.09 499.74 833.32 507.12 820.93 503.81C781.79 493.33 742.67 482.84 703.55 472.36C679.92 486 656.28 499.64 632.66 513.29ZM447.21 566.73C423.6 580.36 399.99 593.99 376.4 607.61C337.3 597.13 298.19 586.66 259.08 576.19C246.68 572.87 233.91 580.26 230.6 592.66C227.28 605.06 234.67 617.83 247.07 621.14C271.19 627.59 295.32 634.05 319.43 640.52C279.76 663.42 240.09 686.33 200.41 709.24C189.31 715.67 185.52 729.89 191.95 741C198.38 752.1 212.6 755.89 223.7 749.46C263.37 726.56 303.02 703.67 342.67 680.77C336.21 704.89 329.75 729.03 323.28 753.17C319.96 765.57 327.35 778.33 339.74 781.65C352.14 784.97 364.91 777.58 368.22 765.18C378.69 726.07 389.16 686.97 399.64 647.88C423.27 634.24 446.89 620.6 470.51 606.96C481.62 600.53 485.41 586.31 478.98 575.2C472.55 564.1 458.33 560.31 447.22 566.73H447.21ZM609.47 606.93C633.1 620.57 656.74 634.21 680.38 647.86C690.85 686.96 701.32 726.06 711.8 765.18C715.12 777.58 727.88 784.96 740.28 781.65C752.68 778.33 760.06 765.57 756.75 753.17C750.28 729.03 743.81 704.89 737.35 680.77C777 703.66 816.66 726.56 856.32 749.46C867.43 755.89 881.65 752.1 888.08 741C894.51 729.89 890.72 715.68 879.62 709.24C839.94 686.33 800.28 663.42 760.61 640.52C784.72 634.05 808.83 627.6 832.95 621.14C845.35 617.82 852.73 605.05 849.42 592.66C846.1 580.26 833.33 572.88 820.94 576.19C781.83 586.66 742.72 597.13 703.62 607.61C680 593.97 656.37 580.33 632.77 566.7C621.67 560.27 607.45 564.06 601.02 575.16C594.59 586.27 598.38 600.48 609.48 606.92L609.47 606.93Z" fill="#D51C29"/>
</svg>
